<svg width="24" height="24" viewBox="0 0 24 24" fill="none" xmlns="http://www.w3.org/2000/svg">
<path d="M8.72727 9.81818H1.09091C0.801582 9.81818 0.524104 9.70325 0.319519 9.49866C0.114934 9.29408 0 9.0166 0 8.72727V1.09091C0 0.801582 0.114934 0.524104 0.319519 0.319519C0.524104 0.114934 0.801582 0 1.09091 0H8.72727C9.0166 0 9.29408 0.114934 9.49866 0.319519C9.70325 0.524104 9.81818 0.801582 9.81818 1.09091V8.72727C9.81818 9.0166 9.70325 9.29408 9.49866 9.49866C9.29408 9.70325 9.0166 9.81818 8.72727 9.81818Z" fill="#8C30F5"/>
<path d="M8.72727 24H1.09091C0.801582 24 0.524104 23.8851 0.319519 23.6805C0.114934 23.4759 0 23.1984 0 22.9091V15.2727C0 14.9834 0.114934 14.7059 0.319519 14.5013C0.524104 14.2968 0.801582 14.1818 1.09091 14.1818H8.72727C9.0166 14.1818 9.29408 14.2968 9.49866 14.5013C9.70325 14.7059 9.81818 14.9834 9.81818 15.2727V22.9091C9.81818 23.1984 9.70325 23.4759 9.49866 23.6805C9.29408 23.8851 9.0166 24 8.72727 24Z" fill="#8C30F5"/>
<path d="M13.0908 1.09091H23.9999V3.27273H13.0908V1.09091Z" fill="#2EC5CE"/>
<path d="M23.9999 15.2727H13.0908V17.4545H23.9999V15.2727Z" fill="#2EC5CE"/>
<path d="M23.9999 20.7273H13.0908V22.9091H23.9999V20.7273Z" fill="#D6B1FF"/>
<path d="M23.9999 6.54546H13.0908V8.72727H23.9999V6.54546Z" fill="#D6B1FF"/>
</svg>
