<svg width="140" height="26" viewBox="0 0 140 26" fill="none" xmlns="http://www.w3.org/2000/svg">
<g clip-path="url(#clip0_68_3896)">
<path d="M12.856 0.159668C10.3133 0.159668 7.82773 0.912663 5.71358 2.32343C3.59943 3.7342 1.95164 5.73938 0.978608 8.0854C0.00557028 10.4314 -0.249021 13.0129 0.247029 15.5034C0.74308 17.994 1.96749 20.2817 3.76543 22.0772C5.56337 23.8728 7.85408 25.0956 10.3479 25.591C12.8417 26.0864 15.4266 25.8321 17.7757 24.8604C20.1249 23.8886 22.1327 22.243 23.5453 20.1316C24.9579 18.0203 25.7119 15.538 25.7119 12.9987C25.7119 9.59356 24.3575 6.32791 21.9465 3.92013C19.5355 1.51235 16.2656 0.159668 12.856 0.159668V0.159668ZM19.3003 12.9987C19.294 14.4607 18.7086 15.8609 17.672 16.8933C16.6354 17.9257 15.2318 18.5065 13.7678 18.5088H6.41161V12.9987C6.41161 11.536 6.99344 10.1331 8.02911 9.09885C9.06477 8.06455 10.4694 7.48349 11.9341 7.48349H19.2991L19.3003 12.9987Z" fill="#258CF2"/>
<path d="M38.5515 25.6164C38.3131 25.6151 38.0848 25.5199 37.9162 25.3516C37.7476 25.1832 37.6523 24.9552 37.651 24.7171V7.04463C37.649 6.92722 37.6715 6.81068 37.717 6.70241C37.7625 6.59415 37.8301 6.49653 37.9155 6.41576C37.9971 6.33148 38.095 6.26462 38.2032 6.21922C38.3114 6.17382 38.4278 6.15083 38.5452 6.15163H41.6698C41.7916 6.14652 41.9132 6.16744 42.0264 6.21299C42.1395 6.25853 42.2416 6.32766 42.3259 6.41576C42.4842 6.58682 42.5711 6.81174 42.569 7.04463V24.7222C42.5711 24.9551 42.4842 25.18 42.3259 25.351C42.2425 25.4403 42.1405 25.5102 42.0272 25.5558C41.9138 25.6014 41.7918 25.6217 41.6698 25.6152L38.5515 25.6164Z" fill="white"/>
<path d="M39.7544 0.000976562H42.7556V2.24856C42.7556 2.54403 42.6973 2.83661 42.5839 3.10954C42.4706 3.38248 42.3045 3.63042 42.0951 3.83917C41.8857 4.04793 41.6372 4.21341 41.3637 4.32614C41.0902 4.43887 40.7971 4.49663 40.5013 4.49614H37.5039V2.24856C37.5039 1.9534 37.5621 1.66113 37.6752 1.38845C37.7883 1.11576 37.9541 0.867985 38.1631 0.659278C38.3721 0.450571 38.6202 0.285015 38.8932 0.172063C39.1663 0.059112 39.4589 0.000976562 39.7544 0.000976563V0.000976562Z" fill="#258CF2"/>
<path d="M45.6407 25.62C45.5251 25.6251 45.4096 25.6067 45.3014 25.5658C45.1931 25.5249 45.0943 25.4625 45.011 25.3823C44.9273 25.3005 44.8611 25.2026 44.8165 25.0945C44.7719 24.9864 44.7498 24.8703 44.7516 24.7534V7.04441C44.7509 6.92613 44.7737 6.80889 44.8187 6.69948C44.8638 6.59007 44.9301 6.49067 45.0138 6.40703C45.0976 6.32339 45.1971 6.25718 45.3067 6.21222C45.4162 6.16726 45.5336 6.14446 45.652 6.14512H48.7174C48.8359 6.14446 48.9532 6.16726 49.0628 6.21222C49.1724 6.25718 49.2719 6.32339 49.3556 6.40703C49.4394 6.49067 49.5057 6.59007 49.5507 6.69948C49.5957 6.80889 49.6185 6.92613 49.6179 7.04441V8.57759C50.3683 7.65316 51.3254 6.91739 52.4122 6.4294C53.4991 5.94142 54.6854 5.71481 55.8758 5.7678C57.2648 5.73783 58.6346 6.09497 59.8316 6.79915C60.9769 7.48957 61.8959 8.4983 62.4764 9.70201C63.1251 11.1099 63.4405 12.648 63.3982 14.1972V24.7194C63.399 24.8367 63.376 24.9528 63.3306 25.0609C63.2851 25.169 63.2182 25.2668 63.1338 25.3483C63.0529 25.4335 62.9551 25.501 62.8467 25.5465C62.7383 25.592 62.6216 25.6144 62.5041 25.6124H59.1956C59.0781 25.6144 58.9614 25.592 58.853 25.5465C58.7445 25.501 58.6468 25.4335 58.5659 25.3483C58.4816 25.2667 58.4147 25.169 58.3692 25.0609C58.3238 24.9528 58.3007 24.8367 58.3015 24.7194V14.4211C58.3739 13.195 57.9975 11.9845 57.2423 11.0151C56.8509 10.5916 56.3697 10.2607 55.834 10.0466C55.2982 9.8325 54.7213 9.74055 54.1454 9.77748C53.5683 9.7517 52.9923 9.84871 52.4556 10.0621C51.9189 10.2754 51.4337 10.6003 51.0322 11.0151C50.2172 11.9568 49.8012 13.1784 49.8723 14.4211V24.7219C49.873 24.8392 49.85 24.9553 49.8045 25.0634C49.7591 25.1715 49.6921 25.2693 49.6078 25.3508C49.5269 25.436 49.4292 25.5036 49.3208 25.549C49.2124 25.5945 49.0957 25.6169 48.9781 25.6149L45.6407 25.62Z" fill="white"/>
<path d="M74.1271 25.9963C72.4819 26.0353 70.8502 25.6908 69.3616 24.9901C68.0363 24.3427 66.9312 23.32 66.1841 22.0495C65.381 20.6244 64.948 19.021 64.9247 17.3858C64.9247 17.0085 64.8882 16.518 64.8882 15.9055C64.8882 15.293 64.8882 14.7899 64.9247 14.3874C64.9496 12.7524 65.3825 11.1495 66.1841 9.72369C66.9312 8.4532 68.0363 7.43049 69.3616 6.78309C70.8502 6.08246 72.4819 5.73795 74.1271 5.7769C75.5204 5.74198 76.9077 5.9716 78.2152 6.45356C79.2434 6.83622 80.1915 7.40644 81.011 8.13516C81.6808 8.73525 82.2356 9.45211 82.6483 10.2507C82.9781 10.8711 83.1746 11.5536 83.2251 12.2543C83.2443 12.3744 83.2321 12.4974 83.1895 12.6114C83.1469 12.7254 83.0754 12.8264 82.982 12.9045C82.802 13.0656 82.5675 13.1523 82.3258 13.1473H79.0275C78.817 13.1621 78.6088 13.0959 78.4456 12.9624C78.2823 12.8004 78.1496 12.6104 78.054 12.4014C77.7927 11.5592 77.2744 10.8195 76.5716 10.2859C75.8713 9.84638 75.0544 9.62849 74.2279 9.6608C73.6748 9.63394 73.1223 9.72529 72.6074 9.92874C72.0924 10.1322 71.6269 10.4431 71.2419 10.8406C70.4122 11.8908 69.9924 13.2061 70.0605 14.5421C70.0128 15.4139 70.0128 16.2876 70.0605 17.1594C69.9876 18.5107 70.4073 19.8427 71.2419 20.9088C71.6304 21.3002 72.097 21.6056 72.6115 21.8052C73.1259 22.0048 73.6767 22.094 74.2279 22.0671C75.0597 22.1056 75.8835 21.8897 76.5893 21.4483C77.2801 20.9077 77.7896 20.1698 78.0502 19.3328C78.1472 19.1246 78.2798 18.9348 78.4418 18.7719C78.605 18.6383 78.8132 18.5721 79.0237 18.587H82.3233C82.5649 18.5819 82.7995 18.6687 82.9795 18.8297C83.0728 18.909 83.1442 19.0109 83.1867 19.1257C83.2293 19.2404 83.2416 19.3641 83.2225 19.485C83.183 20.0034 83.0631 20.5125 82.8674 20.9943C82.6189 21.6233 82.2743 22.21 81.846 22.7337C81.3456 23.344 80.7588 23.8783 80.1043 24.3198C79.325 24.8417 78.4693 25.2397 77.5678 25.4995C76.4513 25.8331 75.2913 25.9988 74.1259 25.9913L74.1271 25.9963Z" fill="white"/>
<path d="M91.0684 25.9898C89.8497 26.0064 88.6434 25.7439 87.5421 25.2226C86.5499 24.7562 85.692 24.0466 85.0484 23.1599C84.28 22.0588 83.9754 20.7003 84.2001 19.3771C84.4248 18.0538 85.161 16.8717 86.2499 16.0851C87.9214 14.9493 89.8434 14.2346 91.8517 14.0023L96.9926 13.2565V12.4691C97.0485 11.5878 96.7666 10.7182 96.2042 10.0367C95.839 9.71333 95.4101 9.46969 94.9452 9.32134C94.4802 9.17298 93.9894 9.12318 93.5041 9.17511C92.7376 9.13763 91.9765 9.321 91.3115 9.70336C90.7617 10.054 90.3245 10.5553 90.0521 11.1472C89.9681 11.2996 89.8435 11.4258 89.6921 11.5117C89.5407 11.5976 89.3684 11.64 89.1944 11.634H86.2298C86.1166 11.6426 86.0029 11.6272 85.8961 11.5889C85.7893 11.5505 85.6919 11.49 85.6101 11.4114C85.4668 11.2443 85.3929 11.0287 85.4036 10.8089C85.4685 10.2953 85.6341 9.79955 85.891 9.34993C86.2687 8.70742 86.7689 8.14508 87.3632 7.69475C88.112 7.10914 88.953 6.6518 89.8518 6.34142C91.0458 5.94319 92.2997 5.75342 93.5582 5.78047C94.9123 5.74722 96.2623 5.9437 97.5505 6.36154C98.5286 6.68126 99.4224 7.21592 100.166 7.92617C100.809 8.56947 101.296 9.35063 101.591 10.2102C101.894 11.1012 102.046 12.0364 102.04 12.9773V24.7107C102.041 24.8279 102.018 24.9441 101.973 25.0522C101.927 25.1603 101.86 25.258 101.776 25.3396C101.695 25.4248 101.597 25.4923 101.489 25.5378C101.38 25.5833 101.264 25.6057 101.146 25.6037H98.1072C97.9837 25.6168 97.8588 25.6023 97.7416 25.5612C97.6244 25.5201 97.5178 25.4534 97.4296 25.366C97.269 25.1964 97.1817 24.9705 97.1866 24.7371V23.2668C96.8253 23.7787 96.3814 24.2272 95.873 24.5937C95.2635 25.0359 94.5859 25.3757 93.8668 25.5999C92.9613 25.8804 92.0162 26.0121 91.0684 25.9898V25.9898ZM92.3391 22.4317C93.1676 22.4444 93.9863 22.2517 94.7219 21.8707C95.4525 21.4783 96.0427 20.8687 96.4108 20.1262C96.8559 19.1987 97.0685 18.177 97.0304 17.1492V16.3933L93.2812 16.9907C92.1163 17.0999 90.9891 17.4609 89.9777 18.0485C89.6598 18.2394 89.3957 18.5081 89.2105 18.8291C89.0252 19.1502 88.9247 19.513 88.9186 19.8835C88.9117 20.402 89.1005 20.904 89.4475 21.2897C89.7964 21.6836 90.2416 21.9804 90.7397 22.1512C91.2597 22.3366 91.8072 22.4331 92.3593 22.4367L92.3391 22.4317Z" fill="white"/>
<path d="M111.419 25.9963C110.118 26.0235 108.821 25.8452 107.576 25.468C106.637 25.1818 105.754 24.7382 104.965 24.1562C104.376 23.7197 103.868 23.1828 103.466 22.5702C103.189 22.1805 103.008 21.7311 102.937 21.2584C102.919 21.1375 102.932 21.0141 102.974 20.8995C103.017 20.785 103.088 20.683 103.18 20.6031C103.35 20.4492 103.571 20.3628 103.8 20.3603H106.759C106.849 20.3595 106.939 20.374 107.024 20.4031C107.14 20.4536 107.244 20.5297 107.326 20.6257L108.354 21.4873C108.746 21.8052 109.183 22.0637 109.651 22.2545C110.354 22.5017 111.099 22.6061 111.843 22.5616C112.587 22.5171 113.314 22.3246 113.982 21.9954C114.229 21.854 114.443 21.6609 114.608 21.4294C114.773 21.1978 114.886 20.9333 114.94 20.654C114.993 20.3747 114.985 20.0872 114.917 19.8112C114.849 19.5351 114.721 19.2771 114.544 19.0548C114.095 18.6358 113.549 18.3334 112.956 18.1744C111.873 17.8328 110.772 17.5523 109.657 17.3342C108.445 17.077 107.271 16.6609 106.168 16.0966C105.321 15.6729 104.606 15.0256 104.102 14.2251C103.631 13.3946 103.401 12.4497 103.438 11.4961C103.474 10.5424 103.776 9.61776 104.309 8.82561C104.98 7.87437 105.893 7.11863 106.953 6.63589C108.312 6.02232 109.794 5.7276 111.285 5.77434C112.481 5.75796 113.672 5.93638 114.811 6.30259C115.703 6.5874 116.545 7.01193 117.304 7.56033C117.889 7.98195 118.402 8.49449 118.825 9.07842C119.122 9.46564 119.315 9.92243 119.386 10.4053C119.405 10.5244 119.395 10.6464 119.356 10.7606C119.317 10.8748 119.251 10.9778 119.163 11.0606C119.002 11.217 118.785 11.3041 118.56 11.3034H115.789C115.672 11.307 115.556 11.2815 115.451 11.2292C115.346 11.1772 115.247 11.1152 115.155 11.0443C114.879 10.7927 114.578 10.516 114.254 10.2569C113.889 9.96066 113.484 9.71526 113.053 9.52743C112.475 9.29497 111.854 9.18697 111.232 9.21048C110.466 9.15735 109.705 9.36824 109.077 9.80791C108.84 9.99177 108.65 10.2278 108.52 10.4976C108.391 10.7673 108.326 11.0633 108.33 11.3625C108.32 11.7585 108.445 12.1462 108.685 12.4617C109.082 12.8781 109.583 13.1819 110.136 13.3422C111.212 13.7106 112.315 13.9986 113.434 14.2037C114.833 14.4063 116.185 14.8556 117.427 15.5306C118.304 16.0005 119.037 16.7006 119.545 17.5556C119.95 18.3408 120.148 19.2159 120.122 20.0987C120.132 21.1853 119.786 22.2453 119.137 23.1173C118.382 24.0837 117.368 24.8171 116.214 25.2328C114.677 25.7832 113.051 26.0421 111.419 25.9963V25.9963Z" fill="white"/>
<path d="M122.105 25.6212C121.988 25.6232 121.871 25.6007 121.762 25.5553C121.654 25.5098 121.556 25.4423 121.475 25.357C121.391 25.2755 121.324 25.1778 121.279 25.0697C121.233 24.9616 121.21 24.8454 121.211 24.7282V0.900292C121.21 0.783054 121.233 0.666872 121.279 0.558778C121.324 0.450684 121.391 0.352926 121.475 0.271422C121.557 0.187146 121.655 0.120285 121.763 0.0748853C121.871 0.0294859 121.988 0.00649242 122.105 0.00729674H125.441C125.563 0.00152408 125.685 0.0221366 125.798 0.0677234C125.912 0.11331 126.014 0.182795 126.097 0.271422C126.258 0.44099 126.345 0.666911 126.341 0.900292V8.46182C127.028 7.65436 127.871 6.99275 128.819 6.5161C129.942 5.98103 131.176 5.72227 132.42 5.76146C133.82 5.72894 135.203 6.08602 136.412 6.7928C137.556 7.48515 138.474 8.49335 139.057 9.69567C139.716 11.1006 140.036 12.64 139.994 14.1908V24.7169C139.995 24.8338 139.973 24.9498 139.929 25.0579C139.884 25.1661 139.818 25.264 139.734 25.3457C139.653 25.431 139.556 25.4985 139.447 25.5439C139.339 25.5894 139.222 25.6119 139.105 25.6098H135.727C135.609 25.6119 135.493 25.5894 135.384 25.5439C135.276 25.4985 135.178 25.431 135.097 25.3457C135.013 25.2642 134.946 25.1665 134.9 25.0584C134.855 24.9503 134.832 24.8341 134.833 24.7169V14.421C134.908 13.1946 134.531 11.9831 133.773 11.015C133.384 10.591 132.903 10.2597 132.368 10.0455C131.833 9.83134 131.257 9.73972 130.682 9.77742C130.102 9.7514 129.524 9.84823 128.984 10.0615C128.445 10.2749 127.957 10.5998 127.552 11.015C126.721 11.9494 126.291 13.1728 126.356 14.421V24.7219C126.361 24.9553 126.273 25.1812 126.113 25.3508C126.029 25.4403 125.927 25.5104 125.814 25.556C125.701 25.6017 125.578 25.6218 125.456 25.6149L122.105 25.6212Z" fill="white"/>
</g>
<defs>
<clipPath id="clip0_68_3896">
<rect width="140" height="26" fill="white"/>
</clipPath>
</defs>
</svg>
