<svg width="24" height="24" viewBox="0 0 24 24" fill="none" xmlns="http://www.w3.org/2000/svg">
<path d="M12 3L12.01 13.55C11.42 13.21 10.74 13 10.01 13C7.79 13 6 14.79 6 17C6 19.21 7.79 21 10.01 21C12.23 21 14 19.21 14 17V7H18V3H12ZM10.01 19C8.91 19 8.01 18.1 8.01 17C8.01 15.9 8.91 15 10.01 15C11.11 15 12.01 15.9 12.01 17C12.01 18.1 11.11 19 10.01 19Z" fill="#8C30F5"/>
<path fill-rule="evenodd" clip-rule="evenodd" d="M10 21C12.2092 21 14 19.2091 14 17C14 14.7909 12.2092 13 10 13C7.79077 13 6 14.7909 6 17C6 19.2091 7.79077 21 10 21ZM10 19C11.1045 19 12 18.1046 12 17C12 15.8954 11.1045 15 10 15C8.89551 15 8 15.8954 8 17C8 18.1046 8.89551 19 10 19Z" fill="#2EC5CE"/>
</svg>
