<svg width="168" height="30" viewBox="0 0 168 30" fill="none" xmlns="http://www.w3.org/2000/svg">
<path fill-rule="evenodd" clip-rule="evenodd" d="M1.53334 0.137281C0.497806 0.491495 -0.188523 1.84369 0.101412 2.95819C0.236941 3.47936 0.734385 4.03764 4.86733 8.30657C9.56039 13.1542 10.0193 13.5537 10.9016 13.5598C11.3746 13.563 12.1302 13.2679 12.4794 12.9434C13.1698 12.3017 13.3823 11.0788 12.9513 10.2274C12.8176 9.96357 11.6316 8.64565 10.3156 7.29889C8.99952 5.95213 7.95128 4.80271 7.98614 4.74477C8.06995 4.60537 11.6406 4.617 12.7212 4.76029C14.4856 4.99411 15.9627 6.08326 16.7538 7.7338C17.1314 8.52176 17.1581 8.66763 17.1581 9.93848C17.1581 11.1991 17.1286 11.3634 16.7587 12.1661C16.3162 13.1259 15.5486 13.993 14.6764 14.5182C13.5939 15.1701 12.8673 15.2391 7.05442 15.2416C2.00851 15.2437 1.7075 15.257 1.2463 15.4988C0.64831 15.8123 0.274818 16.2837 0.102166 16.943C0.0177281 17.2652 -0.0162487 19.397 0.0072833 22.9073C0.0481811 28.9994 0.0254051 28.8378 0.939755 29.5545C1.29689 29.8343 1.56228 29.9217 2.16682 29.9585C2.84824 30 3.00541 29.9611 3.51355 29.6255C4.55122 28.9402 4.56834 28.8537 4.61351 24.07L4.65277 19.8994H8.86588C13.5145 19.8994 14.2533 19.8162 15.9211 19.1048C18.6262 17.951 20.7364 15.4353 21.5193 12.4309C21.8818 11.0397 21.8813 8.84157 21.5182 7.44735C20.6343 4.05471 18.0851 1.40361 14.699 0.355836C13.7912 0.0748192 13.5665 0.0643447 7.84595 0.033178C3.95487 0.0119692 1.79521 0.0475319 1.53334 0.137281ZM63.252 0.104951C62.6684 0.297124 62.1779 0.739018 61.9048 1.31877C61.6559 1.84718 61.6423 2.08475 61.6423 5.91954C61.6423 8.14349 61.5999 9.94379 61.548 9.91999C61.496 9.89632 61.0855 9.66251 60.6356 9.4005C56.8472 7.19414 51.9137 7.70768 48.555 10.658C46.8247 12.178 45.7082 14.0229 45.0655 16.4233C44.7241 17.6982 44.7605 20.5437 45.1353 21.8929C45.6714 23.8228 46.5752 25.3889 47.9792 26.8211C50.0242 28.9072 52.6029 29.9865 55.542 29.9865C57.4446 29.9865 59.4838 29.412 60.9502 28.4626L61.5794 28.0552L61.7848 28.5359C62.4612 30.1187 64.4404 30.497 65.5668 29.2588C65.7528 29.0545 65.965 28.7234 66.0387 28.5232C66.13 28.2747 66.1726 23.9883 66.1726 15.0176C66.1726 1.89012 66.1723 1.87537 65.9057 1.30933C65.7552 0.989774 65.4377 0.605946 65.1779 0.429291C64.6677 0.0821907 63.7767 -0.0678236 63.252 0.104951ZM80.6007 0.172458C80.0006 0.392305 79.5322 0.825665 79.3066 1.36985C79.1641 1.71333 79.134 4.10502 79.134 15.0666V28.3472L79.4363 28.8773C79.6052 29.1735 79.9598 29.5352 80.2399 29.697L80.7412 29.9865H89.9337C96.1393 29.9865 99.2412 29.9417 99.4804 29.8485C99.9841 29.6525 100.398 29.2271 100.666 28.6286C100.952 27.9935 100.965 27.4133 100.71 26.7817C100.468 26.1848 91.7526 17.1547 91.0623 16.7862C90.501 16.4866 89.4648 16.4571 88.9582 16.7263C88.0466 17.2109 87.5421 18.3576 87.7993 19.361C87.9364 19.8959 88.2379 20.2566 90.4651 22.5517C91.8463 23.9749 92.9764 25.1823 92.9764 25.2351C92.9764 25.2879 90.8811 25.3309 88.3203 25.3309H83.6643L83.6615 13.6596C83.6588 2.58897 83.6468 1.96163 83.4264 1.47098C83.1453 0.844933 82.7469 0.450888 82.125 0.183967C81.5612 -0.0581244 81.2367 -0.0605811 80.6007 0.172458ZM125.397 0.167414C125.13 0.268544 124.749 0.511282 124.55 0.706817C123.764 1.48094 123.796 0.821008 123.835 15.2532L123.87 28.389L124.216 28.9266C125.172 30.4106 127.281 30.3162 128.074 28.7538C128.253 28.4005 128.408 28.0938 128.417 28.0724C128.426 28.051 128.703 28.209 129.033 28.4235C131.857 30.2641 135.737 30.4917 139.001 29.0082C140.74 28.218 142.686 26.4351 143.672 24.7297C144.851 22.6913 145.269 20.958 145.164 18.55C145.054 16.0214 144.332 14.0368 142.826 12.1234C139.577 7.99374 134.108 6.86514 129.487 9.37089C128.908 9.68475 128.415 9.94159 128.391 9.94159C128.367 9.94159 128.331 8.03111 128.311 5.69594L128.274 1.45042L127.922 0.975548C127.308 0.14905 126.299 -0.173868 125.397 0.167414ZM29.9937 8.20854C26.0485 9.11082 23.0004 12.1172 21.8495 16.241C21.4594 17.639 21.4633 20.2602 21.8578 21.7746C22.887 25.7259 25.9924 28.8142 29.8598 29.7327C30.8965 29.9788 31.3042 30.0105 32.6722 29.9507C35.067 29.8463 36.7474 29.2569 38.5561 27.8869C40.6405 26.308 41.9907 24.2666 42.666 21.6736C43.0467 20.2115 43.0414 17.8313 42.654 16.343C42.1203 14.2916 41.1071 12.5129 39.6664 11.0976C38.2552 9.71152 36.9691 8.93753 35.138 8.37265C33.9589 8.00887 31.245 7.92222 29.9937 8.20854ZM109.162 8.21358C103.738 9.40891 100.058 14.5517 100.659 20.0951C100.963 22.8953 102.038 25.1076 104.034 27.0432C106.141 29.0862 108.798 30.0881 111.756 29.9559C113.549 29.8757 114.577 29.5995 116.208 28.7595L117.505 28.0911L117.619 28.4263C117.792 28.9353 118.398 29.6128 118.858 29.8101C120.029 30.3128 121.478 29.7019 121.911 28.5232C122.001 28.2783 122.044 25.169 122.043 19.0181C122.04 10.3696 122.027 9.84822 121.805 9.34464C121.335 8.28096 120.096 7.74647 118.979 8.12539C118.547 8.27191 117.643 9.1857 117.639 9.47991C117.638 9.55595 117.59 9.69523 117.532 9.78912C117.449 9.92271 117.295 9.87421 116.824 9.56733C115.951 8.99831 114.576 8.44184 113.462 8.2066C112.271 7.9552 110.321 7.9583 109.162 8.21358ZM151.147 8.31653C147.891 9.40025 146.006 12.7728 146.777 16.1357C147.339 18.5854 149.161 20.4817 151.571 21.1269C152.159 21.2842 153.227 21.3219 157.091 21.3219C161.811 21.3219 161.891 21.3263 162.442 21.6129C163.776 22.3078 163.846 24.1572 162.572 25.0396C162.154 25.329 162.119 25.3309 157.446 25.3309C152.483 25.3309 152.213 25.3594 151.577 25.9501C150.958 26.5253 150.693 27.6989 150.996 28.5232C151.179 29.0187 151.722 29.5931 152.211 29.8085C152.788 30.0623 162.207 30.0645 163.132 29.811C166.068 29.0064 168 26.4334 168 23.3264C168 20.8546 166.853 18.8068 164.768 17.558C163.435 16.76 163.359 16.7505 157.635 16.6728C152.591 16.6044 152.377 16.5915 152.043 16.335C151.401 15.8417 151.186 15.4227 151.186 14.6618C151.186 13.901 151.401 13.482 152.043 12.9887C152.377 12.7327 152.589 12.7194 157.33 12.6574L162.27 12.5927L162.78 12.2456C163.683 11.6308 164.04 10.4634 163.63 9.45715C163.381 8.84287 163.116 8.54917 162.539 8.24669C162.104 8.01818 161.737 8.00214 157.065 8.00757C152.163 8.01326 152.039 8.01973 151.147 8.31653ZM33.4686 12.7873C35.9072 13.2551 38.0447 15.6059 38.3478 18.1535C39.0482 24.0378 32.2469 27.6627 28.0886 23.6213C26.7392 22.3097 26.1206 20.8348 26.1209 18.9295C26.1212 17.0861 26.7264 15.691 28.1086 14.3476C29.5132 12.9823 31.4882 12.4075 33.4686 12.7873ZM57.4794 13.0642C60.6563 14.1863 62.4081 17.9421 61.2492 21.1462C59.6742 25.5007 54.3893 26.7396 51.1915 23.5039C50.3004 22.6024 49.6255 21.248 49.4114 19.9317C48.872 16.6171 51.224 13.3359 54.5324 12.7873C55.37 12.6484 56.6402 12.7678 57.4794 13.0642ZM112.791 12.8553C115.844 13.6727 117.865 16.7276 117.425 19.8627C116.992 22.9535 114.355 25.3238 111.344 25.3294C107.931 25.3357 105.179 22.5098 105.184 19.0029C105.187 17.2008 105.756 15.7932 106.992 14.5272C108.541 12.9415 110.742 12.307 112.791 12.8553ZM135.796 12.8473C138.638 13.4663 140.663 16.0518 140.668 19.0676C140.674 22.4869 137.902 25.3352 134.575 25.3294C132.6 25.326 130.894 24.451 129.648 22.8027C128.622 21.444 128.174 19.5082 128.508 17.8732C128.959 15.6646 130.318 13.9569 132.255 13.1653C133.5 12.6568 134.506 12.5664 135.796 12.8473Z" fill="url(#paint0_linear_68_3879)"/>
<defs>
<linearGradient id="paint0_linear_68_3879" x1="-0.592495" y1="17.8896" x2="175.695" y2="20.5753" gradientUnits="userSpaceOnUse">
<stop stop-color="#C31922"/>
<stop offset="1" stop-color="#FC1E27"/>
</linearGradient>
</defs>
</svg>
