<svg width="126" height="28" viewBox="0 0 126 28" fill="none" xmlns="http://www.w3.org/2000/svg">
<path d="M19.7857 16.5527C19.9863 16.8535 20.1939 17.0898 20.4088 17.2617C20.6236 17.4264 20.8313 17.5518 21.0318 17.6377C21.2395 17.7236 21.4329 17.7881 21.6119 17.8311C21.7981 17.8669 21.9592 17.9027 22.0953 17.9385C22.2385 17.9743 22.3495 18.028 22.4283 18.0996C22.5143 18.1641 22.5572 18.2715 22.5572 18.4219C22.5572 18.9303 22.4641 19.3529 22.2779 19.6895C22.0917 20.0189 21.773 20.2803 21.3219 20.4736C20.8707 20.667 20.2691 20.8031 19.5172 20.8818C18.7652 20.9606 17.8271 21 16.7027 21C16.2014 21 15.7574 20.9499 15.3707 20.8496C14.9911 20.7493 14.6546 20.6097 14.3609 20.4307C14.0673 20.2516 13.8059 20.0439 13.5768 19.8076C13.3548 19.5641 13.1578 19.3027 12.9859 19.0234C12.8141 18.7441 12.6565 18.4541 12.5133 18.1533C12.3701 17.8454 12.234 17.5374 12.1051 17.2295L11.0309 14.2432H10.902C10.6728 14.2432 10.4758 14.2396 10.3111 14.2324C10.1536 14.2253 9.96022 14.2145 9.73106 14.2002V16.5098C9.73106 16.8177 9.77402 17.0576 9.85996 17.2295C9.9459 17.4014 10.0533 17.5303 10.1822 17.6162C10.3111 17.7021 10.4508 17.763 10.6012 17.7988C10.7516 17.8346 10.8912 17.874 11.0201 17.917C11.149 17.96 11.2564 18.0208 11.3424 18.0996C11.4283 18.1712 11.4713 18.293 11.4713 18.4648C11.4713 19.36 11.0094 20.0081 10.0855 20.4092C9.16172 20.8031 7.82611 21 6.07871 21C5.23366 21 4.48171 20.9535 3.82285 20.8604C3.17116 20.7601 2.61973 20.6097 2.16856 20.4092C1.72455 20.2015 1.38438 19.9365 1.14805 19.6143C0.918882 19.292 0.804298 18.9089 0.804298 18.4648C0.804298 18.293 0.847267 18.1712 0.933205 18.0996C1.01914 18.0208 1.12298 17.9635 1.24473 17.9277C1.37363 17.8848 1.5097 17.8454 1.65293 17.8096C1.80332 17.7738 1.93939 17.7129 2.06113 17.627C2.19004 17.5339 2.29746 17.4014 2.3834 17.2295C2.46934 17.0576 2.51231 16.8105 2.51231 16.4883V8.38867C2.51231 8.07357 2.46934 7.83008 2.3834 7.6582C2.29746 7.47917 2.19004 7.34668 2.06113 7.26074C1.93939 7.16764 1.80332 7.10319 1.65293 7.06738C1.5097 7.03158 1.37363 6.99577 1.24473 6.95996C1.12298 6.91699 1.01914 6.8597 0.933205 6.78809C0.847267 6.70931 0.804298 6.58398 0.804298 6.41211C0.804298 5.9681 0.926043 5.58854 1.16953 5.27344C1.41302 4.95117 1.76393 4.68978 2.22227 4.48926C2.68776 4.28158 3.25352 4.13118 3.91953 4.03809C4.58555 3.93783 5.34108 3.8877 6.18613 3.8877H11.9977C13.1363 3.8877 14.1461 3.94857 15.027 4.07031C15.9078 4.19206 16.6777 4.36393 17.3365 4.58594C17.9954 4.80078 18.5504 5.06217 19.0016 5.37012C19.4599 5.6709 19.8287 6.00391 20.108 6.36914C20.3873 6.72721 20.5878 7.11035 20.7096 7.51855C20.8385 7.9196 20.9029 8.33496 20.9029 8.76465C20.9029 9.23014 20.8564 9.6849 20.7633 10.1289C20.6773 10.5729 20.5126 10.9919 20.2691 11.3857C20.0328 11.7796 19.7034 12.1449 19.2809 12.4814C18.8655 12.8109 18.3284 13.0973 17.6695 13.3408L19.7857 16.5527ZM11.2027 12.5781C11.8473 12.5781 12.3235 12.3704 12.6314 11.9551C12.9394 11.5397 13.0934 10.9596 13.0934 10.2148V9.89258C13.0934 9.41992 13.0826 8.95085 13.0611 8.48535C13.0396 8.0127 12.9645 7.59375 12.8355 7.22852C12.7138 6.85612 12.5204 6.55534 12.2555 6.32617C11.9905 6.08984 11.6109 5.97168 11.1168 5.97168C10.816 5.97168 10.5725 6.02181 10.3863 6.12207C10.2073 6.22233 10.0712 6.3584 9.97813 6.53027C9.88503 6.69499 9.82416 6.88835 9.79551 7.11035C9.76686 7.3252 9.75254 7.55436 9.75254 7.79785V12.46C9.7597 12.4814 9.81341 12.5029 9.91367 12.5244C9.99961 12.5387 10.1393 12.5531 10.3326 12.5674C10.526 12.5745 10.816 12.5781 11.2027 12.5781ZM31.0932 9.5166C30.864 9.5166 30.6492 9.57031 30.4486 9.67773C30.2481 9.77799 30.0727 9.93555 29.9223 10.1504C29.779 10.3652 29.6645 10.641 29.5785 10.9775C29.4997 11.307 29.4604 11.7008 29.4604 12.1592H32.8871C32.8871 11.6579 32.8477 11.2389 32.7689 10.9023C32.6902 10.5586 32.5756 10.2865 32.4252 10.0859C32.2748 9.87826 32.085 9.73145 31.8559 9.64551C31.6339 9.55957 31.3796 9.5166 31.0932 9.5166ZM30.2982 6.7666C31.2579 6.7666 32.1208 6.90983 32.8871 7.19629C33.6605 7.48275 34.3158 7.87663 34.8529 8.37793C35.3972 8.87923 35.8126 9.47005 36.099 10.1504C36.3926 10.8236 36.5395 11.5505 36.5395 12.3311C36.5395 12.6533 36.4929 12.904 36.3998 13.083C36.3139 13.262 36.1885 13.3945 36.0238 13.4805C35.8591 13.5664 35.655 13.6201 35.4115 13.6416C35.168 13.6631 34.8923 13.6738 34.5844 13.6738H29.4174C29.4174 14.4616 29.4962 15.1025 29.6537 15.5967C29.8184 16.0837 30.044 16.4632 30.3305 16.7354C30.6169 17.0075 30.9607 17.1937 31.3617 17.2939C31.7628 17.387 32.2068 17.4336 32.6938 17.4336C32.9516 17.4336 33.2165 17.4085 33.4887 17.3584C33.768 17.3083 34.0329 17.2438 34.2836 17.165C34.5414 17.0863 34.7777 17.0039 34.9926 16.918C35.2074 16.832 35.3865 16.7497 35.5297 16.6709C35.6443 16.6064 35.7553 16.5742 35.8627 16.5742C36.0274 16.5742 36.1563 16.6458 36.2494 16.7891C36.3425 16.9251 36.3891 17.0791 36.3891 17.251C36.3891 17.3083 36.3855 17.362 36.3783 17.4121C36.3712 17.4622 36.3568 17.5124 36.3354 17.5625C36.1277 18.0924 35.8448 18.583 35.4867 19.0342C35.1286 19.4854 34.6918 19.8792 34.1762 20.2158C33.6677 20.5452 33.0769 20.8031 32.4037 20.9893C31.7305 21.1755 30.975 21.2686 30.1371 21.2686C29.335 21.2686 28.601 21.1755 27.935 20.9893C27.2761 20.7959 26.6781 20.5309 26.141 20.1943C25.6111 19.8506 25.1456 19.4495 24.7445 18.9912C24.3435 18.5329 24.0105 18.0352 23.7455 17.498C23.4805 16.9538 23.28 16.388 23.1439 15.8008C23.015 15.2064 22.9506 14.6084 22.9506 14.0068C22.9506 13.3981 23.0186 12.7965 23.1547 12.2021C23.2908 11.6006 23.4949 11.0312 23.767 10.4941C24.0391 9.95703 24.3793 9.46289 24.7875 9.01172C25.1957 8.55339 25.6719 8.15951 26.2162 7.83008C26.7605 7.49349 27.3728 7.2321 28.0531 7.0459C28.7335 6.8597 29.4818 6.7666 30.2982 6.7666ZM45.6877 8.63574C45.8524 8.45671 46.0708 8.25977 46.343 8.04492C46.6151 7.83008 46.9517 7.62956 47.3527 7.44336C47.7538 7.25 48.2193 7.08887 48.7492 6.95996C49.2863 6.83105 49.9022 6.7666 50.5969 6.7666C51.399 6.7666 52.0865 6.87044 52.6594 7.07812C53.2323 7.27865 53.7157 7.55078 54.1096 7.89453C54.5106 8.23828 54.8293 8.63574 55.0656 9.08691C55.3091 9.53092 55.4953 10 55.6242 10.4941C55.7531 10.9811 55.8391 11.4753 55.882 11.9766C55.925 12.4707 55.9465 12.9398 55.9465 13.3838V16.7783C55.9465 17.0863 55.9859 17.3262 56.0647 17.498C56.1434 17.6699 56.2437 17.8024 56.3654 17.8955C56.4872 17.9814 56.6161 18.0423 56.7522 18.0781C56.8954 18.1139 57.0279 18.1533 57.1496 18.1963C57.2714 18.2321 57.3716 18.2858 57.4504 18.3574C57.5292 18.4219 57.5686 18.5329 57.5686 18.6904C57.5686 19.5068 57.146 20.0977 56.301 20.4629C55.4631 20.821 54.2456 21 52.6486 21C51.8752 21 51.1913 20.957 50.5969 20.8711C50.0025 20.7852 49.5012 20.6491 49.093 20.4629C48.6848 20.2695 48.3732 20.0296 48.1584 19.7432C47.9507 19.4495 47.8469 19.0986 47.8469 18.6904C47.8469 18.5329 47.8863 18.4219 47.965 18.3574C48.0438 18.2858 48.1441 18.2321 48.2658 18.1963C48.3876 18.1533 48.5165 18.1175 48.6525 18.0889C48.7886 18.0531 48.9175 17.9922 49.0393 17.9062C49.161 17.8203 49.2613 17.695 49.34 17.5303C49.4188 17.3656 49.4582 17.1292 49.4582 16.8213V12.4385C49.4582 11.9801 49.426 11.5684 49.3615 11.2031C49.2971 10.8379 49.1861 10.5335 49.0285 10.29C48.871 10.0394 48.6561 9.84961 48.384 9.7207C48.119 9.58464 47.786 9.5166 47.385 9.5166C47.1773 9.5166 46.9875 9.54525 46.8156 9.60254C46.6438 9.65983 46.4826 9.73145 46.3322 9.81738C46.189 9.89616 46.0601 9.9821 45.9455 10.0752C45.8381 10.1683 45.745 10.2542 45.6662 10.333V16.8643C45.6662 17.1579 45.7056 17.387 45.7844 17.5518C45.8632 17.7165 45.9598 17.8418 46.0744 17.9277C46.1962 18.0065 46.3251 18.0638 46.4611 18.0996C46.5972 18.1283 46.7225 18.1605 46.8371 18.1963C46.9589 18.2321 47.0591 18.2858 47.1379 18.3574C47.2167 18.4219 47.2561 18.5329 47.2561 18.6904C47.2561 19.5068 46.8335 20.0977 45.9885 20.4629C45.1434 20.821 43.9224 21 42.3254 21C40.7857 21 39.6005 20.821 38.7697 20.4629C37.9462 20.0977 37.5344 19.5068 37.5344 18.6904C37.5344 18.5329 37.5702 18.4219 37.6418 18.3574C37.7206 18.2858 37.8173 18.2321 37.9318 18.1963C38.0536 18.1605 38.1789 18.1283 38.3078 18.0996C38.4439 18.071 38.5692 18.0173 38.6838 17.9385C38.8055 17.8525 38.9022 17.7344 38.9738 17.584C39.0526 17.4264 39.092 17.2008 39.092 16.9072V4.83301C39.092 4.53939 39.0526 4.31738 38.9738 4.16699C38.9022 4.00944 38.8055 3.89128 38.6838 3.8125C38.5692 3.72656 38.4439 3.66927 38.3078 3.64062C38.1789 3.61198 38.0536 3.57975 37.9318 3.54395C37.8173 3.50814 37.7206 3.45801 37.6418 3.39355C37.5702 3.32194 37.5344 3.20736 37.5344 3.0498C37.5344 2.2334 37.9462 1.64616 38.7697 1.28809C39.6005 0.922852 40.7857 0.740234 42.3254 0.740234C43.0988 0.740234 43.7076 0.779622 44.1516 0.858398C44.6027 0.937174 44.9429 1.07324 45.1721 1.2666C45.4012 1.4528 45.548 1.70703 45.6125 2.0293C45.677 2.35156 45.7092 2.75618 45.7092 3.24316L45.6877 8.63574ZM68.3604 14.1357L69.9395 10.7734C69.9967 10.6517 70.029 10.5622 70.0361 10.5049C70.0433 10.4476 70.0469 10.3867 70.0469 10.3223V10.1719C70.0469 10.0788 69.9717 9.98568 69.8213 9.89258C69.6781 9.79948 69.5169 9.7028 69.3379 9.60254C69.166 9.50228 69.0049 9.39486 68.8545 9.28027C68.7113 9.16569 68.6396 9.04036 68.6396 8.9043C68.6396 8.52474 68.7793 8.2168 69.0586 7.98047C69.3379 7.73698 69.6852 7.55078 70.1006 7.42188C70.5231 7.28581 70.9743 7.19629 71.4541 7.15332C71.9339 7.10319 72.3743 7.07812 72.7754 7.07812C73.7064 7.07812 74.4225 7.22135 74.9238 7.50781C75.4323 7.78711 75.6865 8.2526 75.6865 8.9043C75.6865 9.06901 75.6364 9.19792 75.5361 9.29102C75.443 9.37695 75.3177 9.44857 75.1602 9.50586C75.0026 9.56315 74.8236 9.61686 74.623 9.66699C74.4297 9.70996 74.2363 9.77441 74.043 9.86035C73.8496 9.94629 73.667 10.0609 73.4951 10.2041C73.3232 10.3402 73.18 10.5299 73.0654 10.7734L67.7158 22.3643C67.2933 23.2809 66.8672 24.0544 66.4375 24.6846C66.015 25.3219 65.5889 25.8376 65.1592 26.2314C64.7367 26.6325 64.3141 26.9189 63.8916 27.0908C63.4762 27.2699 63.0645 27.3594 62.6562 27.3594C62.1549 27.3594 61.6859 27.2448 61.249 27.0156C60.8122 26.7936 60.4326 26.5 60.1104 26.1348C59.7881 25.7767 59.5339 25.3757 59.3477 24.9316C59.1615 24.4876 59.0684 24.0436 59.0684 23.5996C59.0684 23.0339 59.1292 22.5576 59.251 22.1709C59.3799 21.7913 59.5446 21.4834 59.7451 21.2471C59.9456 21.0179 60.1712 20.8532 60.4219 20.7529C60.6797 20.6527 60.9411 20.6025 61.2061 20.6025C61.5283 20.6025 61.8005 20.6813 62.0225 20.8389C62.2445 20.9893 62.4271 21.1755 62.5703 21.3975C62.7135 21.6266 62.8281 21.8737 62.9141 22.1387C63.0072 22.4108 63.0895 22.6579 63.1611 22.8799C63.2327 23.109 63.3008 23.2988 63.3652 23.4492C63.4297 23.6068 63.5085 23.6855 63.6016 23.6855C63.666 23.6855 63.7448 23.6354 63.8379 23.5352C63.9382 23.4421 64.0527 23.2809 64.1816 23.0518C64.3105 22.8298 64.4609 22.5361 64.6328 22.1709C64.8047 21.8057 65.0052 21.3581 65.2344 20.8281L59.7988 10.7734C59.6628 10.5228 59.5088 10.3294 59.3369 10.1934C59.165 10.0501 58.9896 9.94271 58.8105 9.87109C58.6387 9.79232 58.4704 9.73503 58.3057 9.69922C58.141 9.65625 57.9906 9.6097 57.8545 9.55957C57.7256 9.50228 57.6217 9.42708 57.543 9.33398C57.4642 9.24089 57.4248 9.09766 57.4248 8.9043C57.4248 8.63932 57.4928 8.41016 57.6289 8.2168C57.765 8.02344 57.9512 7.85872 58.1875 7.72266C58.4238 7.58659 58.7031 7.47917 59.0254 7.40039C59.3477 7.31445 59.6914 7.25 60.0566 7.20703C60.429 7.1569 60.8158 7.12467 61.2168 7.11035C61.6178 7.08887 62.0189 7.07812 62.4199 7.07812C63.2363 7.07812 63.9489 7.10319 64.5576 7.15332C65.1663 7.20345 65.6712 7.29655 66.0723 7.43262C66.4805 7.56152 66.7812 7.74772 66.9746 7.99121C67.1751 8.22754 67.2754 8.5319 67.2754 8.9043C67.2754 9.04036 67.2109 9.15853 67.082 9.25879C66.9531 9.35905 66.8135 9.45215 66.6631 9.53809C66.5127 9.62402 66.373 9.70996 66.2441 9.7959C66.1152 9.87467 66.0508 9.96777 66.0508 10.0752C66.0508 10.0967 66.0579 10.1289 66.0723 10.1719C66.1081 10.2507 66.1475 10.333 66.1904 10.4189C66.2334 10.4977 66.2943 10.6159 66.373 10.7734L68.3604 14.1357ZM92.2791 16.8643C92.2791 17.1579 92.3185 17.387 92.3973 17.5518C92.476 17.7165 92.5727 17.8418 92.6873 17.9277C92.8019 18.0065 92.9272 18.0638 93.0633 18.0996C93.2065 18.1283 93.3354 18.1605 93.45 18.1963C93.5646 18.2321 93.6613 18.2858 93.74 18.3574C93.8188 18.4219 93.8582 18.5329 93.8582 18.6904C93.8582 19.5068 93.4357 20.0977 92.5906 20.4629C91.7456 20.821 90.5245 21 88.9275 21C88.4979 21 88.1219 20.9678 87.7996 20.9033C87.4773 20.8389 87.1981 20.7493 86.9617 20.6348C86.7326 20.513 86.5428 20.3698 86.3924 20.2051C86.242 20.0332 86.1203 19.8434 86.0272 19.6357C85.841 19.8076 85.6118 19.9902 85.3397 20.1836C85.0747 20.377 84.7488 20.556 84.3621 20.7207C83.9826 20.8783 83.5421 21.0072 83.0408 21.1074C82.5467 21.2148 81.9809 21.2686 81.3436 21.2686C80.6203 21.2686 79.9793 21.1683 79.4207 20.9678C78.8693 20.7673 78.3895 20.4951 77.9813 20.1514C77.5802 19.8005 77.2436 19.3923 76.9715 18.9268C76.6994 18.4613 76.4809 17.9635 76.3162 17.4336C76.1515 16.9036 76.0333 16.3558 75.9617 15.79C75.8973 15.2243 75.865 14.6657 75.865 14.1143C75.865 13.5485 75.9044 12.9756 75.9832 12.3955C76.0691 11.8154 76.2052 11.2533 76.3914 10.709C76.5848 10.1647 76.8283 9.65267 77.1219 9.17285C77.4227 8.69303 77.7843 8.27767 78.2068 7.92676C78.6365 7.56868 79.1342 7.28581 79.7 7.07812C80.2729 6.87044 80.921 6.7666 81.6443 6.7666C82.1528 6.7666 82.6147 6.80599 83.0301 6.88477C83.4454 6.95638 83.8178 7.05306 84.1473 7.1748C84.4839 7.29655 84.7775 7.4362 85.0281 7.59375C85.2859 7.7513 85.5079 7.90885 85.6941 8.06641V4.83301C85.6941 4.53939 85.6548 4.31738 85.576 4.16699C85.5044 4.00944 85.4077 3.89128 85.2859 3.8125C85.1714 3.72656 85.046 3.66927 84.91 3.64062C84.7811 3.61198 84.6557 3.57975 84.534 3.54395C84.4194 3.50814 84.3227 3.45801 84.2439 3.39355C84.1723 3.32194 84.1365 3.20736 84.1365 3.0498C84.1365 2.6416 84.2404 2.29427 84.4481 2.00781C84.6629 1.71419 84.9744 1.47428 85.3826 1.28809C85.7908 1.09473 86.2921 0.955078 86.8865 0.869141C87.4809 0.783203 88.1613 0.740234 88.9275 0.740234C89.701 0.740234 90.3097 0.779622 90.7537 0.858398C91.2049 0.937174 91.5451 1.07324 91.7742 1.2666C92.0106 1.4528 92.1609 1.70703 92.2254 2.0293C92.2898 2.35156 92.3221 2.75618 92.3221 3.24316L92.2791 16.8643ZM84.1365 18.54C84.423 18.54 84.7059 18.4899 84.9852 18.3896C85.2645 18.2894 85.5079 18.1784 85.7156 18.0566C85.7013 17.8704 85.6941 17.6842 85.6941 17.498C85.6941 17.3047 85.6941 17.1077 85.6941 16.9072V10.1074C85.4507 9.96419 85.1821 9.83171 84.8885 9.70996C84.5949 9.58105 84.2941 9.5166 83.9861 9.5166C83.6567 9.5166 83.3846 9.5918 83.1697 9.74219C82.962 9.89258 82.7973 10.1468 82.6756 10.5049C82.5538 10.8558 82.4679 11.332 82.4178 11.9336C82.3748 12.528 82.3533 13.2692 82.3533 14.1572C82.3533 14.6943 82.3712 15.2243 82.407 15.7471C82.4428 16.2699 82.5216 16.7389 82.6434 17.1543C82.7651 17.5625 82.9441 17.8955 83.1805 18.1533C83.4168 18.4111 83.7355 18.54 84.1365 18.54ZM103.221 16.8643C103.221 17.1579 103.261 17.387 103.339 17.5518C103.418 17.7165 103.515 17.8418 103.629 17.9277C103.751 18.0065 103.88 18.0638 104.016 18.0996C104.152 18.1283 104.278 18.1605 104.392 18.1963C104.514 18.2321 104.614 18.2858 104.693 18.3574C104.772 18.4219 104.811 18.5329 104.811 18.6904C104.811 19.5068 104.389 20.0977 103.544 20.4629C102.699 20.821 101.477 21 99.8805 21C99.107 21 98.4231 20.957 97.8287 20.8711C97.2343 20.7852 96.733 20.6491 96.3248 20.4629C95.9166 20.2695 95.6051 20.0296 95.3902 19.7432C95.1826 19.4495 95.0787 19.0986 95.0787 18.6904C95.0787 18.5329 95.1181 18.4219 95.1969 18.3574C95.2757 18.2858 95.3723 18.2321 95.4869 18.1963C95.6015 18.1605 95.7268 18.1283 95.8629 18.0996C95.999 18.071 96.1243 18.0173 96.2389 17.9385C96.3535 17.8525 96.4501 17.7344 96.5289 17.584C96.6077 17.4264 96.6471 17.2008 96.6471 16.9072V11.1709C96.6471 10.8844 96.6077 10.6624 96.5289 10.5049C96.4501 10.3473 96.3535 10.2292 96.2389 10.1504C96.1243 10.0645 95.999 10.0072 95.8629 9.97852C95.7268 9.94987 95.6015 9.91764 95.4869 9.88184C95.3723 9.84603 95.2757 9.7959 95.1969 9.73145C95.1181 9.65983 95.0787 9.54525 95.0787 9.3877C95.0787 8.97949 95.1826 8.63216 95.3902 8.3457C95.6051 8.05208 95.9166 7.81217 96.3248 7.62598C96.733 7.43262 97.2343 7.29297 97.8287 7.20703C98.4231 7.12109 99.107 7.07812 99.8805 7.07812C100.589 7.07812 101.155 7.14974 101.578 7.29297C102.007 7.42904 102.344 7.63314 102.588 7.90527C102.788 7.77637 102.996 7.65462 103.211 7.54004C103.425 7.41829 103.655 7.31445 103.898 7.22852C104.142 7.13542 104.407 7.0638 104.693 7.01367C104.979 6.96354 105.295 6.93848 105.638 6.93848C106.068 6.93848 106.48 6.98503 106.874 7.07812C107.275 7.16406 107.629 7.31087 107.937 7.51855C108.245 7.71908 108.489 7.98405 108.668 8.31348C108.854 8.63574 108.947 9.03678 108.947 9.5166C108.947 9.83171 108.893 10.1396 108.786 10.4404C108.678 10.7412 108.517 11.0098 108.302 11.2461C108.095 11.4753 107.83 11.6615 107.507 11.8047C107.192 11.9479 106.827 12.0195 106.412 12.0195C105.996 12.0195 105.671 11.9587 105.434 11.8369C105.198 11.7152 105.015 11.5648 104.886 11.3857C104.757 11.2067 104.661 11.0133 104.596 10.8057C104.539 10.5908 104.475 10.3939 104.403 10.2148C104.338 10.0358 104.249 9.88542 104.134 9.76367C104.027 9.64193 103.862 9.58105 103.64 9.58105C103.418 9.58105 103.271 9.6097 103.2 9.66699C103.128 9.71712 103.092 9.79232 103.092 9.89258C103.092 10.0215 103.117 10.1862 103.168 10.3867C103.218 10.5872 103.243 10.8307 103.243 11.1172L103.221 16.8643ZM120.018 7.49707C120.018 7.13184 119.846 6.83822 119.502 6.61621C119.159 6.39421 118.632 6.2832 117.923 6.2832C117.429 6.2832 117.039 6.31901 116.752 6.39062C116.466 6.46224 116.251 6.55534 116.108 6.66992C115.965 6.78451 115.871 6.91699 115.829 7.06738C115.793 7.21061 115.775 7.35384 115.775 7.49707C115.775 7.84798 115.907 8.15592 116.172 8.4209C116.444 8.67871 116.799 8.91862 117.236 9.14062C117.68 9.36263 118.181 9.58105 118.74 9.7959C119.305 10.0036 119.882 10.2327 120.469 10.4834C121.056 10.734 121.629 11.0169 122.188 11.332C122.754 11.6471 123.255 12.0231 123.692 12.46C124.136 12.8896 124.49 13.3945 124.755 13.9746C125.027 14.5547 125.163 15.2314 125.163 16.0049C125.163 16.9001 124.977 17.6771 124.605 18.3359C124.24 18.9948 123.71 19.5391 123.015 19.9688C122.32 20.3984 121.475 20.7207 120.48 20.9355C119.484 21.1432 118.364 21.2471 117.118 21.2471C116.523 21.2471 115.936 21.2041 115.356 21.1182C114.776 21.0394 114.224 20.9176 113.702 20.7529C113.186 20.5811 112.706 20.3698 112.262 20.1191C111.825 19.8685 111.446 19.5749 111.123 19.2383C110.808 18.9017 110.561 18.5257 110.382 18.1104C110.203 17.6878 110.114 17.2223 110.114 16.7139C110.114 16.1624 110.243 15.6253 110.5 15.1025C110.765 14.5726 111.141 14.1035 111.628 13.6953C112.115 13.2871 112.699 12.9577 113.379 12.707C114.067 12.4564 114.837 12.3311 115.689 12.3311C115.818 12.3311 115.947 12.3418 116.076 12.3633C116.212 12.3848 116.333 12.4134 116.441 12.4492C116.548 12.485 116.634 12.5244 116.699 12.5674C116.77 12.6104 116.806 12.6497 116.806 12.6855C116.806 12.793 116.745 12.9362 116.623 13.1152C116.502 13.2943 116.348 13.4948 116.162 13.7168C115.975 13.9388 115.775 14.1751 115.56 14.4258C115.352 14.6764 115.155 14.9307 114.969 15.1885C114.783 15.4391 114.629 15.6898 114.507 15.9404C114.385 16.1839 114.325 16.4095 114.325 16.6172C114.325 16.7962 114.36 16.9753 114.432 17.1543C114.511 17.3333 114.64 17.498 114.819 17.6484C114.998 17.7917 115.231 17.9098 115.517 18.0029C115.803 18.096 116.158 18.1426 116.58 18.1426C117.089 18.1426 117.511 18.0817 117.848 17.96C118.185 17.8311 118.453 17.6771 118.654 17.498C118.861 17.319 119.008 17.1328 119.094 16.9395C119.18 16.7389 119.223 16.5671 119.223 16.4238C119.223 16.1803 119.098 15.9762 118.847 15.8115C118.596 15.6396 118.263 15.4821 117.848 15.3389C117.44 15.1885 116.971 15.0381 116.441 14.8877C115.918 14.7301 115.381 14.5475 114.829 14.3398C114.285 14.125 113.748 13.8672 113.218 13.5664C112.695 13.2656 112.226 12.8932 111.811 12.4492C111.403 12.0052 111.073 11.4824 110.823 10.8809C110.572 10.2721 110.447 9.55241 110.447 8.72168C110.447 8.14876 110.54 7.62598 110.726 7.15332C110.912 6.68066 111.17 6.25456 111.499 5.875C111.829 5.49544 112.216 5.16602 112.66 4.88672C113.111 4.60026 113.594 4.36393 114.11 4.17773C114.633 3.99154 115.177 3.85189 115.743 3.75879C116.308 3.66569 116.874 3.61914 117.44 3.61914C118.22 3.61914 118.976 3.70508 119.706 3.87695C120.444 4.04883 121.096 4.30664 121.662 4.65039C122.227 4.99414 122.682 5.42383 123.026 5.93945C123.37 6.44792 123.541 7.03874 123.541 7.71191C123.541 8.29199 123.416 8.87207 123.165 9.45215C122.915 10.0251 122.567 10.5407 122.123 10.999C121.679 11.4574 121.149 11.8298 120.534 12.1162C119.918 12.3955 119.241 12.5352 118.503 12.5352C118.21 12.5352 117.973 12.4635 117.794 12.3203C117.622 12.1771 117.537 11.9408 117.537 11.6113C117.537 11.4753 117.597 11.3034 117.719 11.0957C117.841 10.888 117.995 10.6624 118.181 10.4189C118.367 10.1755 118.564 9.92122 118.772 9.65625C118.987 9.38411 119.187 9.11914 119.373 8.86133C119.56 8.60352 119.714 8.35645 119.835 8.12012C119.957 7.88379 120.018 7.67611 120.018 7.49707Z" fill="white"/>
</svg>
