<svg width="114" height="32" viewBox="0 0 114 32" fill="none" xmlns="http://www.w3.org/2000/svg">
<path d="M27.7333 0H4.79999C2.14903 0 0 2.14903 0 4.79999V27.2C0 29.8509 2.14903 32 4.79999 32H27.7333C30.3843 32 32.5333 29.8509 32.5333 27.2V4.79999C32.5333 2.14903 30.3843 0 27.7333 0Z" fill="#2196F3"/>
<path d="M13.9671 27.7638C15.056 27.7638 15.9388 26.881 15.9388 25.792C15.9388 24.7031 15.056 23.8203 13.9671 23.8203C12.8781 23.8203 11.9954 24.7031 11.9954 25.792C11.9954 26.881 12.8781 27.7638 13.9671 27.7638Z" fill="white"/>
<path d="M23.1893 27.7638C24.2782 27.7638 25.161 26.881 25.161 25.792C25.161 24.7031 24.2782 23.8203 23.1893 23.8203C22.1003 23.8203 21.2175 24.7031 21.2175 25.792C21.2175 26.881 22.1003 27.7638 23.1893 27.7638Z" fill="white"/>
<path d="M24.5079 14.5133H14.0545L13.0679 12.7207L12.6412 11.9442H24.0465V9.37512H11.2289L8.50895 4.44287H4.11108V7.01193H7.24708L8.56868 9.41513C7.99978 9.5167 7.46553 9.75963 7.01504 10.1216C6.56454 10.4836 6.21226 10.9529 5.99054 11.4866C5.64418 12.2606 5.53577 13.1201 5.67908 13.9559C5.77132 14.5049 5.97515 15.0291 6.27801 15.4962C6.56745 15.9685 6.97077 16.3605 7.45101 16.6365C7.93124 16.9125 8.47304 17.0636 9.0268 17.0759H12.7975L14.6359 20.4151C14.9549 21.042 15.438 21.5707 16.0338 21.9448C16.6295 22.3189 17.3155 22.5244 18.0188 22.5394H24.5084C26.4641 22.5394 28.0556 20.7405 28.0556 18.5298C28.0556 16.3191 26.4695 14.5133 24.5079 14.5133ZM9.03268 14.5133C8.84847 14.5086 8.6683 14.4583 8.50836 14.3668C8.34843 14.2753 8.21373 14.1454 8.1164 13.989C8.11053 13.9826 8.10467 13.9693 8.09881 13.9623C7.97985 13.7673 7.91067 13.546 7.89738 13.318C7.88408 13.0899 7.92705 12.8621 8.02254 12.6546C8.10252 12.4506 8.24117 12.2749 8.42096 12.1497C8.60075 12.0245 8.81362 11.9554 9.03268 11.9511H9.97241L10.3991 12.7277L11.3857 14.5202H9.03054L9.03268 14.5133ZM24.5079 19.9703H18.0183C17.7153 19.9636 17.4199 19.8748 17.1634 19.7134C16.9069 19.5521 16.699 19.3242 16.5617 19.0541L15.4695 17.0759H24.5079C24.861 17.1194 25.1861 17.2906 25.4219 17.5571C25.6576 17.8237 25.7878 18.1673 25.7878 18.5231C25.7878 18.879 25.6576 19.2225 25.4219 19.4891C25.1861 19.7557 24.861 19.9268 24.5079 19.9703Z" fill="white"/>
<path d="M19.1606 19.9692H8.74463V22.5319H19.1606V19.9692Z" fill="white"/>
<path d="M23.0562 6.94482V14.0483L26.6145 10.4968L23.0562 6.94482Z" fill="white"/>
<path d="M6.8064 21.2507L10.3579 24.8091V17.6992L6.8064 21.2507Z" fill="white"/>
<path d="M51.2734 12.3984C51.2005 11.7161 50.8932 11.1849 50.3516 10.8047C49.8151 10.4245 49.1172 10.2344 48.2578 10.2344C47.6536 10.2344 47.1354 10.3255 46.7031 10.5078C46.2708 10.6901 45.9401 10.9375 45.7109 11.25C45.4818 11.5625 45.3646 11.9193 45.3594 12.3203C45.3594 12.6536 45.4349 12.9427 45.5859 13.1875C45.7422 13.4323 45.9531 13.6406 46.2188 13.8125C46.4844 13.9792 46.7786 14.1198 47.1016 14.2344C47.4245 14.349 47.75 14.4453 48.0781 14.5234L49.5781 14.8984C50.1823 15.0391 50.763 15.2292 51.3203 15.4687C51.8828 15.7083 52.3854 16.0104 52.8281 16.375C53.276 16.7396 53.6302 17.1797 53.8906 17.6953C54.151 18.2109 54.2813 18.8151 54.2813 19.5078C54.2813 20.4453 54.0417 21.2708 53.5625 21.9844C53.0833 22.6927 52.3906 23.2474 51.4844 23.6484C50.5833 24.0443 49.4922 24.2422 48.2109 24.2422C46.9661 24.2422 45.8854 24.0495 44.9688 23.6641C44.0573 23.2786 43.3438 22.7161 42.8281 21.9766C42.3177 21.237 42.0417 20.3359 42 19.2734H44.8516C44.8932 19.8307 45.0651 20.2943 45.3672 20.6641C45.6693 21.0339 46.0625 21.3099 46.5469 21.4922C47.0365 21.6745 47.5833 21.7656 48.1875 21.7656C48.8177 21.7656 49.3698 21.6719 49.8438 21.4844C50.3229 21.2917 50.6979 21.026 50.9688 20.6875C51.2396 20.3437 51.3776 19.9427 51.3828 19.4844C51.3776 19.0677 51.2552 18.724 51.0156 18.4531C50.776 18.1771 50.4401 17.9479 50.0078 17.7656C49.5807 17.5781 49.0807 17.4115 48.5078 17.2656L46.6875 16.7969C45.3698 16.4583 44.3281 15.9453 43.5625 15.2578C42.8021 14.5651 42.4219 13.6458 42.4219 12.5C42.4219 11.5573 42.6771 10.7318 43.1875 10.0234C43.7031 9.3151 44.4036 8.76562 45.2891 8.375C46.1745 7.97917 47.1771 7.78125 48.2969 7.78125C49.4323 7.78125 50.4271 7.97917 51.2813 8.375C52.1406 8.76562 52.8151 9.3099 53.3047 10.0078C53.7943 10.7005 54.0469 11.4974 54.0625 12.3984H51.2734ZM59.2168 24L55.8262 12H58.709L60.8184 20.4375H60.9277L63.084 12H65.9355L68.0918 20.3906H68.209L70.2871 12H73.1777L69.7793 24H66.834L64.584 15.8906H64.4199L62.1699 24H59.2168ZM75.1523 24V12H77.9805V24H75.1523ZM76.5742 10.2969C76.1263 10.2969 75.7409 10.1484 75.418 9.85156C75.0951 9.54948 74.9336 9.1875 74.9336 8.76562C74.9336 8.33854 75.0951 7.97656 75.418 7.67969C75.7409 7.3776 76.1263 7.22656 76.5742 7.22656C77.0273 7.22656 77.4128 7.3776 77.7305 7.67969C78.0534 7.97656 78.2148 8.33854 78.2148 8.76562C78.2148 9.1875 78.0534 9.54948 77.7305 9.85156C77.4128 10.1484 77.0273 10.2969 76.5742 10.2969ZM86.8809 12V14.1875H79.9824V12H86.8809ZM81.6855 9.125H84.5137V20.3906C84.5137 20.7708 84.571 21.0625 84.6855 21.2656C84.8053 21.4635 84.9616 21.599 85.1543 21.6719C85.347 21.7448 85.5605 21.7812 85.7949 21.7812C85.972 21.7812 86.1335 21.7682 86.2793 21.7422C86.4303 21.7161 86.5449 21.6927 86.623 21.6719L87.0996 23.8828C86.9486 23.9349 86.7324 23.9922 86.4512 24.0547C86.1751 24.1172 85.8366 24.1536 85.4355 24.1641C84.7272 24.1849 84.0892 24.0781 83.5215 23.8437C82.9538 23.6042 82.5033 23.2344 82.1699 22.7344C81.8418 22.2344 81.6803 21.6094 81.6855 20.8594V9.125ZM94.3516 24.2344C93.1536 24.2344 92.125 23.9714 91.2656 23.4453C90.4115 22.9193 89.7526 22.1927 89.2891 21.2656C88.8307 20.3333 88.6016 19.2604 88.6016 18.0469C88.6016 16.8281 88.8359 15.7526 89.3047 14.8203C89.7734 13.8828 90.4349 13.1536 91.2891 12.6328C92.1484 12.1068 93.1641 11.8438 94.3359 11.8438C95.3099 11.8438 96.1719 12.0234 96.9219 12.3828C97.6771 12.737 98.2786 13.2396 98.7266 13.8906C99.1745 14.5365 99.4297 15.2917 99.4922 16.1562H96.7891C96.6797 15.5781 96.4193 15.0964 96.0078 14.7109C95.6016 14.3203 95.0573 14.125 94.375 14.125C93.7969 14.125 93.2891 14.2812 92.8516 14.5937C92.4141 14.901 92.0729 15.3437 91.8281 15.9219C91.5885 16.5 91.4688 17.1927 91.4688 18C91.4688 18.8177 91.5885 19.5208 91.8281 20.1094C92.0677 20.6927 92.4036 21.1432 92.8359 21.4609C93.2734 21.7734 93.7865 21.9297 94.375 21.9297C94.7917 21.9297 95.1641 21.8516 95.4922 21.6953C95.8255 21.5339 96.1042 21.3021 96.3281 21C96.5521 20.6979 96.7057 20.3307 96.7891 19.8984H99.4922C99.4245 20.7474 99.1745 21.5 98.7422 22.1562C98.3099 22.8073 97.7214 23.3177 96.9766 23.6875C96.2318 24.0521 95.3568 24.2344 94.3516 24.2344ZM104.643 16.9687V24H101.814V8H104.58V14.0391H104.721C105.002 13.362 105.437 12.8281 106.025 12.4375C106.619 12.0417 107.374 11.8438 108.291 11.8438C109.124 11.8438 109.851 12.0182 110.471 12.3672C111.09 12.7161 111.57 13.2266 111.908 13.8984C112.252 14.5703 112.424 15.3906 112.424 16.3594V24H109.596V16.7969C109.596 15.9896 109.387 15.362 108.971 14.9141C108.559 14.4609 107.981 14.2344 107.236 14.2344C106.736 14.2344 106.288 14.3437 105.893 14.5625C105.502 14.776 105.195 15.0859 104.971 15.4922C104.752 15.8984 104.643 16.3906 104.643 16.9687Z" fill="white"/>
</svg>
