<svg width="109" height="39" viewBox="0 0 109 39" fill="none" xmlns="http://www.w3.org/2000/svg">
<path fill-rule="evenodd" clip-rule="evenodd" d="M20.9933 6.69022C19.3593 6.79869 18.0159 7.30132 16.7741 8.26884C16.4841 8.49481 8.60492 16.2143 8.17481 16.6939C4.68884 20.5808 6.47506 26.7699 11.5152 28.2679C12.5617 28.5789 12.5887 28.5804 17.1429 28.5804H20.8847L22.7054 30.3538C23.7067 31.3292 24.5469 32.1346 24.5469 32.1346C24.5595 32.1391 24.5678 31.4408 24.5678 30.3645V28.5869L24.8562 28.5716C31.8432 28.2018 34.4189 19.3025 28.6399 15.4988C28.5466 15.4374 28.4687 15.3861 28.4669 15.3849C28.4651 15.3837 28.4825 15.2876 28.5056 15.1714C29.4011 10.6766 25.5992 6.38444 20.9933 6.69022ZM21.8083 10.3113C23.673 10.5553 25.0554 12.1646 24.968 13.9898C24.9608 14.1409 24.9518 14.266 24.948 14.2677C24.9442 14.2694 22.8868 14.2658 20.3762 14.2597L15.8113 14.2486L17.4013 12.6902C18.4712 11.6414 19.0541 11.0863 19.1835 10.9928C19.9518 10.4377 20.8976 10.1921 21.8083 10.3113ZM19.1722 21.0156C15.6625 24.4605 15.8053 24.3298 15.2584 24.599C13.5269 25.4514 11.4409 24.8203 10.4845 23.1545C9.31533 21.1184 10.4606 18.5304 12.7812 17.9647C13.1776 17.8681 13.1907 17.8678 17.86 17.865L22.3846 17.8624L19.1722 21.0156ZM26.9857 18.7955C28.8592 20.3834 28.4189 23.4883 26.1627 24.599C25.4089 24.9701 25.4704 24.9635 22.6787 24.972L20.326 24.9792L23.5497 21.8042C26.1154 19.2774 26.7804 18.6338 26.8074 18.6512C26.8261 18.6632 26.9063 18.7282 26.9857 18.7955Z" fill="url(#paint0_linear_68_3920)"/>
<path d="M45.186 24H46.404V22.194H45.62C44.892 22.194 44.486 21.774 44.486 20.99V18.386H46.348V16.622H44.556V14.676H42.54V15.824C42.54 16.356 42.288 16.622 41.784 16.622H41.154V18.386H42.414V21.242C42.414 22.908 43.352 24 45.186 24ZM52.8381 16.622V17.518C52.3061 16.916 51.5361 16.58 50.5701 16.58C48.4421 16.58 46.9021 18.106 46.9021 20.318C46.9021 22.516 48.4421 24.182 50.5701 24.182C51.5361 24.182 52.3061 23.818 52.8381 23.188V24H54.7561V16.622H52.8381ZM50.8641 22.348C49.7581 22.348 48.9601 21.494 48.9601 20.318C48.9601 19.142 49.7581 18.274 50.8641 18.274C51.9981 18.274 52.7681 19.114 52.7681 20.318C52.7681 21.522 51.9981 22.348 50.8641 22.348ZM60.4762 16.454C59.5102 16.454 58.7122 16.804 58.1522 17.434V16.622H56.2342V26.506H58.3062V23.384C58.8382 23.902 59.5522 24.182 60.4202 24.182C62.5482 24.182 64.0882 22.516 64.0882 20.318C64.0882 18.106 62.6042 16.454 60.4762 16.454ZM60.1402 22.348C58.9922 22.348 58.2222 21.522 58.2222 20.318C58.2222 19.114 58.9922 18.274 60.1402 18.274C61.2322 18.274 62.0302 19.142 62.0302 20.318C62.0302 21.494 61.2322 22.348 60.1402 22.348ZM73.9803 16.44C72.8043 16.44 71.9923 16.888 71.5583 17.518C71.1523 16.832 70.4383 16.44 69.3183 16.44C68.3943 16.44 67.6523 16.804 67.1903 17.322V16.622H65.2303V23.986H67.3023V19.604C67.3163 18.988 67.7643 18.288 68.6603 18.288C69.5283 18.288 69.9763 18.974 69.9763 19.8V23.986H72.0483V19.604C72.0623 18.988 72.4963 18.288 73.4203 18.288C74.2883 18.288 74.7223 18.974 74.7223 19.8V23.986H76.7943V19.408C76.7943 17.77 75.8283 16.44 73.9803 16.44ZM82.9841 16.622L81.1081 22.348L79.4421 16.622H77.3001L79.7641 24H80.4501L79.4561 26.506H81.5001L82.4101 24L85.1261 16.622H82.9841ZM90.1442 16.454C89.2622 16.454 88.5202 16.748 87.9742 17.266V13.766H85.9022V24H87.8202V23.23C88.3662 23.832 89.1362 24.182 90.0882 24.182C92.2162 24.182 93.7562 22.516 93.7562 20.318C93.7562 18.106 92.2722 16.454 90.1442 16.454ZM89.8082 22.348C88.6602 22.348 87.8902 21.522 87.8902 20.318C87.8902 19.114 88.6602 18.274 89.8082 18.274C90.9002 18.274 91.6982 19.142 91.6982 20.318C91.6982 21.494 90.9002 22.348 89.8082 22.348ZM95.9483 15.544C96.7043 15.544 97.2923 14.998 97.2923 14.228C97.2923 13.472 96.7043 12.912 95.9483 12.912C95.1923 12.912 94.5903 13.472 94.5903 14.228C94.5903 14.998 95.1923 15.544 95.9483 15.544ZM94.8983 24H96.9703V16.622H94.8983V24ZM102.093 24.182C104.417 24.182 106.083 22.516 106.083 20.318C106.083 18.106 104.417 16.454 102.093 16.454C99.7549 16.454 98.1029 18.106 98.1029 20.318C98.1029 22.516 99.7549 24.182 102.093 24.182ZM102.107 22.334C100.959 22.334 100.189 21.494 100.189 20.318C100.189 19.128 100.959 18.302 102.107 18.302C103.255 18.302 104.011 19.128 104.011 20.304C104.011 21.494 103.227 22.334 102.107 22.334Z" fill="#AE4AFF"/>
<defs>
<linearGradient id="paint0_linear_68_3920" x1="20.8455" y1="6.43861" x2="37.745" y2="25.1807" gradientUnits="userSpaceOnUse">
<stop offset="0.0001" stop-color="#7700D7"/>
<stop offset="0.0002" stop-color="#8800F6"/>
<stop offset="0.648958" stop-color="#B861FF"/>
</linearGradient>
</defs>
</svg>
