<svg width="34" height="17" viewBox="0 0 34 17" fill="none" xmlns="http://www.w3.org/2000/svg">
<path d="M12.5957 11V6.814H10.9017V6.065H15.1857V6.814H13.4917V11H12.5957ZM17.8044 11.07C17.1277 11.07 16.6097 10.895 16.2504 10.545C15.8957 10.1903 15.7184 9.66767 15.7184 8.977V6.065H16.6144V8.97C16.6144 9.41333 16.7147 9.747 16.9154 9.971C17.1207 10.1903 17.417 10.3 17.8044 10.3C18.593 10.3 18.9874 9.85667 18.9874 8.97V6.065H19.8764V8.977C19.8764 9.66767 19.7014 10.1903 19.3514 10.545C19.0014 10.895 18.4857 11.07 17.8044 11.07ZM23.2173 11.07C22.704 11.07 22.263 10.9673 21.8943 10.762C21.5303 10.552 21.2503 10.258 21.0543 9.88C20.8583 9.49733 20.7603 9.047 20.7603 8.529C20.7603 8.011 20.8583 7.563 21.0543 7.185C21.2503 6.807 21.5303 6.51533 21.8943 6.31C22.263 6.1 22.704 5.995 23.2173 5.995C23.5487 5.995 23.8613 6.04633 24.1553 6.149C24.454 6.25167 24.699 6.39867 24.8903 6.59L24.5963 7.304C24.3863 7.12667 24.1717 6.99833 23.9523 6.919C23.733 6.835 23.4973 6.793 23.2453 6.793C22.746 6.793 22.3657 6.94467 22.1043 7.248C21.843 7.54667 21.7123 7.97367 21.7123 8.529C21.7123 9.08433 21.843 9.51367 22.1043 9.817C22.3657 10.1203 22.746 10.272 23.2453 10.272C23.4973 10.272 23.733 10.2323 23.9523 10.153C24.1717 10.069 24.3863 9.93833 24.5963 9.761L24.8903 10.475C24.699 10.6617 24.454 10.8087 24.1553 10.916C23.8613 11.0187 23.5487 11.07 23.2173 11.07Z" fill="white"/>
<path d="M1 10.4659V1.65625H10.9109" stroke="white" stroke-width="2"/>
<path d="M33 6.44084V15.2505H23.0891" stroke="white" stroke-width="2"/>
</svg>
