<svg width="127" height="36" viewBox="0 0 127 36" fill="none" xmlns="http://www.w3.org/2000/svg">
<path d="M7.848 31.104C6.96 31.104 6.18 31.032 5.508 30.888C4.836 30.744 4.248 30.396 3.744 29.844C3.264 29.292 3.024 28.44 3.024 27.288C3.024 25.68 3.504 23.52 4.464 20.808C5.448 18.096 6.732 15.372 8.316 12.636C7.116 12.708 6.168 12.888 5.472 13.176C4.776 13.464 4.32 13.908 4.104 14.508C4.2 14.508 4.296 14.628 4.392 14.868C4.512 15.108 4.572 15.36 4.572 15.624C4.572 16.056 4.38 16.404 3.996 16.668C3.612 16.908 3.132 17.028 2.556 17.028C1.884 17.028 1.344 16.848 0.936 16.488C0.528 16.128 0.324 15.612 0.324 14.94C0.324 14.124 0.636 13.38 1.26 12.708C1.908 12.036 2.796 11.508 3.924 11.124C5.052 10.716 6.3 10.512 7.668 10.512C8.172 10.512 8.796 10.548 9.54 10.62C11.508 7.5 13.584 4.956 15.768 2.988C17.976 0.995998 20.076 -2.14577e-06 22.068 -2.14577e-06C23.22 -2.14577e-06 24.168 0.167998 24.912 0.503998L19.26 27H14.076L16.848 13.932C15.96 13.524 15.144 13.224 14.4 13.032C13.656 12.84 12.864 12.708 12.024 12.636C10.656 15.588 9.528 18.612 8.64 21.708C7.776 24.78 7.344 27.24 7.344 29.088C7.344 30 7.512 30.672 7.848 31.104ZM19.26 2.556C18.228 3.108 17.148 4.14 16.02 5.652C14.916 7.14 13.836 8.952 12.78 11.088C14.508 11.424 15.972 11.844 17.172 12.348L19.26 2.556ZM28.3669 27.216C26.9989 27.216 25.8589 26.748 24.9469 25.812C24.0349 24.876 23.5789 23.412 23.5789 21.42C23.5789 19.644 23.9269 17.784 24.6229 15.84C25.3429 13.872 26.3989 12.216 27.7909 10.872C29.2069 9.504 30.8869 8.82 32.8309 8.82C33.8149 8.82 34.5469 8.988 35.0269 9.324C35.5069 9.66 35.7469 10.104 35.7469 10.656V10.8L37.5109 2.52L42.8389 1.8L38.6989 21.24C38.6029 21.6 38.5549 21.984 38.5549 22.392C38.5549 22.872 38.6629 23.22 38.8789 23.436C39.1189 23.628 39.5029 23.724 40.0309 23.724C40.7029 23.724 41.2789 23.436 41.7589 22.86C42.2629 22.284 42.6589 21.516 42.9469 20.556H44.4589C42.9949 24.852 40.5829 27 37.2229 27C36.2389 27 35.4349 26.736 34.8109 26.208C34.2109 25.68 33.8389 24.912 33.6949 23.904C33.0709 24.864 32.3149 25.656 31.4269 26.28C30.5629 26.904 29.5429 27.216 28.3669 27.216ZM30.7069 23.724C31.2829 23.724 31.8589 23.46 32.4349 22.932C33.0349 22.404 33.4429 21.672 33.6589 20.736V20.556L35.4229 12.312C35.2069 11.472 34.7149 11.052 33.9469 11.052C32.9869 11.052 32.1229 11.616 31.3549 12.744C30.5869 13.848 29.9869 15.192 29.5549 16.776C29.1229 18.336 28.9069 19.716 28.9069 20.916C28.9069 22.116 29.0749 22.884 29.4109 23.22C29.7709 23.556 30.2029 23.724 30.7069 23.724ZM48.1089 27.216C46.3329 27.216 44.9529 26.76 43.9689 25.848C42.9849 24.912 42.4929 23.46 42.4929 21.492C42.4929 19.836 42.8169 18.012 43.4649 16.02C44.1129 14.028 45.1689 12.312 46.6329 10.872C48.0969 9.408 49.9569 8.676 52.2129 8.676C54.8529 8.676 56.1729 9.828 56.1729 12.132C56.1729 13.476 55.7889 14.712 55.0209 15.84C54.2529 16.968 53.2329 17.88 51.9609 18.576C50.6889 19.248 49.3329 19.632 47.8929 19.728C47.8449 20.448 47.8209 20.928 47.8209 21.168C47.8209 22.344 48.0249 23.148 48.4329 23.58C48.8409 23.988 49.5009 24.192 50.4129 24.192C51.7089 24.192 52.8129 23.892 53.7249 23.292C54.6609 22.692 55.6809 21.78 56.7849 20.556H58.0089C55.3449 24.996 52.0449 27.216 48.1089 27.216ZM48.1809 18C49.0689 17.952 49.9089 17.64 50.7009 17.064C51.5169 16.488 52.1649 15.756 52.6449 14.868C53.1489 13.98 53.4009 13.044 53.4009 12.06C53.4009 11.076 53.1009 10.584 52.5009 10.584C51.6369 10.584 50.7849 11.34 49.9449 12.852C49.1289 14.364 48.5409 16.08 48.1809 18ZM61.5653 27.216C59.9333 27.216 58.6853 26.82 57.8213 26.028C56.9573 25.212 56.5253 24.072 56.5253 22.608C56.5253 21.888 56.6093 21.204 56.7773 20.556L60.6293 2.52L65.9573 1.8L64.2293 9.9C64.9013 9.492 65.4533 9.228 65.8853 9.108C66.3173 8.964 66.7493 8.892 67.1813 8.892C70.0133 8.892 71.4293 10.944 71.4293 15.048C71.4293 16.704 71.1053 18.48 70.4573 20.376C69.8333 22.248 68.7773 23.856 67.2893 25.2C65.8253 26.544 63.9173 27.216 61.5653 27.216ZM63.5813 23.724C64.3253 23.724 65.0213 23.268 65.6693 22.356C66.3173 21.42 66.8333 20.268 67.2173 18.9C67.6013 17.508 67.7933 16.176 67.7933 14.904C67.7933 13.944 67.6253 13.128 67.2893 12.456C66.9533 11.784 66.4853 11.448 65.8853 11.448C65.5253 11.448 65.1173 11.508 64.6613 11.628C64.2293 11.724 63.9293 11.88 63.7613 12.096L61.7813 21.24C61.7093 21.528 61.6733 21.804 61.6733 22.068C61.6733 23.172 62.3093 23.724 63.5813 23.724ZM77.0934 27.216C75.7254 27.216 74.5854 26.748 73.6734 25.812C72.7614 24.876 72.3054 23.412 72.3054 21.42C72.3054 19.644 72.6534 17.784 73.3494 15.84C74.0694 13.872 75.1254 12.216 76.5174 10.872C77.9334 9.504 79.6134 8.82 81.5574 8.82C82.5414 8.82 83.2734 8.988 83.7534 9.324C84.2334 9.66 84.4734 10.104 84.4734 10.656V10.908L84.8694 9H90.0534L87.4614 21.24C87.3654 21.6 87.3174 21.984 87.3174 22.392C87.3174 23.424 87.8094 23.94 88.7934 23.94C89.4654 23.94 90.0414 23.628 90.5214 23.004C91.0254 22.38 91.4214 21.564 91.7094 20.556H93.2214C92.3334 23.148 91.2294 24.912 89.9094 25.848C88.6134 26.76 87.3054 27.216 85.9854 27.216C84.9774 27.216 84.1614 26.94 83.5374 26.388C82.9374 25.812 82.5774 24.984 82.4574 23.904C81.7614 24.888 80.9814 25.692 80.1174 26.316C79.2774 26.916 78.2694 27.216 77.0934 27.216ZM79.4334 23.724C80.0334 23.724 80.6214 23.448 81.1974 22.896C81.7974 22.32 82.2054 21.54 82.4214 20.556L84.1494 12.42C84.1494 12.108 84.0294 11.808 83.7894 11.52C83.5494 11.208 83.1774 11.052 82.6734 11.052C81.7134 11.052 80.8494 11.616 80.0814 12.744C79.3134 13.848 78.7134 15.192 78.2814 16.776C77.8494 18.336 77.6334 19.716 77.6334 20.916C77.6334 22.116 77.8014 22.884 78.1374 23.22C78.4974 23.556 78.9294 23.724 79.4334 23.724ZM97.3387 36C96.1867 36 95.2267 35.7 94.4587 35.1C93.6907 34.5 93.3067 33.636 93.3067 32.508C93.3067 31.14 93.8587 30.036 94.9627 29.196C96.0667 28.38 97.4707 27.696 99.1747 27.144L99.6067 25.2C98.9107 25.968 98.2027 26.496 97.4827 26.784C96.7627 27.072 96.0307 27.216 95.2867 27.216C94.1347 27.216 93.1987 26.856 92.4787 26.136C91.7827 25.416 91.4347 24.336 91.4347 22.896C91.4347 22.296 91.5307 21.516 91.7227 20.556L94.1707 9H99.3547L96.7627 21.24C96.6907 21.528 96.6547 21.828 96.6547 22.14C96.6547 23.196 97.0147 23.724 97.7347 23.724C98.3587 23.724 98.9107 23.46 99.3907 22.932C99.8707 22.38 100.255 21.66 100.543 20.772L103.063 9H108.247L104.683 25.704C105.835 25.32 106.759 24.744 107.455 23.976C108.151 23.208 108.739 22.068 109.219 20.556H110.731C110.083 22.692 109.207 24.264 108.103 25.272C106.999 26.256 105.751 26.928 104.359 27.288L103.819 29.88C103.339 32.208 102.511 33.804 101.335 34.668C100.159 35.556 98.8267 36 97.3387 36ZM96.5107 33.192C96.9187 33.192 97.3147 32.916 97.6987 32.364C98.0827 31.812 98.3827 31.02 98.5987 29.988L98.8147 28.944C96.4627 29.808 95.2867 30.828 95.2867 32.004C95.2867 32.316 95.3947 32.592 95.6107 32.832C95.8267 33.072 96.1267 33.192 96.5107 33.192ZM114.486 27.144C112.71 27.144 111.306 26.688 110.274 25.776C109.242 24.864 108.726 23.424 108.726 21.456C108.726 19.8 109.05 17.988 109.698 16.02C110.346 14.028 111.402 12.312 112.866 10.872C114.33 9.408 116.202 8.676 118.482 8.676C121.314 8.676 122.838 10.296 123.054 13.536C123.582 13.416 124.05 13.128 124.458 12.672C124.866 12.192 125.25 11.652 125.61 11.052H126.762C126.114 12.348 125.538 13.368 125.034 14.112C124.53 14.832 123.87 15.42 123.054 15.876C122.91 18.132 122.442 20.112 121.65 21.816C120.882 23.52 119.874 24.84 118.626 25.776C117.378 26.688 115.998 27.144 114.486 27.144ZM115.926 23.904C116.814 23.904 117.642 23.184 118.41 21.744C119.178 20.304 119.706 18.528 119.994 16.416C119.418 16.2 119.13 15.66 119.13 14.796C119.13 13.86 119.466 13.236 120.138 12.924C120.09 12.156 119.958 11.628 119.742 11.34C119.55 11.028 119.226 10.872 118.77 10.872C117.978 10.872 117.222 11.448 116.502 12.6C115.782 13.728 115.194 15.108 114.738 16.74C114.306 18.348 114.09 19.764 114.09 20.988C114.09 22.14 114.222 22.92 114.486 23.328C114.75 23.712 115.23 23.904 115.926 23.904Z" fill="white"/>
</svg>
