<svg width="113" height="21" viewBox="0 0 113 21" fill="none" xmlns="http://www.w3.org/2000/svg">
<g clip-path="url(#clip0)">
<path d="M10.3766 0.128906C8.32431 0.128906 6.3181 0.737094 4.61167 1.87656C2.90525 3.01603 1.57526 4.6356 0.789876 6.53046C0.00449601 8.42532 -0.200995 10.5104 0.199388 12.522C0.599771 14.5335 1.58805 16.3813 3.03924 17.8316C4.49043 19.2818 6.33937 20.2695 8.35223 20.6696C10.3651 21.0697 12.4515 20.8644 14.3476 20.0795C16.2436 19.2946 17.8642 17.9655 19.0044 16.2601C20.1446 14.5548 20.7532 12.5499 20.7532 10.4989C20.7532 7.74859 19.66 5.11095 17.714 3.1662C15.768 1.22145 13.1286 0.128906 10.3766 0.128906ZM15.5781 10.4989C15.573 11.6798 15.1005 12.8107 14.2638 13.6445C13.4271 14.4784 12.2942 14.9475 11.1126 14.9494H5.17509V10.4989C5.17509 9.31745 5.64471 8.18441 6.48064 7.34901C7.31657 6.51362 8.45033 6.0443 9.63251 6.0443H15.5771L15.5781 10.4989Z" fill="#258CF2"/>
<path d="M31.1166 20.6902C30.9242 20.6891 30.7399 20.6122 30.6038 20.4763C30.4678 20.3403 30.3908 20.1561 30.3898 19.9638V5.68989C30.3882 5.59506 30.4063 5.50093 30.4431 5.41349C30.4798 5.32604 30.5344 5.24719 30.6032 5.18196C30.6691 5.11389 30.7481 5.05989 30.8355 5.02322C30.9229 4.98655 31.0168 4.96798 31.1115 4.96863H33.6335C33.7319 4.9645 33.83 4.98139 33.9213 5.01818C34.0126 5.05497 34.0951 5.1108 34.1631 5.18196C34.2908 5.32012 34.361 5.50179 34.3593 5.68989V19.9679C34.361 20.156 34.2908 20.3377 34.1631 20.4758C34.0958 20.5479 34.0135 20.6044 33.922 20.6412C33.8305 20.6781 33.732 20.6944 33.6335 20.6892L31.1166 20.6902Z" fill="#121212"/>
<path d="M32.0874 0.000976562H34.5097V1.81633C34.5097 2.05498 34.4626 2.29129 34.3711 2.51174C34.2797 2.73219 34.1456 2.93245 33.9766 3.10106C33.8076 3.26967 33.607 3.40332 33.3862 3.49437C33.1655 3.58543 32.929 3.63209 32.6901 3.63168H30.2708V1.81633C30.2708 1.57793 30.3178 1.34187 30.4091 1.12162C30.5004 0.901376 30.6342 0.701253 30.8029 0.532681C30.9716 0.36411 31.1718 0.230392 31.3922 0.139162C31.6126 0.0479321 31.8488 0.000976562 32.0874 0.000976563V0.000976562Z" fill="#258CF2"/>
<path d="M36.8386 20.6931C36.7452 20.6973 36.652 20.6824 36.5647 20.6494C36.4773 20.6164 36.3975 20.5659 36.3303 20.5011C36.2627 20.4351 36.2093 20.356 36.1733 20.2687C36.1373 20.1814 36.1195 20.0876 36.1209 19.9932V5.68979C36.1204 5.59425 36.1388 5.49956 36.1751 5.41119C36.2115 5.32282 36.265 5.24254 36.3326 5.17498C36.4002 5.10743 36.4805 5.05395 36.5689 5.01764C36.6574 4.98132 36.7521 4.96291 36.8477 4.96344H39.3219C39.4175 4.96291 39.5123 4.98132 39.6007 5.01764C39.6891 5.05395 39.7694 5.10743 39.837 5.17498C39.9046 5.24254 39.9582 5.32282 39.9945 5.41119C40.0308 5.49956 40.0493 5.59425 40.0487 5.68979V6.92813C40.6544 6.18147 41.4269 5.5872 42.3042 5.19305C43.1814 4.79891 44.1389 4.61589 45.0998 4.65868C46.2208 4.63448 47.3265 4.92294 48.2927 5.4917C49.2171 6.04935 49.9589 6.86409 50.4273 7.83632C50.951 8.97342 51.2056 10.2158 51.1714 11.467V19.9658C51.1721 20.0605 51.1535 20.1543 51.1168 20.2416C51.0801 20.3289 51.0261 20.4079 50.958 20.4737C50.8927 20.5425 50.8138 20.5971 50.7263 20.6338C50.6388 20.6705 50.5446 20.6886 50.4497 20.687H47.7793C47.6844 20.6886 47.5902 20.6705 47.5027 20.6338C47.4152 20.5971 47.3363 20.5425 47.2711 20.4737C47.203 20.4078 47.149 20.3289 47.1123 20.2416C47.0756 20.1543 47.057 20.0605 47.0576 19.9658V11.6478C47.1161 10.6576 46.8122 9.67983 46.2027 8.89688C45.8868 8.55483 45.4984 8.28759 45.066 8.11465C44.6335 7.94171 44.1679 7.86744 43.7031 7.89727C43.2373 7.87645 42.7724 7.9548 42.3392 8.12714C41.9059 8.29947 41.5143 8.56185 41.1903 8.89688C40.5324 9.65751 40.1967 10.6441 40.2541 11.6478V19.9678C40.2546 20.0625 40.236 20.1563 40.1993 20.2436C40.1627 20.3309 40.1087 20.4099 40.0406 20.4757C39.9753 20.5446 39.8964 20.5991 39.8089 20.6358C39.7214 20.6726 39.6272 20.6907 39.5323 20.6891L36.8386 20.6931Z" fill="#121212"/>
<path d="M59.8311 20.997C58.5032 21.0284 57.1862 20.7502 55.9846 20.1843C54.915 19.6614 54.023 18.8353 53.42 17.8092C52.7717 16.6581 52.4222 15.3631 52.4034 14.0423C52.4034 13.7376 52.374 13.3414 52.374 12.8467C52.374 12.3519 52.374 11.9456 52.4034 11.6205C52.4235 10.2999 52.7729 9.00525 53.42 7.85367C54.023 6.82751 54.915 6.00147 55.9846 5.47857C57.1862 4.91268 58.5032 4.63442 59.8311 4.66588C60.9557 4.63768 62.0754 4.82314 63.1307 5.21242C63.9607 5.52149 64.7259 5.98205 65.3874 6.57063C65.928 7.05532 66.3758 7.63432 66.7089 8.27932C66.9751 8.78047 67.1337 9.33166 67.1744 9.8976C67.19 9.99462 67.1801 10.094 67.1457 10.1861C67.1113 10.2781 67.0536 10.3597 66.9783 10.4228C66.833 10.5529 66.6437 10.623 66.4486 10.6189H63.7864C63.6165 10.6308 63.4485 10.5774 63.3168 10.4695C63.185 10.3387 63.0779 10.1853 63.0006 10.0165C62.7898 9.33619 62.3714 8.73878 61.8042 8.30776C61.2389 7.95277 60.5795 7.77678 59.9124 7.80288C59.466 7.78119 59.0201 7.85497 58.6044 8.01929C58.1888 8.18362 57.813 8.4347 57.5023 8.75576C56.8326 9.60403 56.4938 10.6664 56.5488 11.7455C56.5103 12.4496 56.5103 13.1553 56.5488 13.8595C56.4899 14.9509 56.8287 16.0267 57.5023 16.8878C57.8159 17.2039 58.1925 17.4506 58.6078 17.6118C59.023 17.773 59.4675 17.8451 59.9124 17.8234C60.5839 17.8544 61.2488 17.6801 61.8184 17.3236C62.376 16.8869 62.7873 16.2909 62.9976 15.6149C63.0759 15.4467 63.1829 15.2934 63.3137 15.1618C63.4454 15.0539 63.6135 15.0005 63.7833 15.0125H66.4466C66.6416 15.0084 66.8309 15.0785 66.9762 15.2085C67.0515 15.2726 67.1091 15.3549 67.1435 15.4476C67.1778 15.5402 67.1878 15.6402 67.1724 15.7378C67.1405 16.1565 67.0438 16.5677 66.8857 16.9569C66.6851 17.4649 66.407 17.9388 66.0613 18.3618C65.6574 18.8547 65.1838 19.2862 64.6555 19.6428C64.0265 20.0644 63.3359 20.3858 62.6082 20.5957C61.707 20.8651 60.7708 20.999 59.8301 20.9929L59.8311 20.997Z" fill="#121212"/>
<path d="M73.5053 20.9919C72.5217 21.0053 71.548 20.7933 70.6591 20.3722C69.8582 19.9955 69.1658 19.4224 68.6464 18.7062C68.0262 17.8168 67.7803 16.7196 67.9616 15.6508C68.143 14.582 68.7372 13.6272 69.6161 12.9919C70.9652 12.0745 72.5166 11.4973 74.1376 11.3097L78.287 10.7072V10.0713C78.3321 9.35944 78.1046 8.65707 77.6507 8.10663C77.3558 7.84547 77.0097 7.64869 76.6345 7.52886C76.2592 7.40904 75.863 7.36881 75.4713 7.41076C74.8526 7.38049 74.2383 7.52859 73.7015 7.83742C73.2577 8.12066 72.9049 8.5255 72.685 9.00364C72.6172 9.12671 72.5167 9.2286 72.3945 9.298C72.2723 9.3674 72.1332 9.40159 71.9928 9.39678H69.5999C69.5085 9.40374 69.4167 9.39132 69.3306 9.36033C69.2444 9.32935 69.1657 9.28049 69.0997 9.21697C68.984 9.082 68.9244 8.90789 68.933 8.73037C68.9854 8.31555 69.1191 7.91512 69.3264 7.55196C69.6313 7.03301 70.035 6.57881 70.5147 6.21508C71.1191 5.74209 71.7979 5.3727 72.5234 5.12201C73.4871 4.80036 74.4991 4.64709 75.515 4.66893C76.6079 4.64208 77.6975 4.80077 78.7373 5.13826C79.5268 5.3965 80.2482 5.82833 80.8486 6.402C81.3672 6.92159 81.7604 7.55253 81.9983 8.24682C82.2428 8.96644 82.3654 9.72177 82.3612 10.4817V19.9587C82.3618 20.0534 82.3432 20.1472 82.3065 20.2345C82.2698 20.3218 82.2158 20.4008 82.1477 20.4667C82.0825 20.5355 82.0036 20.59 81.9161 20.6268C81.8286 20.6635 81.7344 20.6816 81.6395 20.68H79.1866C79.0869 20.6906 78.9861 20.6789 78.8915 20.6457C78.7969 20.6125 78.7109 20.5586 78.6398 20.488C78.5101 20.3511 78.4396 20.1686 78.4436 19.9801V18.7925C78.152 19.206 77.7937 19.5682 77.3833 19.8643C76.8914 20.2214 76.3444 20.4959 75.764 20.677C75.0332 20.9035 74.2703 21.0098 73.5053 20.9919ZM74.531 18.118C75.1997 18.1283 75.8605 17.9726 76.4542 17.6649C77.0439 17.348 77.5203 16.8555 77.8174 16.2559C78.1766 15.5067 78.3483 14.6815 78.3175 13.8514V13.2408L75.2913 13.7234C74.3511 13.8116 73.4413 14.1031 72.625 14.5777C72.3684 14.732 72.1553 14.9489 72.0057 15.2082C71.8561 15.4675 71.7751 15.7606 71.7701 16.0598C71.7645 16.4786 71.917 16.8841 72.1971 17.1956C72.4787 17.5138 72.838 17.7535 73.24 17.8915C73.6597 18.0412 74.1016 18.1192 74.5473 18.1221L74.531 18.118Z" fill="#121212"/>
<path d="M89.9312 20.9969C88.881 21.0189 87.834 20.8749 86.8288 20.5702C86.0713 20.339 85.3587 19.9807 84.7215 19.5107C84.246 19.1582 83.8365 18.7245 83.5119 18.2297C83.2882 17.9149 83.1419 17.5519 83.0849 17.1701C83.0703 17.0725 83.0806 16.9728 83.1149 16.8803C83.1493 16.7878 83.2064 16.7054 83.2811 16.6409C83.4182 16.5165 83.5961 16.4468 83.7812 16.4448H86.1701C86.2427 16.4442 86.3148 16.4558 86.3835 16.4793C86.4774 16.5201 86.5608 16.5816 86.6275 16.6591L87.457 17.355C87.7737 17.6118 88.1265 17.8206 88.504 17.9747C89.0712 18.1743 89.6727 18.2587 90.273 18.2227C90.8733 18.1868 91.4604 18.0313 91.9998 17.7654C92.1992 17.6512 92.3715 17.4952 92.5049 17.3082C92.6383 17.1212 92.7296 16.9076 92.7727 16.682C92.8158 16.4564 92.8095 16.2242 92.7543 16.0012C92.6992 15.7783 92.5964 15.5699 92.4532 15.3903C92.0907 15.0519 91.6505 14.8077 91.1713 14.6792C90.2973 14.4033 89.4085 14.1768 88.5091 14.0006C87.5302 13.7929 86.5831 13.4568 85.6923 13.001C85.0089 12.6588 84.4323 12.136 84.0252 11.4894C83.6452 10.8187 83.4595 10.0554 83.4889 9.28519C83.5184 8.51494 83.7618 7.7681 84.1919 7.12829C84.7339 6.35998 85.4707 5.74957 86.3266 5.35966C87.4234 4.86408 88.6193 4.62605 89.8224 4.66379C90.7881 4.65056 91.7494 4.79467 92.6686 5.09046C93.3891 5.3205 94.0685 5.66339 94.6814 6.10632C95.1533 6.44686 95.5675 6.86084 95.9083 7.33247C96.1484 7.64523 96.3045 8.01417 96.3617 8.40421C96.377 8.50041 96.3687 8.5989 96.3373 8.69114C96.306 8.78337 96.2526 8.86656 96.1817 8.93348C96.0512 9.05981 95.8765 9.13017 95.6948 9.12954H93.4585C93.3638 9.13249 93.2698 9.1119 93.185 9.06961C93.1008 9.02761 93.0208 8.9776 92.9462 8.92027C92.7235 8.7171 92.4806 8.49361 92.2193 8.28434C91.9242 8.04505 91.598 7.84685 91.2496 7.69514C90.7831 7.50738 90.2822 7.42015 89.7797 7.43914C89.1618 7.39623 88.5478 7.56656 88.0405 7.92168C87.8497 8.07018 87.696 8.26085 87.5914 8.4787C87.4868 8.69656 87.4342 8.93568 87.4377 9.17729C87.4296 9.49719 87.5306 9.81032 87.7243 10.0652C88.0449 10.4015 88.449 10.6469 88.8953 10.7763C89.7643 11.0739 90.6541 11.3065 91.5576 11.4721C92.6868 11.6358 93.7779 11.9986 94.78 12.5439C95.4882 12.9234 96.0794 13.4889 96.4897 14.1794C96.8165 14.8137 96.9767 15.5205 96.9553 16.2335C96.9635 17.1111 96.6844 17.9673 96.1604 18.6716C95.5509 19.4521 94.733 20.0445 93.801 20.3803C92.5608 20.8248 91.2483 21.0339 89.9312 20.9969Z" fill="#121212"/>
<path d="M98.5563 20.6941C98.4615 20.6958 98.3673 20.6776 98.2798 20.6409C98.1923 20.6042 98.1134 20.5497 98.0481 20.4808C97.98 20.415 97.9259 20.336 97.8892 20.2487C97.8525 20.1614 97.834 20.0676 97.8346 19.9729V0.727281C97.834 0.632589 97.8525 0.538749 97.8892 0.451443C97.9259 0.364136 97.98 0.285178 98.0481 0.219348C98.114 0.151278 98.193 0.0972751 98.2803 0.0606064C98.3677 0.0239376 98.4616 0.00536595 98.5563 0.00601559H101.249C101.348 0.00135306 101.446 0.0180016 101.537 0.0548217C101.629 0.0916419 101.711 0.147764 101.779 0.219348C101.908 0.356306 101.979 0.538781 101.975 0.727281V6.83467C102.53 6.18249 103.21 5.64811 103.975 5.26313C104.882 4.83096 105.878 4.62195 106.882 4.65361C108.012 4.62734 109.128 4.91575 110.104 5.48662C111.027 6.04582 111.769 6.86013 112.239 7.83124C112.771 8.96601 113.029 10.2093 112.995 11.4619V19.9637C112.996 20.0582 112.979 20.1519 112.943 20.2392C112.907 20.3265 112.853 20.4056 112.786 20.4717C112.72 20.5405 112.641 20.595 112.554 20.6318C112.466 20.6685 112.372 20.6866 112.277 20.685H109.551C109.456 20.6866 109.362 20.6685 109.274 20.6318C109.187 20.595 109.108 20.5405 109.043 20.4717C108.975 20.4058 108.921 20.3269 108.884 20.2396C108.847 20.1523 108.829 20.0584 108.829 19.9637V11.6478C108.89 10.6573 108.586 9.67878 107.974 8.89688C107.66 8.5544 107.272 8.28681 106.84 8.11381C106.408 7.94082 105.943 7.86682 105.479 7.89727C105.011 7.87625 104.544 7.95446 104.109 8.12675C103.673 8.29904 103.279 8.56151 102.953 8.89688C102.282 9.65158 101.935 10.6397 101.987 11.6478V19.9678C101.991 20.1563 101.921 20.3388 101.791 20.4757C101.724 20.548 101.641 20.6046 101.55 20.6415C101.458 20.6784 101.36 20.6946 101.261 20.6891L98.5563 20.6941Z" fill="#121212"/>
</g>
<defs>
<clipPath id="clip0">
<rect width="113" height="21" fill="white"/>
</clipPath>
</defs>
</svg>
