<svg width="155" height="29" viewBox="0 0 155 29" fill="none" xmlns="http://www.w3.org/2000/svg">
<g clip-path="url(#clip0)">
<path d="M14.2334 0.178101C11.4183 0.178101 8.66642 1.01798 6.32575 2.59153C3.98508 4.16508 2.16075 6.40162 1.08346 9.01834C0.0061671 11.6351 -0.275701 14.5144 0.273497 17.2923C0.822695 20.0702 2.17829 22.6219 4.16887 24.6246C6.15944 26.6274 8.69559 27.9912 11.4566 28.5438C14.2176 29.0964 17.0795 28.8128 19.6803 27.7289C22.2811 26.645 24.504 24.8095 26.068 22.4545C27.632 20.0996 28.4668 17.3308 28.4668 14.4985C28.4668 10.7005 26.9672 7.05806 24.2979 4.37246C21.6286 1.68686 18.0083 0.178101 14.2334 0.178101ZM21.3682 14.4985C21.3612 16.1293 20.7131 17.691 19.5654 18.8425C18.4177 19.9941 16.8637 20.6419 15.2429 20.6445H7.09857V14.4985C7.09857 12.867 7.74274 11.3024 8.88937 10.1487C10.036 8.99508 11.5912 8.34698 13.2127 8.34698H21.3668L21.3682 14.4985Z" fill="#258CF2"/>
<path d="M42.682 28.572C42.4181 28.5706 42.1653 28.4644 41.9787 28.2766C41.792 28.0888 41.6865 27.8346 41.6851 27.569V7.85735C41.6829 7.72639 41.7077 7.5964 41.7581 7.47565C41.8086 7.35489 41.8834 7.246 41.9779 7.15592C42.0682 7.06192 42.1766 6.98734 42.2964 6.9367C42.4163 6.88607 42.5451 6.86042 42.6751 6.86131H46.1344C46.2693 6.85561 46.4039 6.87894 46.5292 6.92975C46.6545 6.98055 46.7676 7.05765 46.8608 7.15592C47.0361 7.34671 47.1323 7.59759 47.13 7.85735V27.5746C47.1323 27.8344 47.0361 28.0852 46.8608 28.276C46.7685 28.3756 46.6556 28.4535 46.5301 28.5044C46.4046 28.5553 46.2695 28.5779 46.1344 28.5706L42.682 28.572Z" fill="#121212"/>
<path d="M44.0136 0.00134277H47.3363V2.50826C47.3363 2.83783 47.2718 3.16416 47.1463 3.46859C47.0208 3.77302 46.8369 4.04956 46.6051 4.28241C46.3733 4.51525 46.0981 4.69982 45.7953 4.82556C45.4925 4.9513 45.1681 5.01573 44.8405 5.01518H41.522V2.50826C41.522 2.17905 41.5864 1.85306 41.7116 1.5489C41.8369 1.24475 42.0204 0.968391 42.2518 0.735602C42.4831 0.502813 42.7578 0.318155 43.0601 0.192171C43.3624 0.0661861 43.6864 0.00134277 44.0136 0.00134277V0.00134277Z" fill="#258CF2"/>
<path d="M50.5308 28.5763C50.4028 28.582 50.2749 28.5614 50.1551 28.5159C50.0352 28.4703 49.9258 28.4006 49.8336 28.3111C49.7409 28.2199 49.6677 28.1107 49.6183 27.9901C49.5689 27.8695 49.5444 27.7401 49.5464 27.6097V7.85737C49.5456 7.72544 49.5709 7.59468 49.6208 7.47265C49.6706 7.35061 49.744 7.23974 49.8367 7.14645C49.9294 7.05316 50.0396 6.97931 50.1609 6.92916C50.2822 6.87902 50.4122 6.85358 50.5433 6.85433H53.9371C54.0683 6.85358 54.1982 6.87902 54.3195 6.92916C54.4408 6.97931 54.551 7.05316 54.6437 7.14645C54.7365 7.23974 54.8099 7.35061 54.8597 7.47265C54.9095 7.59468 54.9348 7.72544 54.9341 7.85737V9.56747C55.7649 8.53636 56.8245 7.7157 58.0278 7.17141C59.2311 6.62711 60.5445 6.37436 61.8625 6.43347C63.4003 6.40004 64.9169 6.79839 66.2421 7.58382C67.5101 8.3539 68.5276 9.47903 69.1702 10.8216C69.8885 12.3919 70.2377 14.1075 70.1909 15.8355V27.5718C70.1918 27.7026 70.1663 27.8322 70.116 27.9527C70.0656 28.0733 69.9915 28.1823 69.8981 28.2733C69.8086 28.3683 69.7003 28.4436 69.5803 28.4943C69.4603 28.545 69.3311 28.5701 69.2009 28.5679H65.538C65.4078 28.5701 65.2787 28.545 65.1586 28.4943C65.0386 28.4436 64.9304 28.3683 64.8408 28.2733C64.7475 28.1823 64.6734 28.0732 64.6231 27.9527C64.5727 27.8321 64.5472 27.7026 64.548 27.5718V16.0852C64.6282 14.7176 64.2115 13.3674 63.3754 12.2862C62.942 11.8139 62.4094 11.4448 61.8162 11.206C61.223 10.9672 60.5843 10.8646 59.9467 10.9058C59.3078 10.877 58.6701 10.9853 58.0758 11.2232C57.4816 11.4612 56.9444 11.8236 56.4999 12.2862C55.5976 13.3366 55.137 14.6991 55.2157 16.0852V27.5746C55.2166 27.7054 55.191 27.8349 55.1407 27.9555C55.0904 28.0761 55.0163 28.1851 54.9229 28.2761C54.8334 28.3711 54.7252 28.4464 54.6051 28.4971C54.4851 28.5479 54.3559 28.5729 54.2258 28.5707L50.5308 28.5763Z" fill="#121212"/>
<path d="M82.0692 28.9958C80.2477 29.0392 78.4412 28.6549 76.7931 27.8735C75.3258 27.1514 74.1023 26.0106 73.2752 24.5936C72.386 23.004 71.9066 21.2156 71.8808 19.3917C71.8808 18.9709 71.8404 18.4238 71.8404 17.7406C71.8404 17.0574 71.8404 16.4962 71.8808 16.0473C71.9084 14.2237 72.3876 12.4358 73.2752 10.8455C74.1023 9.42842 75.3258 8.2877 76.7931 7.5656C78.4412 6.78413 80.2477 6.39987 82.0692 6.44331C83.6118 6.40437 85.1477 6.66048 86.5953 7.19805C87.7337 7.62486 88.7833 8.26088 89.6907 9.07368C90.4322 9.74301 91.0465 10.5426 91.5033 11.4333C91.8685 12.1254 92.086 12.8865 92.1419 13.6681C92.1633 13.802 92.1497 13.9393 92.1025 14.0664C92.0554 14.1936 91.9762 14.3062 91.8728 14.3933C91.6735 14.573 91.4139 14.6697 91.1464 14.6641H87.4946C87.2616 14.6806 87.0311 14.6069 86.8504 14.4579C86.6696 14.2773 86.5227 14.0653 86.4168 13.8322C86.1275 12.8928 85.5538 12.0678 84.7756 11.4726C84.0003 10.9823 83.0958 10.7393 82.1808 10.7754C81.5684 10.7454 80.9567 10.8473 80.3866 11.0742C79.8165 11.3011 79.3011 11.6479 78.8748 12.0912C77.9563 13.2627 77.4915 14.7297 77.5669 16.2199C77.5141 17.1923 77.5141 18.1668 77.5669 19.1392C77.4862 20.6464 77.9508 22.132 78.8748 23.3212C79.305 23.7578 79.8216 24.0984 80.3912 24.321C80.9608 24.5436 81.5705 24.6432 82.1808 24.6132C83.1017 24.6561 84.0138 24.4153 84.7952 23.923C85.56 23.32 86.1242 22.4969 86.4126 21.5634C86.5201 21.3311 86.6668 21.1194 86.8462 20.9377C87.0269 20.7887 87.2574 20.7149 87.4904 20.7315H91.1436C91.4111 20.7258 91.6708 20.8226 91.87 21.0022C91.9734 21.0907 92.0524 21.2043 92.0995 21.3323C92.1466 21.4603 92.1602 21.5983 92.1391 21.7331C92.0953 22.3113 91.9627 22.8792 91.7459 23.4166C91.4708 24.1181 91.0893 24.7726 90.6151 25.3567C90.0611 26.0374 89.4115 26.6333 88.6868 27.1257C87.824 27.7079 86.8767 28.1518 85.8786 28.4416C84.6424 28.8137 83.3581 28.9985 82.0679 28.9901L82.0692 28.9958Z" fill="#121212"/>
<path d="M100.826 28.9887C99.4766 29.0072 98.1411 28.7145 96.9217 28.133C95.8232 27.6128 94.8735 26.8213 94.1609 25.8323C93.3102 24.6041 92.9729 23.0889 93.2217 21.613C93.4705 20.137 94.2855 18.8185 95.4911 17.9412C97.3417 16.6742 99.4697 15.8771 101.693 15.618L107.385 14.7861V13.9079C107.447 12.9249 107.135 11.9549 106.512 11.1948C106.108 10.8342 105.633 10.5624 105.118 10.3969C104.603 10.2315 104.06 10.1759 103.523 10.2338C102.674 10.192 101.831 10.3966 101.095 10.823C100.486 11.2142 100.002 11.7732 99.7006 12.4335C99.6077 12.6035 99.4698 12.7442 99.3021 12.84C99.1345 12.9359 98.9438 12.9831 98.7511 12.9764H95.4688C95.3435 12.9861 95.2176 12.9689 95.0994 12.9261C94.9812 12.8833 94.8733 12.8158 94.7828 12.7281C94.6241 12.5417 94.5423 12.3013 94.5541 12.0562C94.626 11.4833 94.8094 10.9303 95.0938 10.4288C95.5119 9.71218 96.0657 9.08497 96.7237 8.58267C97.5527 7.92949 98.4838 7.41938 99.4789 7.07319C100.801 6.629 102.189 6.41735 103.582 6.44751C105.082 6.41042 106.576 6.62958 108.003 7.09563C109.085 7.45224 110.075 8.04859 110.899 8.8408C111.61 9.55833 112.149 10.4296 112.476 11.3884C112.811 12.3822 112.979 13.4252 112.973 14.4747V27.562C112.974 27.6928 112.949 27.8223 112.898 27.9429C112.848 28.0634 112.774 28.1725 112.681 28.2634C112.591 28.3585 112.483 28.4338 112.363 28.4845C112.243 28.5352 112.113 28.5603 111.983 28.5581H108.619C108.482 28.5727 108.344 28.5565 108.214 28.5106C108.084 28.4648 107.966 28.3904 107.869 28.2929C107.691 28.1038 107.594 27.8518 107.6 27.5915V25.9515C107.2 26.5225 106.708 27.0227 106.145 27.4315C105.47 27.9247 104.72 28.3038 103.924 28.5538C102.922 28.8667 101.875 29.0135 100.826 28.9887ZM102.233 25.02C103.15 25.0342 104.056 24.8192 104.871 24.3943C105.68 23.9567 106.333 23.2767 106.741 22.4486C107.233 21.414 107.469 20.2744 107.427 19.128V18.2849L103.276 18.9512C101.986 19.0731 100.738 19.4756 99.6184 20.131C99.2663 20.3441 98.974 20.6437 98.7689 21.0018C98.5637 21.3599 98.4525 21.7646 98.4457 22.1778C98.4381 22.7561 98.6472 23.3161 99.0314 23.7462C99.4176 24.1856 99.9105 24.5167 100.462 24.7072C101.038 24.914 101.644 25.0216 102.255 25.0256L102.233 25.02Z" fill="#121212"/>
<path d="M123.357 28.9958C121.916 29.0261 120.48 28.8273 119.101 28.4066C118.062 28.0873 117.085 27.5925 116.211 26.9434C115.559 26.4566 114.997 25.8577 114.552 25.1744C114.245 24.7398 114.044 24.2385 113.966 23.7112C113.946 23.5764 113.96 23.4387 114.007 23.3109C114.054 23.1832 114.133 23.0694 114.235 22.9803C114.423 22.8086 114.667 22.7123 114.921 22.7095H118.198C118.297 22.7087 118.396 22.7248 118.491 22.7572C118.619 22.8136 118.734 22.8985 118.825 23.0056L119.963 23.9665C120.398 24.3211 120.881 24.6094 121.399 24.8223C122.177 25.098 123.002 25.2144 123.826 25.1648C124.649 25.1151 125.455 24.9004 126.194 24.5333C126.468 24.3755 126.704 24.1602 126.887 23.9019C127.07 23.6437 127.196 23.3487 127.255 23.0371C127.314 22.7256 127.305 22.4049 127.229 22.097C127.154 21.7891 127.013 21.5013 126.816 21.2534C126.319 20.786 125.715 20.4488 125.058 20.2714C123.859 19.8904 122.64 19.5775 121.406 19.3343C120.064 19.0474 118.764 18.5832 117.543 17.9538C116.605 17.4813 115.814 16.7593 115.256 15.8664C114.735 14.9401 114.48 13.8861 114.52 12.8225C114.561 11.7588 114.894 10.7274 115.484 9.84389C116.228 8.78289 117.239 7.93995 118.413 7.4015C119.917 6.71713 121.557 6.38841 123.208 6.44054C124.532 6.42227 125.851 6.62128 127.112 7.02974C128.1 7.34742 129.032 7.82094 129.873 8.43261C130.52 8.90288 131.088 9.47455 131.556 10.1259C131.885 10.5578 132.099 11.0673 132.177 11.6059C132.199 11.7387 132.187 11.8747 132.144 12.0021C132.101 12.1295 132.028 12.2444 131.931 12.3368C131.752 12.5112 131.512 12.6084 131.263 12.6075H128.195C128.065 12.6116 127.936 12.5832 127.82 12.5248C127.705 12.4668 127.595 12.3977 127.493 12.3185C127.187 12.038 126.854 11.7293 126.496 11.4403C126.091 11.1099 125.643 10.8362 125.165 10.6267C124.526 10.3674 123.838 10.2469 123.149 10.2732C122.302 10.2139 121.459 10.4491 120.763 10.9395C120.502 11.1446 120.291 11.4079 120.148 11.7087C120.004 12.0096 119.932 12.3398 119.937 12.6735C119.925 13.1152 120.064 13.5476 120.33 13.8996C120.77 14.364 121.324 14.7029 121.936 14.8816C123.128 15.2926 124.349 15.6138 125.588 15.8425C127.137 16.0685 128.633 16.5696 130.008 17.3226C130.979 17.8466 131.79 18.6276 132.353 19.5812C132.801 20.457 133.021 21.4331 132.992 22.4178C133.003 23.6297 132.62 24.812 131.901 25.7846C131.065 26.8625 129.943 27.6805 128.665 28.1442C126.964 28.7581 125.164 29.0469 123.357 28.9958Z" fill="#121212"/>
<path d="M135.188 28.5777C135.058 28.5799 134.929 28.5549 134.808 28.5042C134.688 28.4535 134.58 28.3782 134.491 28.2831C134.397 28.1922 134.323 28.0832 134.273 27.9626C134.223 27.842 134.197 27.7124 134.198 27.5817V1.00442C134.197 0.873651 134.223 0.744063 134.273 0.623496C134.323 0.50293 134.397 0.393893 134.491 0.302984C134.581 0.208984 134.689 0.134408 134.809 0.0837701C134.929 0.0331322 135.058 0.00748569 135.188 0.00838281H138.881C139.017 0.00194407 139.151 0.0249349 139.277 0.0757818C139.402 0.126629 139.515 0.204131 139.608 0.302984C139.786 0.492117 139.882 0.744106 139.877 1.00442V9.43843C140.638 8.5378 141.571 7.79985 142.621 7.2682C143.864 6.6714 145.231 6.38278 146.608 6.42648C148.158 6.39022 149.689 6.7885 151.028 7.57683C152.294 8.34906 153.311 9.4736 153.956 10.8146C154.685 12.3817 155.04 14.0987 154.993 15.8285V27.569C154.995 27.6995 154.971 27.8289 154.921 27.9495C154.872 28.0701 154.798 28.1793 154.706 28.2705C154.616 28.3655 154.508 28.4408 154.388 28.4916C154.268 28.5423 154.139 28.5673 154.009 28.5651H150.269C150.139 28.5673 150.01 28.5423 149.89 28.4916C149.77 28.4408 149.661 28.3655 149.572 28.2705C149.478 28.1796 149.404 28.0705 149.354 27.95C149.304 27.8294 149.278 27.6998 149.279 27.569V16.0852C149.362 14.7173 148.945 13.366 148.106 12.2862C147.675 11.8133 147.143 11.4438 146.551 11.2049C145.958 10.966 145.32 10.8638 144.683 10.9058C144.042 10.8768 143.401 10.9848 142.804 11.2227C142.207 11.4607 141.666 11.8231 141.218 12.2862C140.298 13.3285 139.822 14.693 139.894 16.0852V27.5747C139.899 27.835 139.803 28.087 139.625 28.2761C139.533 28.3759 139.42 28.4541 139.294 28.505C139.169 28.5559 139.033 28.5784 138.898 28.5707L135.188 28.5777Z" fill="#121212"/>
</g>
<defs>
<clipPath id="clip0">
<rect width="155" height="29" fill="white"/>
</clipPath>
</defs>
</svg>
