<svg width="18" height="5" viewBox="0 0 18 5" fill="none" xmlns="http://www.w3.org/2000/svg">
<path d="M1.65294 0.896851C1.32602 0.896851 1.00644 0.993732 0.734616 1.17524C0.462792 1.35675 0.25093 1.61474 0.125823 1.91659C0.000716192 2.21843 -0.0320175 2.55057 0.0317615 2.871C0.0955405 3.19143 0.252968 3.48577 0.484135 3.71679C0.715303 3.94781 1.00983 4.10514 1.33047 4.16888C1.65111 4.23261 1.98346 4.1999 2.28549 4.07487C2.58753 3.94985 2.84568 3.73812 3.02731 3.46647C3.20894 3.19482 3.30588 2.87545 3.30588 2.54873C3.30588 2.11063 3.13173 1.69046 2.82174 1.38068C2.51176 1.07089 2.09133 0.896851 1.65294 0.896851V0.896851ZM2.48151 2.54873C2.4807 2.73684 2.40543 2.91699 2.27215 3.04982C2.13887 3.18265 1.95841 3.25738 1.77017 3.25768H0.824365V2.54873C0.824365 2.36054 0.899173 2.18005 1.03233 2.04698C1.16549 1.9139 1.34609 1.83914 1.53441 1.83914H2.48135L2.48151 2.54873Z" fill="#258CF2"/>
<path d="M4.95661 4.17194C4.92596 4.17177 4.89661 4.15953 4.87493 4.13786C4.85326 4.1162 4.84101 4.08687 4.84084 4.05624V1.78247C4.84058 1.76737 4.84347 1.75237 4.84932 1.73844C4.85518 1.72451 4.86387 1.71195 4.87484 1.70156C4.88533 1.69072 4.89792 1.68211 4.91184 1.67627C4.92575 1.67043 4.94071 1.66747 4.9558 1.66758H5.35754C5.37321 1.66692 5.38884 1.66961 5.40339 1.67547C5.41794 1.68133 5.43107 1.69023 5.4419 1.70156C5.46225 1.72357 5.47343 1.75251 5.47316 1.78247V4.05689C5.47343 4.08685 5.46225 4.11579 5.4419 4.1378C5.43118 4.14928 5.41807 4.15827 5.4035 4.16414C5.38892 4.17001 5.37323 4.17262 5.35754 4.17178L4.95661 4.17194Z" fill="#121212"/>
<path d="M5.11138 0.876221H5.49725V1.1654C5.49725 1.20341 5.48975 1.24106 5.47518 1.27617C5.46061 1.31129 5.43925 1.34319 5.41233 1.37005C5.38541 1.39691 5.35345 1.4182 5.31829 1.4327C5.28312 1.44721 5.24544 1.45464 5.2074 1.45457H4.82202V1.1654C4.82202 1.12742 4.82951 1.08982 4.84405 1.05473C4.85859 1.01965 4.8799 0.987771 4.90677 0.960919C4.93364 0.934066 4.96554 0.912765 5.00065 0.898233C5.03576 0.8837 5.07338 0.876221 5.11138 0.876221V0.876221Z" fill="#258CF2"/>
<path d="M5.86824 4.17236C5.85337 4.17302 5.83853 4.17065 5.82461 4.16539C5.81069 4.16014 5.79799 4.1521 5.78728 4.14178C5.77651 4.13126 5.768 4.11866 5.76227 4.10475C5.75654 4.09084 5.75369 4.07591 5.75392 4.06087V1.78241C5.75383 1.76719 5.75677 1.75211 5.76256 1.73803C5.76834 1.72395 5.77687 1.71116 5.78764 1.7004C5.79841 1.68964 5.8112 1.68112 5.82529 1.67534C5.83937 1.66955 5.85447 1.66662 5.8697 1.66671H6.26382C6.27905 1.66662 6.29415 1.66955 6.30823 1.67534C6.32232 1.68112 6.33511 1.68964 6.34588 1.7004C6.35665 1.71116 6.36517 1.72395 6.37096 1.73803C6.37675 1.75211 6.37969 1.76719 6.3796 1.78241V1.97967C6.47609 1.86073 6.59914 1.76607 6.73888 1.70328C6.87862 1.6405 7.03115 1.61134 7.18421 1.61816C7.36279 1.6143 7.53891 1.66025 7.69282 1.75085C7.84007 1.83968 7.95824 1.96947 8.03286 2.12434C8.11627 2.30547 8.15683 2.50337 8.15139 2.70269V4.0565C8.1515 4.07158 8.14853 4.08653 8.14269 4.10044C8.13684 4.11435 8.12824 4.12692 8.11739 4.13741C8.10699 4.14838 8.09442 4.15706 8.08048 4.16291C8.06654 4.16876 8.05154 4.17165 8.03642 4.17139H7.61105C7.59593 4.17165 7.58093 4.16876 7.56699 4.16291C7.55305 4.15706 7.54048 4.14838 7.53008 4.13741C7.51924 4.12692 7.51064 4.11434 7.50479 4.10043C7.49895 4.08653 7.49598 4.07158 7.49608 4.0565V2.7315C7.50539 2.57375 7.45699 2.418 7.3599 2.29328C7.30957 2.23879 7.24771 2.19622 7.17883 2.16868C7.10994 2.14113 7.03577 2.1293 6.96172 2.13405C6.88752 2.13073 6.81346 2.14321 6.74446 2.17067C6.67545 2.19812 6.61306 2.23991 6.56144 2.29328C6.45665 2.41445 6.40317 2.57161 6.41231 2.7315V4.05682C6.4124 4.0719 6.40944 4.08685 6.40359 4.10076C6.39775 4.11466 6.38915 4.12724 6.3783 4.13773C6.36791 4.1487 6.35534 4.15738 6.3414 4.16324C6.32746 4.16909 6.31246 4.17197 6.29734 4.17172L5.86824 4.17236Z" fill="#121212"/>
<path d="M9.53078 4.2208C9.31925 4.22581 9.10946 4.18148 8.91806 4.09134C8.74766 4.00805 8.60558 3.87646 8.50952 3.713C8.40625 3.52964 8.35059 3.32335 8.34759 3.11296C8.34759 3.06442 8.3429 3.00131 8.3429 2.9225C8.3429 2.84369 8.3429 2.77896 8.34759 2.72718C8.35079 2.51682 8.40645 2.31058 8.50952 2.12714C8.60558 1.96368 8.74766 1.83209 8.91806 1.7488C9.10946 1.65866 9.31925 1.61433 9.53078 1.61934C9.70992 1.61485 9.88829 1.64439 10.0564 1.7064C10.1886 1.75564 10.3105 1.829 10.4159 1.92276C10.502 1.99997 10.5733 2.0922 10.6264 2.19494C10.6688 2.27477 10.694 2.36258 10.7005 2.45273C10.703 2.46818 10.7014 2.48402 10.696 2.49868C10.6905 2.51335 10.6813 2.52634 10.6693 2.53639C10.6461 2.55711 10.616 2.56827 10.5849 2.56762H10.1608C10.1338 2.56953 10.107 2.56102 10.086 2.54383C10.065 2.523 10.048 2.49855 10.0357 2.47166C10.0021 2.3633 9.93544 2.26813 9.84508 2.19947C9.75504 2.14293 9.65 2.11489 9.54374 2.11905C9.47262 2.11559 9.40159 2.12735 9.33538 2.15352C9.26917 2.1797 9.20931 2.2197 9.15981 2.27084C9.05314 2.40596 8.99917 2.57519 9.00793 2.74708C9.00179 2.85925 9.00179 2.97167 9.00793 3.08383C8.99855 3.25769 9.0525 3.42906 9.15981 3.56623C9.20977 3.61659 9.26977 3.65589 9.33591 3.68156C9.40205 3.70724 9.47286 3.71872 9.54374 3.71527C9.65069 3.72021 9.75661 3.69243 9.84735 3.63565C9.93617 3.56609 10.0017 3.47115 10.0352 3.36346C10.0477 3.33667 10.0647 3.31225 10.0855 3.29129C10.1065 3.27411 10.1333 3.26559 10.1604 3.2675H10.5846C10.6157 3.26685 10.6458 3.27801 10.669 3.29873C10.681 3.30894 10.6901 3.32205 10.6956 3.33681C10.7011 3.35157 10.7027 3.36749 10.7002 3.38304C10.6951 3.44974 10.6797 3.51525 10.6545 3.57723C10.6226 3.65816 10.5783 3.73365 10.5232 3.80103C10.4589 3.87955 10.3834 3.94829 10.2993 4.00509C10.1991 4.07224 10.0891 4.12345 9.97316 4.15688C9.82961 4.1998 9.68046 4.22112 9.53062 4.22015L9.53078 4.2208Z" fill="#121212"/>
<path d="M11.709 4.21989C11.5523 4.22202 11.3972 4.18825 11.2556 4.12118C11.1281 4.06117 11.0178 3.96987 10.935 3.85579C10.8362 3.71412 10.797 3.53934 10.8259 3.36909C10.8548 3.19883 10.9495 3.04673 11.0895 2.94554C11.3044 2.79939 11.5515 2.70745 11.8097 2.67756L12.4707 2.5816V2.4803C12.4779 2.3669 12.4417 2.25502 12.3693 2.16733C12.3224 2.12573 12.2672 2.09439 12.2075 2.0753C12.1477 2.05621 12.0846 2.0498 12.0222 2.05649C11.9236 2.05166 11.8258 2.07526 11.7403 2.12445C11.6696 2.16957 11.6134 2.23406 11.5783 2.31022C11.5675 2.32983 11.5515 2.34606 11.5321 2.35711C11.5126 2.36817 11.4904 2.37362 11.4681 2.37285H11.0869C11.0723 2.37396 11.0577 2.37198 11.044 2.36704C11.0303 2.36211 11.0177 2.35432 11.0072 2.34421C10.9888 2.32271 10.9793 2.29497 10.9807 2.26669C10.989 2.20062 11.0103 2.13683 11.0433 2.07898C11.0919 1.99631 11.1562 1.92396 11.2326 1.86602C11.3289 1.79068 11.437 1.73183 11.5526 1.6919C11.7061 1.64066 11.8673 1.61625 12.0291 1.61973C12.2032 1.61545 12.3768 1.64073 12.5424 1.69449C12.6682 1.73562 12.7831 1.80441 12.8788 1.8958C12.9614 1.97856 13.024 2.07907 13.0619 2.18967C13.1008 2.3043 13.1204 2.42462 13.1197 2.54568V4.05532C13.1198 4.0704 13.1168 4.08534 13.111 4.09925C13.1052 4.11316 13.0965 4.12574 13.0857 4.13623C13.0753 4.14719 13.0627 4.15588 13.0488 4.16173C13.0349 4.16758 13.0199 4.17047 13.0047 4.17021H12.614C12.5981 4.1719 12.5821 4.17003 12.567 4.16474C12.5519 4.15945 12.5382 4.15087 12.5269 4.13963C12.5062 4.11781 12.495 4.08874 12.4956 4.05871V3.86954C12.4492 3.93541 12.3921 3.9931 12.3268 4.04027C12.2484 4.09715 12.1613 4.14088 12.0688 4.16973C11.9524 4.20581 11.8309 4.22275 11.709 4.21989V4.21989ZM11.8724 3.76209C11.9789 3.76373 12.0842 3.73893 12.1788 3.68992C12.2727 3.63943 12.3486 3.56099 12.3959 3.46547C12.4531 3.34614 12.4805 3.21468 12.4756 3.08244V2.98519L11.9935 3.06205C11.8437 3.0761 11.6988 3.12254 11.5688 3.19814C11.5279 3.22272 11.494 3.25728 11.4701 3.29859C11.4463 3.33989 11.4334 3.38657 11.4326 3.43424C11.4317 3.50095 11.456 3.56554 11.5006 3.61516C11.5455 3.66584 11.6027 3.70404 11.6667 3.72601C11.7336 3.74986 11.804 3.76228 11.875 3.76274L11.8724 3.76209Z" fill="#121212"/>
<path d="M14.3255 4.22081C14.1582 4.22431 13.9914 4.20137 13.8313 4.15284C13.7106 4.11601 13.5971 4.05894 13.4956 3.98406C13.4199 3.92791 13.3546 3.85883 13.3029 3.78C13.2673 3.72987 13.244 3.67204 13.2349 3.61122C13.2326 3.59568 13.2342 3.57979 13.2397 3.56505C13.2452 3.55031 13.2543 3.53719 13.2662 3.52691C13.288 3.50711 13.3163 3.496 13.3458 3.49568H13.7264C13.7379 3.49558 13.7494 3.49744 13.7604 3.50118C13.7753 3.50768 13.7886 3.51747 13.7992 3.52983L13.9314 3.64067C13.9818 3.68157 14.038 3.71483 14.0981 3.73939C14.1885 3.77119 14.2843 3.78462 14.3799 3.77889C14.4756 3.77317 14.5691 3.7484 14.655 3.70605C14.6868 3.68785 14.7142 3.66301 14.7355 3.63322C14.7567 3.60343 14.7713 3.5694 14.7781 3.53347C14.785 3.49753 14.784 3.46054 14.7752 3.42502C14.7664 3.38951 14.75 3.35631 14.7272 3.32771C14.6695 3.2738 14.5994 3.2349 14.523 3.21443C14.3838 3.17048 14.2422 3.13439 14.0989 3.10634C13.943 3.07324 13.7921 3.0197 13.6503 2.9471C13.5414 2.89259 13.4495 2.80931 13.3847 2.70631C13.3242 2.59947 13.2946 2.47789 13.2993 2.35519C13.304 2.2325 13.3427 2.11353 13.4113 2.01161C13.4976 1.88922 13.6149 1.79199 13.7513 1.72987C13.926 1.65093 14.1165 1.61301 14.3082 1.61903C14.462 1.61692 14.6151 1.63987 14.7615 1.68699C14.8763 1.72364 14.9845 1.77826 15.0822 1.84881C15.1573 1.90306 15.2233 1.969 15.2776 2.04413C15.3159 2.09395 15.3407 2.15272 15.3498 2.21486C15.3523 2.23018 15.3509 2.24587 15.346 2.26056C15.341 2.27525 15.3325 2.28851 15.3212 2.29917C15.3004 2.31929 15.2725 2.3305 15.2436 2.3304H14.8874C14.8723 2.33087 14.8573 2.32759 14.8438 2.32085C14.8304 2.31416 14.8176 2.30619 14.8058 2.29706C14.7703 2.2647 14.7316 2.2291 14.69 2.19576C14.643 2.15764 14.591 2.12607 14.5355 2.1019C14.4612 2.072 14.3814 2.0581 14.3014 2.06113C14.2029 2.05429 14.1051 2.08142 14.0243 2.13799C13.9939 2.16165 13.9694 2.19202 13.9528 2.22672C13.9361 2.26143 13.9277 2.29952 13.9283 2.338C13.927 2.38896 13.9431 2.43884 13.9739 2.47944C14.025 2.53301 14.0894 2.5721 14.1605 2.59271C14.2989 2.64012 14.4406 2.67717 14.5846 2.70356C14.7644 2.72962 14.9382 2.78743 15.0979 2.87428C15.2107 2.93474 15.3049 3.02482 15.3702 3.13482C15.4223 3.23585 15.4478 3.34844 15.4444 3.46202C15.4457 3.60182 15.4012 3.73821 15.3178 3.8504C15.2207 3.97473 15.0904 4.06909 14.9419 4.12258C14.7444 4.19339 14.5353 4.22671 14.3255 4.22081V4.22081Z" fill="#121212"/>
<path d="M15.6996 4.17259C15.6845 4.17285 15.6694 4.16996 15.6555 4.16411C15.6416 4.15826 15.629 4.14957 15.6186 4.13861C15.6078 4.12812 15.5991 4.11554 15.5933 4.10163C15.5875 4.08773 15.5845 4.07278 15.5846 4.05769V0.991969C15.5845 0.976885 15.5875 0.961937 15.5933 0.94803C15.5991 0.934122 15.6078 0.921544 15.6186 0.911058C15.6291 0.900215 15.6417 0.891612 15.6556 0.885771C15.6695 0.87993 15.6845 0.876972 15.6996 0.877075H16.1285C16.1442 0.876333 16.1598 0.878985 16.1744 0.88485C16.189 0.890715 16.2021 0.899655 16.2129 0.911058C16.2335 0.932875 16.2448 0.961942 16.2441 0.991969V1.96485C16.3325 1.86096 16.4409 1.77583 16.5628 1.71451C16.7071 1.64566 16.8659 1.61237 17.0257 1.61741C17.2058 1.61323 17.3836 1.65917 17.539 1.75011C17.6861 1.83918 17.8042 1.9689 17.8791 2.12359C17.9638 2.30436 18.0051 2.50241 17.9996 2.70195V4.05624C17.9998 4.07128 17.9969 4.08621 17.9912 4.10012C17.9855 4.11403 17.977 4.12663 17.9662 4.13715C17.9558 4.14812 17.9432 4.1568 17.9293 4.16265C17.9154 4.1685 17.9004 4.17139 17.8852 4.17113H17.451C17.4358 4.17139 17.4208 4.1685 17.4069 4.16265C17.393 4.1568 17.3804 4.14812 17.37 4.13715C17.3591 4.12666 17.3505 4.11408 17.3447 4.10018C17.3388 4.08627 17.3359 4.07132 17.336 4.05624V2.73156C17.3457 2.57377 17.2972 2.4179 17.1998 2.29334C17.1497 2.23879 17.0879 2.19616 17.0191 2.16861C16.9503 2.14105 16.8762 2.12926 16.8023 2.13411C16.7278 2.13076 16.6534 2.14322 16.584 2.17067C16.5147 2.19811 16.4519 2.23992 16.3999 2.29334C16.293 2.41356 16.2378 2.57097 16.2461 2.73156V4.05689C16.2467 4.08691 16.2355 4.11598 16.2148 4.1378C16.2041 4.14931 16.191 4.15833 16.1764 4.1642C16.1618 4.17008 16.1461 4.17267 16.1304 4.17178L15.6996 4.17259Z" fill="#121212"/>
</svg>
