<svg width="77" height="15" viewBox="0 0 77 15" fill="none" xmlns="http://www.w3.org/2000/svg">
<path d="M7.02732 0.0866699C5.63745 0.0866699 4.27879 0.498552 3.12315 1.27023C1.96752 2.04191 1.06681 3.13872 0.534926 4.42198C0.00304482 5.70523 -0.136119 7.11729 0.135031 8.47958C0.406182 9.84188 1.07547 11.0932 2.05826 12.0754C3.04104 13.0575 4.29319 13.7264 5.65636 13.9974C7.01952 14.2684 8.43248 14.1293 9.71656 13.5977C11.0006 13.0662 12.0981 12.1661 12.8703 11.0112C13.6425 9.85627 14.0546 8.49848 14.0546 7.1095C14.0546 5.24693 13.3143 3.46064 11.9964 2.14361C10.6785 0.826573 8.89108 0.0866699 7.02732 0.0866699ZM10.5499 7.1095C10.5465 7.90923 10.2265 8.6751 9.65985 9.23982C9.09321 9.80455 8.32598 10.1222 7.52573 10.1235H3.50471V7.1095C3.50471 6.3094 3.82275 5.54208 4.38887 4.97633C4.95498 4.41057 5.7228 4.09274 6.5234 4.09274H10.5492L10.5499 7.1095Z" fill="#258CF2"/>
<path d="M21.073 14.0113C20.9426 14.0105 20.8179 13.9585 20.7257 13.8664C20.6336 13.7743 20.5815 13.6496 20.5808 13.5194V3.85264C20.5797 3.78842 20.5919 3.72467 20.6168 3.66545C20.6417 3.60623 20.6787 3.55284 20.7253 3.50866C20.7699 3.46256 20.8234 3.42599 20.8826 3.40115C20.9418 3.37632 21.0054 3.36374 21.0695 3.36418H22.7775C22.8441 3.36139 22.9106 3.37283 22.9724 3.39774C23.0343 3.42265 23.0901 3.46047 23.1361 3.50866C23.2227 3.60222 23.2702 3.72526 23.269 3.85264V13.5221C23.2702 13.6495 23.2227 13.7725 23.1361 13.8661C23.0906 13.9149 23.0348 13.9531 22.9729 13.9781C22.9109 14.0031 22.8442 14.0141 22.7775 14.0106L21.073 14.0113Z" fill="#121212"/>
<path d="M21.7306 0H23.371V1.22941C23.371 1.39103 23.3392 1.55107 23.2772 1.70036C23.2153 1.84965 23.1245 1.98527 23.01 2.09946C22.8955 2.21365 22.7597 2.30416 22.6102 2.36583C22.4607 2.42749 22.3005 2.45909 22.1388 2.45882H20.5004V1.22941C20.5004 1.06796 20.5322 0.908092 20.594 0.758934C20.6558 0.609775 20.7464 0.474246 20.8607 0.360085C20.9749 0.245924 21.1105 0.155367 21.2598 0.0935831C21.409 0.0317996 21.569 0 21.7306 0V0Z" fill="#258CF2"/>
<path d="M24.9481 14.0132C24.8849 14.016 24.8218 14.006 24.7626 13.9836C24.7034 13.9613 24.6494 13.9271 24.6039 13.8832C24.5581 13.8385 24.522 13.7849 24.4976 13.7258C24.4732 13.6667 24.4611 13.6032 24.4621 13.5392V3.85257C24.4617 3.78787 24.4742 3.72374 24.4988 3.66389C24.5234 3.60405 24.5597 3.54968 24.6054 3.50393C24.6512 3.45818 24.7056 3.42196 24.7655 3.39737C24.8254 3.37278 24.8896 3.3603 24.9543 3.36067H26.6299C26.6946 3.3603 26.7588 3.37278 26.8187 3.39737C26.8786 3.42196 26.933 3.45818 26.9788 3.50393C27.0245 3.54968 27.0608 3.60405 27.0854 3.66389C27.11 3.72374 27.1225 3.78787 27.1221 3.85257V4.69121C27.5323 4.18555 28.0555 3.78309 28.6496 3.51617C29.2437 3.24924 29.8921 3.12529 30.5428 3.15427C31.3021 3.13788 32.0508 3.33323 32.7051 3.71841C33.3312 4.09607 33.8335 4.64784 34.1508 5.30625C34.5054 6.07634 34.6778 6.91767 34.6547 7.76507V13.5207C34.6552 13.5848 34.6426 13.6483 34.6177 13.7075C34.5929 13.7666 34.5563 13.8201 34.5102 13.8646C34.466 13.9113 34.4125 13.9482 34.3533 13.9731C34.294 13.9979 34.2302 14.0102 34.166 14.0091H32.3575C32.2932 14.0102 32.2294 13.9979 32.1702 13.9731C32.1109 13.9482 32.0575 13.9113 32.0133 13.8646C31.9672 13.82 31.9306 13.7666 31.9058 13.7074C31.8809 13.6483 31.8683 13.5848 31.8687 13.5207V7.88753C31.9083 7.21689 31.7026 6.55473 31.2898 6.0245C31.0758 5.79285 30.8128 5.61187 30.5199 5.49475C30.2271 5.37763 29.9118 5.32734 29.597 5.34753C29.2815 5.33343 28.9666 5.3865 28.6733 5.50321C28.3799 5.61992 28.1147 5.7976 27.8952 6.0245C27.4497 6.53961 27.2223 7.20779 27.2612 7.88753V13.522C27.2616 13.5861 27.249 13.6497 27.2241 13.7088C27.1993 13.7679 27.1627 13.8214 27.1166 13.866C27.0724 13.9126 27.019 13.9496 26.9597 13.9744C26.9005 13.9993 26.8367 14.0116 26.7724 14.0105L24.9481 14.0132Z" fill="#121212"/>
<path d="M40.5192 14.2191C39.6199 14.2404 38.728 14.052 37.9142 13.6687C37.1898 13.3146 36.5858 12.7552 36.1774 12.0602C35.7384 11.2807 35.5017 10.4037 35.489 9.50923C35.489 9.30284 35.469 9.03453 35.469 8.69949C35.469 8.36444 35.469 8.08926 35.489 7.8691C35.5026 6.97479 35.7392 6.09798 36.1774 5.3181C36.5858 4.62316 37.1898 4.06374 37.9142 3.70962C38.728 3.32638 39.6199 3.13794 40.5192 3.15924C41.2808 3.14014 42.0391 3.26574 42.7538 3.52937C43.3158 3.73868 43.8341 4.05059 44.2821 4.44919C44.6482 4.77744 44.9514 5.16955 45.177 5.60636C45.3573 5.94575 45.4647 6.31903 45.4923 6.7023C45.5028 6.76801 45.4961 6.83533 45.4728 6.89767C45.4495 6.96001 45.4105 7.01525 45.3594 7.05798C45.261 7.14607 45.1328 7.19353 45.0008 7.19076H43.1978C43.0828 7.19888 42.969 7.16269 42.8798 7.08963C42.7905 7.00106 42.718 6.89712 42.6657 6.7828C42.5229 6.3221 42.2396 5.91752 41.8554 5.62562C41.4726 5.38521 41.026 5.26603 40.5743 5.2837C40.2719 5.26901 39.9699 5.31898 39.6884 5.43027C39.407 5.54155 39.1525 5.71159 38.942 5.92902C38.4885 6.50349 38.2591 7.22294 38.2963 7.95373C38.2702 8.43059 38.2702 8.90853 38.2963 9.3854C38.2564 10.1245 38.4858 10.8531 38.942 11.4362C39.1544 11.6504 39.4095 11.8174 39.6907 11.9266C39.9719 12.0358 40.2729 12.0846 40.5743 12.0699C41.029 12.0909 41.4792 11.9728 41.865 11.7314C42.2426 11.4357 42.5212 11.032 42.6636 10.5742C42.7166 10.4603 42.7891 10.3565 42.8777 10.2674C42.9669 10.1943 43.0807 10.1581 43.1957 10.1662H44.9994C45.1314 10.1635 45.2597 10.2109 45.358 10.299C45.4091 10.3424 45.4481 10.3981 45.4713 10.4609C45.4946 10.5237 45.5013 10.5913 45.4909 10.6575C45.4693 10.941 45.4038 11.2195 45.2968 11.483C45.1609 11.8271 44.9726 12.148 44.7385 12.4345C44.4649 12.7683 44.1442 13.0606 43.7864 13.302C43.3604 13.5875 42.8927 13.8052 42.3999 13.9473C41.7896 14.1298 41.1555 14.2205 40.5185 14.2163L40.5192 14.2191Z" fill="#121212"/>
<path d="M49.7797 14.2155C49.1136 14.2246 48.4542 14.081 47.8522 13.7958C47.3099 13.5407 46.8409 13.1526 46.4891 12.6676C46.0691 12.0653 45.9026 11.3222 46.0254 10.5984C46.1483 9.87458 46.5506 9.22794 47.1459 8.79772C48.0595 8.1764 49.1102 7.7855 50.2079 7.65843L53.018 7.25047V6.8198C53.0486 6.3377 52.8945 5.86203 52.5871 5.48926C52.3874 5.3124 52.153 5.17913 51.8989 5.09798C51.6447 5.01683 51.3764 4.98959 51.1111 5.01799C50.6922 4.99749 50.2761 5.09779 49.9126 5.30694C49.6121 5.49876 49.3731 5.77293 49.2242 6.09674C49.1783 6.18008 49.1102 6.24909 49.0275 6.29609C48.9447 6.34309 48.8505 6.36624 48.7554 6.36298H47.1349C47.073 6.3677 47.0109 6.35929 46.9525 6.3383C46.8941 6.31732 46.8408 6.28423 46.7962 6.24121C46.7178 6.1498 46.6774 6.0319 46.6833 5.91167C46.7187 5.63075 46.8093 5.35956 46.9497 5.11362C47.1562 4.76217 47.4296 4.45458 47.7544 4.20825C48.1637 3.88793 48.6234 3.63777 49.1147 3.46799C49.7674 3.25016 50.4528 3.14636 51.1407 3.16116C51.8809 3.14297 52.6188 3.25044 53.323 3.479C53.8576 3.65388 54.3462 3.94633 54.7528 4.33484C55.104 4.68672 55.3703 5.114 55.5314 5.5842C55.697 6.07154 55.7801 6.58308 55.7772 7.09774V13.5158C55.7776 13.58 55.765 13.6435 55.7402 13.7026C55.7153 13.7617 55.6787 13.8152 55.6326 13.8598C55.5884 13.9064 55.535 13.9434 55.4757 13.9682C55.4165 13.9931 55.3527 14.0054 55.2884 14.0043H53.6273C53.5598 14.0115 53.4915 14.0035 53.4274 13.981C53.3634 13.9585 53.3051 13.9221 53.2569 13.8743C53.1691 13.7815 53.1214 13.6579 53.1241 13.5303V12.726C52.9266 13.0061 52.684 13.2513 52.406 13.4519C52.0729 13.6937 51.7025 13.8796 51.3094 14.0022C50.8144 14.1556 50.2978 14.2277 49.7797 14.2155ZM50.4744 12.2692C50.9272 12.2762 51.3748 12.1708 51.7768 11.9624C52.1762 11.7478 52.4988 11.4143 52.7 11.0082C52.9433 10.5008 53.0595 9.94197 53.0387 9.37974V8.96627L50.9893 9.29306C50.3525 9.35281 49.7364 9.55023 49.1836 9.87164C49.0098 9.97611 48.8655 10.1231 48.7642 10.2987C48.6629 10.4743 48.608 10.6727 48.6046 10.8754C48.6008 11.159 48.7041 11.4336 48.8938 11.6446C49.0845 11.86 49.3278 12.0224 49.6001 12.1158C49.8843 12.2172 50.1836 12.27 50.4854 12.272L50.4744 12.2692Z" fill="#121212"/>
<path d="M60.9039 14.219C60.1927 14.2339 59.4836 14.1364 58.8029 13.9301C58.2899 13.7735 57.8073 13.5308 57.3758 13.2125C57.0537 12.9738 56.7764 12.6801 56.5566 12.345C56.4051 12.1318 56.306 11.886 56.2674 11.6274C56.2575 11.5613 56.2645 11.4938 56.2878 11.4311C56.311 11.3685 56.3497 11.3127 56.4003 11.269C56.4931 11.1848 56.6136 11.1375 56.739 11.1362H58.3568C58.4059 11.1358 58.4548 11.1437 58.5013 11.1596C58.5649 11.1872 58.6214 11.2289 58.6665 11.2814L59.2283 11.7526C59.4428 11.9265 59.6817 12.0679 59.9374 12.1723C60.3215 12.3075 60.7288 12.3646 61.1354 12.3403C61.5419 12.3159 61.9395 12.2106 62.3048 12.0306C62.4398 11.9532 62.5565 11.8476 62.6469 11.7209C62.7372 11.5943 62.7991 11.4496 62.8283 11.2968C62.8574 11.1441 62.8532 10.9868 62.8158 10.8358C62.7785 10.6848 62.7089 10.5437 62.6118 10.4221C62.3664 10.1929 62.0682 10.0275 61.7438 9.94051C61.1519 9.75365 60.5499 9.60022 59.9408 9.48094C59.2779 9.34024 58.6365 9.11261 58.0332 8.80397C57.5704 8.57222 57.1799 8.21817 56.9042 7.78027C56.6468 7.32602 56.5211 6.80915 56.541 6.28752C56.561 5.76589 56.7258 5.2601 57.0171 4.8268C57.3842 4.30648 57.8831 3.8931 58.4628 3.62904C59.2056 3.29342 60.0154 3.13222 60.8302 3.15778C61.4842 3.14882 62.1352 3.24642 62.7578 3.44673C63.2457 3.60252 63.7058 3.83473 64.1208 4.1347C64.4405 4.36532 64.721 4.64568 64.9518 4.96508C65.1144 5.17689 65.2201 5.42675 65.2588 5.6909C65.2692 5.75604 65.2636 5.82274 65.2423 5.88521C65.2211 5.94767 65.1849 6.00401 65.1369 6.04933C65.0486 6.13489 64.9302 6.18254 64.8072 6.18211H63.2927C63.2285 6.18411 63.1649 6.17016 63.1075 6.14152C63.0504 6.11308 62.9963 6.07921 62.9457 6.04039C62.795 5.90279 62.6304 5.75144 62.4535 5.60972C62.2536 5.44766 62.0327 5.31343 61.7968 5.21069C61.4808 5.08354 61.1416 5.02446 60.8013 5.03732C60.3828 5.00826 59.967 5.12361 59.6234 5.36411C59.4943 5.46468 59.3902 5.5938 59.3193 5.74134C59.2485 5.88888 59.2129 6.05082 59.2152 6.21444C59.2097 6.43109 59.2782 6.64315 59.4093 6.81573C59.6264 7.0435 59.9001 7.20967 60.2024 7.29731C60.7909 7.49886 61.3935 7.65638 62.0053 7.76857C62.7701 7.87938 63.509 8.12514 64.1876 8.49439C64.6673 8.75139 65.0676 9.13437 65.3455 9.60202C65.5668 10.0315 65.6753 10.5102 65.6608 10.9931C65.6664 11.5874 65.4774 12.1673 65.1225 12.6442C64.7097 13.1728 64.1558 13.574 63.5247 13.8014C62.6847 14.1025 61.7959 14.2441 60.9039 14.219Z" fill="#121212"/>
<path d="M66.745 14.014C66.6808 14.0151 66.617 14.0028 66.5577 13.978C66.4984 13.9531 66.445 13.9162 66.4008 13.8695C66.3547 13.825 66.3181 13.7715 66.2932 13.7124C66.2684 13.6532 66.2558 13.5897 66.2562 13.5256V0.49191C66.2558 0.427781 66.2684 0.364231 66.2932 0.305104C66.3181 0.245978 66.3547 0.192505 66.4008 0.147923C66.4454 0.101825 66.4989 0.0652523 66.5581 0.0404192C66.6173 0.0155861 66.6808 0.00300887 66.745 0.00344883H68.5686C68.6353 0.000291232 68.7019 0.0115661 68.7638 0.0365017C68.8257 0.0614373 68.8814 0.0994449 68.9273 0.147923C69.0151 0.240675 69.0628 0.364252 69.0601 0.49191V4.628C69.436 4.18633 69.8967 3.82443 70.4149 3.56371C71.0286 3.27103 71.7035 3.12949 72.3831 3.15092C73.1488 3.13314 73.9044 3.32846 74.5654 3.71506C75.1906 4.09377 75.6927 4.64525 76.0111 5.3029C76.3712 6.0714 76.5466 6.91342 76.5232 7.76172V13.5194C76.5242 13.5833 76.5121 13.6468 76.4877 13.7059C76.4633 13.7651 76.4272 13.8186 76.3814 13.8633C76.3372 13.91 76.2838 13.9469 76.2245 13.9718C76.1653 13.9966 76.1015 14.0089 76.0372 14.0078H74.1909C74.1266 14.0089 74.0628 13.9966 74.0036 13.9718C73.9443 13.9469 73.8909 13.91 73.8467 13.8633C73.8005 13.8188 73.764 13.7653 73.7391 13.7062C73.7143 13.647 73.7017 13.5835 73.7021 13.5194V7.88762C73.7432 7.21679 73.5373 6.55411 73.1232 6.02459C72.91 5.79265 72.6476 5.61143 72.3551 5.49427C72.0626 5.37711 71.7475 5.327 71.4331 5.34762C71.1163 5.33339 70.8001 5.38635 70.5052 5.50303C70.2104 5.61971 69.9436 5.79746 69.7224 6.02459C69.2681 6.53569 69.0332 7.20488 69.0684 7.88762V13.5221C69.0711 13.6498 69.0234 13.7733 68.9355 13.8661C68.8901 13.9151 68.8344 13.9534 68.7724 13.9784C68.7104 14.0033 68.6436 14.0143 68.5769 14.0106L66.745 14.014Z" fill="#121212"/>
</svg>
