<svg width="114" height="54" viewBox="0 0 114 54" fill="none" xmlns="http://www.w3.org/2000/svg">
<rect width="14.4545" height="14.4545" fill="#CDD6D3"/>
<rect y="19.2727" width="14.4545" height="14.4545" fill="#CDD6D3"/>
<rect y="38.5455" width="14.4545" height="14.4545" fill="#2F3665"/>
<rect x="19.2725" width="14.4545" height="14.4545" fill="#CDD6D3"/>
<rect x="19.2725" y="19.2727" width="14.4545" height="14.4545" fill="#2F3665"/>
<rect x="19.2725" y="38.5455" width="14.4545" height="14.4545" fill="#CDD6D3"/>
<rect x="38.5459" width="14.4545" height="14.4545" fill="#CDD6D3"/>
<rect x="38.5459" y="19.2727" width="14.4545" height="14.4545" fill="#2F3665"/>
<rect x="38.5459" y="38.5455" width="14.4545" height="14.4545" fill="#CDD6D3"/>
<path d="M65.5322 7.73828C65.3408 7.70638 65.1335 7.69043 64.9102 7.69043C64.0807 7.69043 63.5179 8.04362 63.2217 8.75V14H61.957V6.60352H63.1875L63.208 7.45801C63.6227 6.7972 64.2106 6.4668 64.9717 6.4668C65.2178 6.4668 65.4046 6.4987 65.5322 6.5625V7.73828ZM66.2295 10.2334C66.2295 9.50879 66.3708 8.8571 66.6533 8.27832C66.9404 7.69954 67.3369 7.25293 67.8428 6.93848C68.3532 6.62402 68.9342 6.4668 69.5859 6.4668C70.5931 6.4668 71.4066 6.81543 72.0264 7.5127C72.6507 8.20996 72.9629 9.13737 72.9629 10.2949V10.3838C72.9629 11.1038 72.8239 11.751 72.5459 12.3252C72.2725 12.8949 71.8783 13.3392 71.3633 13.6582C70.8529 13.9772 70.265 14.1367 69.5996 14.1367C68.597 14.1367 67.7835 13.7881 67.1592 13.0908C66.5394 12.3936 66.2295 11.4707 66.2295 10.3223V10.2334ZM67.501 10.3838C67.501 11.2041 67.6901 11.8626 68.0684 12.3594C68.4512 12.8561 68.9616 13.1045 69.5996 13.1045C70.2422 13.1045 70.7526 12.8538 71.1309 12.3525C71.5091 11.8467 71.6982 11.1403 71.6982 10.2334C71.6982 9.4222 71.5046 8.76595 71.1172 8.26465C70.7344 7.75879 70.224 7.50586 69.5859 7.50586C68.9616 7.50586 68.458 7.75423 68.0752 8.25098C67.6924 8.74772 67.501 9.45866 67.501 10.3838ZM78.8555 12.0381C78.8555 11.6963 78.7256 11.432 78.4658 11.2451C78.2106 11.0537 77.7617 10.8896 77.1191 10.7529C76.4811 10.6162 75.973 10.4521 75.5947 10.2607C75.221 10.0693 74.943 9.84147 74.7607 9.57715C74.583 9.31283 74.4941 8.99837 74.4941 8.63379C74.4941 8.02767 74.7493 7.51497 75.2598 7.0957C75.7747 6.67643 76.431 6.4668 77.2285 6.4668C78.0671 6.4668 78.7461 6.68327 79.2656 7.11621C79.7897 7.54915 80.0518 8.10286 80.0518 8.77734H78.7803C78.7803 8.43099 78.6322 8.13249 78.3359 7.88184C78.0443 7.63118 77.6751 7.50586 77.2285 7.50586C76.7682 7.50586 76.4082 7.60612 76.1484 7.80664C75.8887 8.00716 75.7588 8.26921 75.7588 8.59277C75.7588 8.89811 75.8796 9.12826 76.1211 9.2832C76.3626 9.43815 76.7979 9.58626 77.4268 9.72754C78.0602 9.86882 78.5729 10.0374 78.9648 10.2334C79.3568 10.4294 79.6462 10.6663 79.833 10.9443C80.0244 11.2178 80.1201 11.5527 80.1201 11.9492C80.1201 12.61 79.8558 13.141 79.3271 13.542C78.7985 13.9385 78.1126 14.1367 77.2695 14.1367C76.6771 14.1367 76.153 14.0319 75.6973 13.8223C75.2415 13.6126 74.8838 13.321 74.624 12.9473C74.3688 12.569 74.2412 12.1611 74.2412 11.7236H75.5059C75.5286 12.1475 75.6973 12.4847 76.0117 12.7354C76.3307 12.9814 76.75 13.1045 77.2695 13.1045C77.748 13.1045 78.1309 13.0088 78.418 12.8174C78.7096 12.6214 78.8555 12.3617 78.8555 12.0381ZM86.334 14C86.2611 13.8542 86.2018 13.5944 86.1562 13.2207C85.5684 13.8314 84.8665 14.1367 84.0508 14.1367C83.3216 14.1367 82.7223 13.9316 82.2529 13.5215C81.7881 13.1068 81.5557 12.5827 81.5557 11.9492C81.5557 11.179 81.8473 10.582 82.4307 10.1582C83.0186 9.72982 83.8434 9.51562 84.9053 9.51562H86.1357V8.93457C86.1357 8.49251 86.0036 8.1416 85.7393 7.88184C85.4749 7.61751 85.0853 7.48535 84.5703 7.48535C84.1191 7.48535 83.7409 7.59928 83.4355 7.82715C83.1302 8.05501 82.9775 8.33073 82.9775 8.6543H81.7061C81.7061 8.28516 81.8359 7.92969 82.0957 7.58789C82.36 7.24154 82.7155 6.9681 83.1621 6.76758C83.6133 6.56706 84.1077 6.4668 84.6455 6.4668C85.4977 6.4668 86.1654 6.68099 86.6484 7.10938C87.1315 7.5332 87.3822 8.11882 87.4004 8.86621V12.2705C87.4004 12.9495 87.487 13.4896 87.6602 13.8906V14H86.334ZM84.2354 13.0361C84.6318 13.0361 85.0078 12.9336 85.3633 12.7285C85.7188 12.5234 85.9762 12.2568 86.1357 11.9287V10.4111H85.1445C83.5951 10.4111 82.8203 10.8646 82.8203 11.7715C82.8203 12.168 82.9525 12.4779 83.2168 12.7012C83.4811 12.9245 83.8206 13.0361 84.2354 13.0361ZM95.6445 10.3838C95.6445 11.514 95.3848 12.4232 94.8652 13.1113C94.3457 13.7949 93.6484 14.1367 92.7734 14.1367C91.8392 14.1367 91.1169 13.8063 90.6064 13.1455L90.5449 14H89.3828V3.5H90.6475V7.41699C91.1579 6.78353 91.862 6.4668 92.7598 6.4668C93.6576 6.4668 94.3617 6.80632 94.8721 7.48535C95.387 8.16439 95.6445 9.09408 95.6445 10.2744V10.3838ZM94.3799 10.2402C94.3799 9.37891 94.2135 8.71354 93.8809 8.24414C93.5482 7.77474 93.0697 7.54004 92.4453 7.54004C91.6113 7.54004 91.012 7.92741 90.6475 8.70215V11.9014C91.0348 12.6761 91.6387 13.0635 92.459 13.0635C93.0651 13.0635 93.5368 12.8288 93.874 12.3594C94.2113 11.89 94.3799 11.1836 94.3799 10.2402ZM96.9092 10.2334C96.9092 9.50879 97.0505 8.8571 97.333 8.27832C97.6201 7.69954 98.0166 7.25293 98.5225 6.93848C99.0329 6.62402 99.6139 6.4668 100.266 6.4668C101.273 6.4668 102.086 6.81543 102.706 7.5127C103.33 8.20996 103.643 9.13737 103.643 10.2949V10.3838C103.643 11.1038 103.504 11.751 103.226 12.3252C102.952 12.8949 102.558 13.3392 102.043 13.6582C101.533 13.9772 100.945 14.1367 100.279 14.1367C99.2767 14.1367 98.4632 13.7881 97.8389 13.0908C97.2191 12.3936 96.9092 11.4707 96.9092 10.3223V10.2334ZM98.1807 10.3838C98.1807 11.2041 98.3698 11.8626 98.748 12.3594C99.1309 12.8561 99.6413 13.1045 100.279 13.1045C100.922 13.1045 101.432 12.8538 101.811 12.3525C102.189 11.8467 102.378 11.1403 102.378 10.2334C102.378 9.4222 102.184 8.76595 101.797 8.26465C101.414 7.75879 100.904 7.50586 100.266 7.50586C99.6413 7.50586 99.1377 7.75423 98.7549 8.25098C98.3721 8.74772 98.1807 9.45866 98.1807 10.3838ZM106.425 6.60352L106.466 7.5332C107.031 6.82227 107.769 6.4668 108.681 6.4668C110.244 6.4668 111.032 7.34863 111.046 9.1123V14H109.781V9.10547C109.777 8.57227 109.654 8.17806 109.412 7.92285C109.175 7.66764 108.804 7.54004 108.298 7.54004C107.888 7.54004 107.528 7.64941 107.218 7.86816C106.908 8.08691 106.666 8.37402 106.493 8.72949V14H105.229V6.60352H106.425Z" fill="#2F3665"/>
<path d="M62.3809 32V25.5811H61.2119V24.6035H62.3809V23.9746C62.3809 23.1497 62.6156 22.5072 63.085 22.0469C63.5589 21.5866 64.2266 21.3564 65.0879 21.3564C65.5983 21.3564 66.2432 21.4954 67.0225 21.7734L66.8105 22.8398C66.2409 22.612 65.6986 22.498 65.1836 22.498C64.6413 22.498 64.2493 22.6211 64.0078 22.8672C63.7708 23.1087 63.6523 23.4733 63.6523 23.9609V24.6035H65.1631V25.5811H63.6523V32H62.3809ZM67.6514 32H66.3799V24.6035H67.6514V32ZM70.9053 24.6035L70.9463 25.5332C71.5114 24.8223 72.2497 24.4668 73.1611 24.4668C74.7243 24.4668 75.5127 25.3486 75.5264 27.1123V32H74.2617V27.1055C74.2572 26.5723 74.1341 26.1781 73.8926 25.9229C73.6556 25.6676 73.2842 25.54 72.7783 25.54C72.3682 25.54 72.0081 25.6494 71.6982 25.8682C71.3883 26.0869 71.1468 26.374 70.9736 26.7295V32H69.709V24.6035H70.9053ZM82 32C81.9271 31.8542 81.8678 31.5944 81.8223 31.2207C81.2344 31.8314 80.5326 32.1367 79.7168 32.1367C78.9876 32.1367 78.3883 31.9316 77.9189 31.5215C77.4541 31.1068 77.2217 30.5827 77.2217 29.9492C77.2217 29.179 77.5133 28.582 78.0967 28.1582C78.6846 27.7298 79.5094 27.5156 80.5713 27.5156H81.8018V26.9346C81.8018 26.4925 81.6696 26.1416 81.4053 25.8818C81.141 25.6175 80.7513 25.4854 80.2363 25.4854C79.7852 25.4854 79.4069 25.5993 79.1016 25.8271C78.7962 26.055 78.6436 26.3307 78.6436 26.6543H77.3721C77.3721 26.2852 77.502 25.9297 77.7617 25.5879C78.026 25.2415 78.3815 24.9681 78.8281 24.7676C79.2793 24.5671 79.7738 24.4668 80.3115 24.4668C81.1637 24.4668 81.8314 24.681 82.3145 25.1094C82.7975 25.5332 83.0482 26.1188 83.0664 26.8662V30.2705C83.0664 30.9495 83.153 31.4896 83.3262 31.8906V32H82ZM79.9014 31.0361C80.2979 31.0361 80.6738 30.9336 81.0293 30.7285C81.3848 30.5234 81.6423 30.2568 81.8018 29.9287V28.4111H80.8105C79.2611 28.4111 78.4863 28.8646 78.4863 29.7715C78.4863 30.168 78.6185 30.4779 78.8828 30.7012C79.1471 30.9245 79.4867 31.0361 79.9014 31.0361ZM86.2451 24.6035L86.2861 25.5332C86.8512 24.8223 87.5895 24.4668 88.501 24.4668C90.0641 24.4668 90.8525 25.3486 90.8662 27.1123V32H89.6016V27.1055C89.597 26.5723 89.474 26.1781 89.2324 25.9229C88.9954 25.6676 88.624 25.54 88.1182 25.54C87.708 25.54 87.348 25.6494 87.0381 25.8682C86.7282 26.0869 86.4867 26.374 86.3135 26.7295V32H85.0488V24.6035H86.2451ZM95.7402 31.1045C96.1914 31.1045 96.5856 30.9678 96.9229 30.6943C97.2601 30.4209 97.4469 30.0791 97.4834 29.6689H98.6797C98.6569 30.0928 98.5111 30.4961 98.2422 30.8789C97.9733 31.2617 97.6133 31.5671 97.1621 31.7949C96.7155 32.0228 96.2415 32.1367 95.7402 32.1367C94.7331 32.1367 93.931 31.8018 93.334 31.1318C92.7415 30.4574 92.4453 29.5368 92.4453 28.3701V28.1582C92.4453 27.4382 92.5775 26.7979 92.8418 26.2373C93.1061 25.6768 93.4844 25.2415 93.9766 24.9316C94.4733 24.6217 95.0589 24.4668 95.7334 24.4668C96.5628 24.4668 97.251 24.7152 97.7979 25.2119C98.3493 25.7087 98.6432 26.3535 98.6797 27.1465H97.4834C97.4469 26.668 97.2646 26.276 96.9365 25.9707C96.613 25.6608 96.2119 25.5059 95.7334 25.5059C95.0908 25.5059 94.5918 25.7383 94.2363 26.2031C93.8854 26.6634 93.71 27.3311 93.71 28.2061V28.4453C93.71 29.2975 93.8854 29.9538 94.2363 30.4141C94.5872 30.8743 95.0885 31.1045 95.7402 31.1045ZM101.476 32H100.211V24.6035H101.476V32ZM100.108 22.6416C100.108 22.4365 100.17 22.2633 100.293 22.1221C100.421 21.9808 100.607 21.9102 100.854 21.9102C101.1 21.9102 101.286 21.9808 101.414 22.1221C101.542 22.2633 101.605 22.4365 101.605 22.6416C101.605 22.8467 101.542 23.0176 101.414 23.1543C101.286 23.291 101.1 23.3594 100.854 23.3594C100.607 23.3594 100.421 23.291 100.293 23.1543C100.17 23.0176 100.108 22.8467 100.108 22.6416ZM108.072 32C107.999 31.8542 107.94 31.5944 107.895 31.2207C107.307 31.8314 106.605 32.1367 105.789 32.1367C105.06 32.1367 104.461 31.9316 103.991 31.5215C103.526 31.1068 103.294 30.5827 103.294 29.9492C103.294 29.179 103.586 28.582 104.169 28.1582C104.757 27.7298 105.582 27.5156 106.644 27.5156H107.874V26.9346C107.874 26.4925 107.742 26.1416 107.478 25.8818C107.213 25.6175 106.824 25.4854 106.309 25.4854C105.857 25.4854 105.479 25.5993 105.174 25.8271C104.868 26.055 104.716 26.3307 104.716 26.6543H103.444C103.444 26.2852 103.574 25.9297 103.834 25.5879C104.098 25.2415 104.454 24.9681 104.9 24.7676C105.352 24.5671 105.846 24.4668 106.384 24.4668C107.236 24.4668 107.904 24.681 108.387 25.1094C108.87 25.5332 109.12 26.1188 109.139 26.8662V30.2705C109.139 30.9495 109.225 31.4896 109.398 31.8906V32H108.072ZM105.974 31.0361C106.37 31.0361 106.746 30.9336 107.102 30.7285C107.457 30.5234 107.715 30.2568 107.874 29.9287V28.4111H106.883C105.333 28.4111 104.559 28.8646 104.559 29.7715C104.559 30.168 104.691 30.4779 104.955 30.7012C105.219 30.9245 105.559 31.0361 105.974 31.0361ZM112.495 32H111.23V21.5H112.495V32ZM66.2637 48.0381C66.2637 47.6963 66.1338 47.432 65.874 47.2451C65.6188 47.0537 65.1699 46.8896 64.5273 46.7529C63.8893 46.6162 63.3812 46.4521 63.0029 46.2607C62.6292 46.0693 62.3512 45.8415 62.1689 45.5771C61.9912 45.3128 61.9023 44.9984 61.9023 44.6338C61.9023 44.0277 62.1576 43.515 62.668 43.0957C63.1829 42.6764 63.8392 42.4668 64.6367 42.4668C65.4753 42.4668 66.1543 42.6833 66.6738 43.1162C67.1979 43.5492 67.46 44.1029 67.46 44.7773H66.1885C66.1885 44.431 66.0404 44.1325 65.7441 43.8818C65.4525 43.6312 65.0833 43.5059 64.6367 43.5059C64.1764 43.5059 63.8164 43.6061 63.5566 43.8066C63.2969 44.0072 63.167 44.2692 63.167 44.5928C63.167 44.8981 63.2878 45.1283 63.5293 45.2832C63.7708 45.4382 64.2061 45.5863 64.835 45.7275C65.4684 45.8688 65.9811 46.0374 66.373 46.2334C66.765 46.4294 67.0544 46.6663 67.2412 46.9443C67.4326 47.2178 67.5283 47.5527 67.5283 47.9492C67.5283 48.61 67.264 49.141 66.7354 49.542C66.2067 49.9385 65.5208 50.1367 64.6777 50.1367C64.0853 50.1367 63.5612 50.0319 63.1055 49.8223C62.6497 49.6126 62.292 49.321 62.0322 48.9473C61.777 48.569 61.6494 48.1611 61.6494 47.7236H62.9141C62.9368 48.1475 63.1055 48.4847 63.4199 48.7354C63.7389 48.9814 64.1582 49.1045 64.6777 49.1045C65.1562 49.1045 65.5391 49.0088 65.8262 48.8174C66.1178 48.6214 66.2637 48.3617 66.2637 48.0381ZM72.2451 50.1367C71.2425 50.1367 70.4268 49.8086 69.7979 49.1523C69.1689 48.4915 68.8545 47.6097 68.8545 46.5068V46.2744C68.8545 45.5407 68.9935 44.8867 69.2715 44.3125C69.554 43.7337 69.946 43.2826 70.4473 42.959C70.9531 42.6309 71.5 42.4668 72.0879 42.4668C73.0495 42.4668 73.7969 42.7835 74.3301 43.417C74.8633 44.0505 75.1299 44.9574 75.1299 46.1377V46.6641H70.1191C70.1374 47.3932 70.3493 47.9834 70.7549 48.4346C71.165 48.8812 71.6846 49.1045 72.3135 49.1045C72.7601 49.1045 73.1383 49.0133 73.4482 48.8311C73.7581 48.6488 74.0293 48.4072 74.2617 48.1064L75.0342 48.708C74.4144 49.6605 73.4847 50.1367 72.2451 50.1367ZM72.0879 43.5059C71.5775 43.5059 71.1491 43.6927 70.8027 44.0664C70.4564 44.4355 70.2422 44.9551 70.1602 45.625H73.8652V45.5293C73.8288 44.8867 73.6556 44.39 73.3457 44.0391C73.0358 43.6836 72.6165 43.5059 72.0879 43.5059ZM80.1748 43.7383C79.9834 43.7064 79.776 43.6904 79.5527 43.6904C78.7233 43.6904 78.1605 44.0436 77.8643 44.75V50H76.5996V42.6035H77.8301L77.8506 43.458C78.2653 42.7972 78.8532 42.4668 79.6143 42.4668C79.8604 42.4668 80.0472 42.4987 80.1748 42.5625V43.7383ZM83.9072 48.2842L85.7393 42.6035H87.0312L84.3789 50H83.415L80.7354 42.6035H82.0273L83.9072 48.2842ZM89.6221 50H88.3574V42.6035H89.6221V50ZM88.2549 40.6416C88.2549 40.4365 88.3164 40.2633 88.4395 40.1221C88.5671 39.9808 88.7539 39.9102 89 39.9102C89.2461 39.9102 89.4329 39.9808 89.5605 40.1221C89.6882 40.2633 89.752 40.4365 89.752 40.6416C89.752 40.8467 89.6882 41.0176 89.5605 41.1543C89.4329 41.291 89.2461 41.3594 89 41.3594C88.7539 41.3594 88.5671 41.291 88.4395 41.1543C88.3164 41.0176 88.2549 40.8467 88.2549 40.6416ZM94.6191 49.1045C95.0703 49.1045 95.4645 48.9678 95.8018 48.6943C96.139 48.4209 96.3258 48.0791 96.3623 47.6689H97.5586C97.5358 48.0928 97.39 48.4961 97.1211 48.8789C96.8522 49.2617 96.4922 49.5671 96.041 49.7949C95.5944 50.0228 95.1204 50.1367 94.6191 50.1367C93.612 50.1367 92.8099 49.8018 92.2129 49.1318C91.6204 48.4574 91.3242 47.5368 91.3242 46.3701V46.1582C91.3242 45.4382 91.4564 44.7979 91.7207 44.2373C91.985 43.6768 92.3633 43.2415 92.8555 42.9316C93.3522 42.6217 93.9378 42.4668 94.6123 42.4668C95.4417 42.4668 96.1299 42.7152 96.6768 43.2119C97.2282 43.7087 97.5221 44.3535 97.5586 45.1465H96.3623C96.3258 44.668 96.1436 44.276 95.8154 43.9707C95.4919 43.6608 95.0908 43.5059 94.6123 43.5059C93.9697 43.5059 93.4707 43.7383 93.1152 44.2031C92.7643 44.6634 92.5889 45.3311 92.5889 46.2061V46.4453C92.5889 47.2975 92.7643 47.9538 93.1152 48.4141C93.4661 48.8743 93.9674 49.1045 94.6191 49.1045ZM102.05 50.1367C101.047 50.1367 100.231 49.8086 99.6025 49.1523C98.9736 48.4915 98.6592 47.6097 98.6592 46.5068V46.2744C98.6592 45.5407 98.7982 44.8867 99.0762 44.3125C99.3587 43.7337 99.7507 43.2826 100.252 42.959C100.758 42.6309 101.305 42.4668 101.893 42.4668C102.854 42.4668 103.602 42.7835 104.135 43.417C104.668 44.0505 104.935 44.9574 104.935 46.1377V46.6641H99.9238C99.9421 47.3932 100.154 47.9834 100.56 48.4346C100.97 48.8812 101.489 49.1045 102.118 49.1045C102.565 49.1045 102.943 49.0133 103.253 48.8311C103.563 48.6488 103.834 48.4072 104.066 48.1064L104.839 48.708C104.219 49.6605 103.289 50.1367 102.05 50.1367ZM101.893 43.5059C101.382 43.5059 100.954 43.6927 100.607 44.0664C100.261 44.4355 100.047 44.9551 99.9648 45.625H103.67V45.5293C103.633 44.8867 103.46 44.39 103.15 44.0391C102.84 43.6836 102.421 43.5059 101.893 43.5059ZM110.711 48.0381C110.711 47.6963 110.581 47.432 110.321 47.2451C110.066 47.0537 109.617 46.8896 108.975 46.7529C108.337 46.6162 107.828 46.4521 107.45 46.2607C107.076 46.0693 106.799 45.8415 106.616 45.5771C106.438 45.3128 106.35 44.9984 106.35 44.6338C106.35 44.0277 106.605 43.515 107.115 43.0957C107.63 42.6764 108.286 42.4668 109.084 42.4668C109.923 42.4668 110.602 42.6833 111.121 43.1162C111.645 43.5492 111.907 44.1029 111.907 44.7773H110.636C110.636 44.431 110.488 44.1325 110.191 43.8818C109.9 43.6312 109.531 43.5059 109.084 43.5059C108.624 43.5059 108.264 43.6061 108.004 43.8066C107.744 44.0072 107.614 44.2692 107.614 44.5928C107.614 44.8981 107.735 45.1283 107.977 45.2832C108.218 45.4382 108.653 45.5863 109.282 45.7275C109.916 45.8688 110.428 46.0374 110.82 46.2334C111.212 46.4294 111.502 46.6663 111.688 46.9443C111.88 47.2178 111.976 47.5527 111.976 47.9492C111.976 48.61 111.711 49.141 111.183 49.542C110.654 49.9385 109.968 50.1367 109.125 50.1367C108.533 50.1367 108.008 50.0319 107.553 49.8223C107.097 49.6126 106.739 49.321 106.479 48.9473C106.224 48.569 106.097 48.1611 106.097 47.7236H107.361C107.384 48.1475 107.553 48.4847 107.867 48.7354C108.186 48.9814 108.605 49.1045 109.125 49.1045C109.604 49.1045 109.986 49.0088 110.273 48.8174C110.565 48.6214 110.711 48.3617 110.711 48.0381Z" fill="#CDD6D3"/>
</svg>
