<svg id="RWANDAFUL-02" xmlns="http://www.w3.org/2000/svg" width="233.913" height="44.21" viewBox="0 0 233.913 44.21">
  <g id="Group_2019" data-name="Group 2019">
    <path id="Path_39268" data-name="Path 39268" d="M239.033,260.388c-7.24,1.264-12.194,6.437-13.173,13.009h6.018a9.629,9.629,0,0,1,18.99,2.158,9.633,9.633,0,0,1-18.534,3.69h-6.322c.073.346.152.7.237,1.052,2.425,9.55,8.48,16.881,14.978,24.1,6.182-6.662,11.732-13.568,14.492-22.236a23.377,23.377,0,0,0,1-7.368C256.564,265.992,247.7,258.868,239.033,260.388Z" transform="translate(-225.86 -260.182)" fill="#39425a"/>
    <circle id="Ellipse_159" data-name="Ellipse 159" cx="5.24" cy="5.24" r="5.24" transform="translate(10.139 10.187)" fill="#f9b400"/>
  </g>
  <g id="Group_2026" data-name="Group 2026" transform="translate(41.141 5.196)">
    <path id="Path_39269" data-name="Path 39269" d="M401.826,292.476c0-.255,0-.511-.024-.766h0a10.106,10.106,0,1,0-10.079,10.93c.274,0,.553-.012.833-.036a10.087,10.087,0,0,0,4.371-1.416v1.2h4.918V292.47h-.018Zm-9.677,5.234a5.2,5.2,0,0,1-5.6-4.754,5.195,5.195,0,0,1,4.754-5.6c.146-.012.286-.018.426-.018a5.194,5.194,0,0,1,.419,10.37Z" transform="translate(-328.078 -274.1)" fill="#f9b400"/>
    <g id="Group_2023" data-name="Group 2023">
      <g id="Group_2022" data-name="Group 2022">
        <g id="Group_2021" data-name="Group 2021">
          <g id="Group_2020" data-name="Group 2020">
            <path id="Path_39270" data-name="Path 39270" d="M309.564,280.754c0-5.313-4.3-8.984-10.5-8.984H293.54v4.942h4.371c2.857,0,5.045,1.483,5.045,4.042,0,2.407-2.188,3.963-5.045,3.963H293.54v4.571h4.3l5.343,8.936h5.635v-2.669l-4.669-7.313A7.935,7.935,0,0,0,309.564,280.754Z" transform="translate(-293.54 -269.922)" fill="#39425a"/>
            <path id="Path_39271" data-name="Path 39271" d="M351.2,283.97,347,297.137l-4.413-13.167h-5.039l-4.194,13.021L329.2,283.97H323.86v2.675L329.24,303h7.228l3.6-12.127L343.7,303h7.24l5.38-16.352V283.97Z" transform="translate(-305.429 -274.706)" fill="#39425a"/>
            <path id="Path_39272" data-name="Path 39272" d="M433.56,282.75a6.979,6.979,0,0,0-5.866,3.343v-2.6H421.98v19.033h5.9v-10.65c0-2.3,1.483-3.927,3.526-3.927,2.073,0,3.483,1.672,3.483,4.042v10.535h5.9V290.586C440.794,286.051,437.754,282.75,433.56,282.75Z" transform="translate(-343.904 -274.228)" fill="#39425a"/>
            <path id="Path_39273" data-name="Path 39273" d="M473.733,269.94v9.866a7.717,7.717,0,0,0-5.38-2.073c-5.611,0-9.684,4.34-9.684,10.279s4.529,10.237,10.68,10.237c6.012,0,10.279-4,10.279-9.526V269.946h-5.9Zm-4.456,23.112a4.716,4.716,0,0,1-4.711-5.045c0-2.966,1.97-5.082,4.711-5.082s4.711,2.115,4.711,5.082C473.958,290.936,472.025,293.052,469.278,293.052Z" transform="translate(-358.291 -269.204)" fill="#39425a"/>
            <path id="Path_39274" data-name="Path 39274" d="M547.571,273.921a7.715,7.715,0,0,1,2,.255v-4.814a14.205,14.205,0,0,0-4.012-.632c-3.781,0-6.267,2.827-6.267,7.088V278H536.66v4.456H539.3v14.577h5.9V282.45h4.231v-4.456h-4.231v-1.483A2.337,2.337,0,0,1,547.571,273.921Z" transform="translate(-388.872 -268.73)" fill="#39425a"/>
            <path id="Path_39275" data-name="Path 39275" d="M574.285,283.97v10.65c0,2.3-1.483,3.939-3.526,3.939-2.073,0-3.483-1.672-3.483-4.042V283.976h-5.9v11.951c0,4.523,3.039,7.823,7.228,7.823a6.973,6.973,0,0,0,5.866-3.337v2.6h5.714V283.976h-5.9Z" transform="translate(-398.565 -274.706)" fill="#39425a"/>
            <path id="Path_39276" data-name="Path 39276" d="M600.49,269.94V297.5h5.9V269.94Z" transform="translate(-413.901 -269.204)" fill="#39425a"/>
          </g>
        </g>
        <path id="Path_39277" data-name="Path 39277" d="M519.107,292.476c0-.255,0-.511-.024-.766h0a10.109,10.109,0,0,0-17.78-5.72,10.111,10.111,0,0,0,7.7,16.65c.274,0,.553-.012.833-.036a10.087,10.087,0,0,0,4.371-1.416v1.2h4.918V292.47h-.018Zm-9.671,5.234a5.2,5.2,0,0,1-5.6-4.754,5.195,5.195,0,0,1,4.754-5.6c.146-.012.286-.018.426-.018a5.194,5.194,0,0,1,.419,10.37Z" transform="translate(-374.066 -274.1)" fill="#39425a"/>
      </g>
    </g>
    <g id="Group_2025" data-name="Group 2025" transform="translate(96.781 35.336)">
      <g id="Group_2024" data-name="Group 2024">
        <path id="Path_39278" data-name="Path 39278" d="M455.51,329.8h-1.775l-.292.638h-.693l1.526-3.4h.7l1.526,3.4h-.7Zm-.894-2.036-.632,1.447h1.264Z" transform="translate(-452.75 -326.931)" fill="#39425a"/>
        <path id="Path_39279" data-name="Path 39279" d="M467.457,328.722a1.61,1.61,0,0,1-1.7,1.726H464.43v-3.4h1.331A1.6,1.6,0,0,1,467.457,328.722Zm-2.4,1.112h.7a1.085,1.085,0,0,0,0-2.17h-.7Z" transform="translate(-457.33 -326.935)" fill="#39425a"/>
        <path id="Path_39280" data-name="Path 39280" d="M476.673,330.46h-.663l-1.41-3.41h.717l1.021,2.644,1.027-2.644h.717Z" transform="translate(-461.318 -326.934)" fill="#39425a"/>
        <path id="Path_39281" data-name="Path 39281" d="M488.451,330.448H485.91v-3.4h2.541v.62h-1.909v.778h1.836v.6h-1.836v.766h1.909Z" transform="translate(-465.753 -326.934)" fill="#39425a"/>
        <path id="Path_39282" data-name="Path 39282" d="M498.272,327.04h.638v3.4h-.4v.006l-1.787-2.292v2.292h-.638v-3.4h.517l1.666,2.1Z" transform="translate(-469.744 -326.931)" fill="#39425a"/>
        <path id="Path_39283" data-name="Path 39283" d="M507.4,327.634H506.32v-.584h2.8v.584H508.04v2.814H507.4v-2.814Z" transform="translate(-473.756 -326.934)" fill="#39425a"/>
        <path id="Path_39284" data-name="Path 39284" d="M519.649,327.06v1.945a1.38,1.38,0,0,1-1.471,1.52,1.415,1.415,0,0,1-1.508-1.52V327.06h.638v1.945a.832.832,0,0,0,.875.936c.529,0,.827-.353.827-.936V327.06Z" transform="translate(-477.814 -326.938)" fill="#39425a"/>
        <path id="Path_39285" data-name="Path 39285" d="M530.563,330.448h-.76l-.991-1.137H528.2v1.137h-.638v-3.4c.541,0,1.076.006,1.617.006a1.126,1.126,0,0,1,1.222,1.125,1,1,0,0,1-.857,1.064l1.027,1.161v.043Zm-2.365-2.8v1.088h.973a.543.543,0,1,0,0-1.082H528.2Z" transform="translate(-482.084 -326.934)" fill="#39425a"/>
        <path id="Path_39286" data-name="Path 39286" d="M540.4,330.448H537.86v-3.4H540.4v.62h-1.909v.778h1.836v.6h-1.836v.766H540.4Z" transform="translate(-486.123 -326.934)" fill="#39425a"/>
        <path id="Path_39287" data-name="Path 39287" d="M556.55,329.8h-1.775l-.292.638h-.693l1.526-3.4h.7l1.526,3.4h-.7Zm-.888-2.036-.632,1.447h1.264Z" transform="translate(-492.37 -326.931)" fill="#39425a"/>
        <path id="Path_39288" data-name="Path 39288" d="M568.082,330.448h-.541l-.419-1.07-.359-1.07-.353,1.082L566,330.448h-.541l-1.246-3.4h.717l.8,2.45.827-2.45h.419l.851,2.45.778-2.45h.717Z" transform="translate(-496.456 -326.935)" fill="#39425a"/>
        <path id="Path_39289" data-name="Path 39289" d="M580.37,329.8h-1.775l-.292.638h-.693l1.526-3.4h.7l1.526,3.4h-.7Zm-.894-2.036-.632,1.447h1.264Z" transform="translate(-501.71 -326.931)" fill="#39425a"/>
        <path id="Path_39290" data-name="Path 39290" d="M589.11,330.448v-3.4h.632v3.4Z" transform="translate(-506.219 -326.934)" fill="#39425a"/>
        <path id="Path_39291" data-name="Path 39291" d="M597.1,327.634H596.02v-.584h2.8v.584H597.74v2.814H597.1v-2.814Z" transform="translate(-508.929 -326.934)" fill="#39425a"/>
        <path id="Path_39292" data-name="Path 39292" d="M608.172,327.8a.974.974,0,0,0-.809-.377c-.474,0-.705.2-.705.45,0,.3.353.377.76.426.711.085,1.368.274,1.368,1.082,0,.76-.669,1.082-1.429,1.082a1.405,1.405,0,0,1-1.477-.833l.535-.28a.973.973,0,0,0,.954.541c.4,0,.784-.14.784-.511,0-.322-.334-.45-.784-.5-.693-.085-1.331-.267-1.331-1.027,0-.7.687-.985,1.313-.991a1.384,1.384,0,0,1,1.337.675Z" transform="translate(-512.795 -326.86)" fill="#39425a"/>
      </g>
    </g>
  </g>
</svg>
