<svg width="84" height="21" viewBox="0 0 84 21" fill="none" xmlns="http://www.w3.org/2000/svg">
<path d="M19.6066 0H3.39344C1.5193 0 0 1.37107 0 3.06237V17.3535C0 19.0448 1.5193 20.4158 3.39344 20.4158H19.6066C21.4807 20.4158 23 19.0448 23 17.3535V3.06237C23 1.37107 21.4807 0 19.6066 0Z" fill="#2196F3"/>
<path d="M9.87442 17.7112C10.6443 17.7112 11.2684 17.148 11.2684 16.4533C11.2684 15.7585 10.6443 15.1953 9.87442 15.1953C9.10456 15.1953 8.48047 15.7585 8.48047 16.4533C8.48047 17.148 9.10456 17.7112 9.87442 17.7112Z" fill="white"/>
<path d="M16.394 17.7112C17.1638 17.7112 17.7879 17.148 17.7879 16.4533C17.7879 15.7585 17.1638 15.1953 16.394 15.1953C15.6241 15.1953 15 15.7585 15 16.4533C15 17.148 15.6241 17.7112 16.394 17.7112Z" fill="white"/>
<path d="M17.3261 9.25884H9.93595L9.23842 8.11522L8.93677 7.6198H17V5.98074H7.93835L6.0154 2.83398H2.90625V4.47303H5.1233L6.05763 6.00626C5.65544 6.07106 5.27773 6.22605 4.95925 6.45698C4.64077 6.68791 4.39171 6.98737 4.23497 7.32785C3.9901 7.82167 3.91346 8.37005 4.01478 8.90327C4.07998 9.25351 4.22409 9.58797 4.4382 9.88596C4.64282 10.1873 4.92795 10.4374 5.26747 10.6135C5.60698 10.7896 5.99001 10.886 6.3815 10.8938H9.04724L10.3469 13.0242C10.5725 13.4242 10.914 13.7615 11.3352 14.0001C11.7564 14.2388 12.2414 14.3699 12.7386 14.3795H17.3265C18.7091 14.3795 19.8342 13.2318 19.8342 11.8214C19.8342 10.411 18.7129 9.25884 17.3261 9.25884ZM6.38566 9.25884C6.25543 9.25589 6.12805 9.22378 6.01498 9.1654C5.90191 9.10701 5.80669 9.02418 5.73788 8.92436C5.73373 8.92028 5.72959 8.91178 5.72544 8.90735C5.64134 8.78293 5.59244 8.64176 5.58304 8.49627C5.57363 8.35078 5.60402 8.20543 5.67152 8.07303C5.72807 7.9429 5.82609 7.83081 5.95319 7.75093C6.0803 7.67104 6.2308 7.62695 6.38566 7.62422H7.05002L7.35166 8.11964L8.04919 9.26327H6.38415L6.38566 9.25884ZM17.3261 12.7404H12.7382C12.524 12.7361 12.3152 12.6795 12.1338 12.5765C11.9525 12.4736 11.8055 12.3282 11.7085 12.1559L10.9363 10.8938H17.3261C17.5758 10.9216 17.8056 11.0308 17.9723 11.2008C18.139 11.3709 18.231 11.5901 18.231 11.8171C18.231 12.0442 18.139 12.2634 17.9723 12.4334C17.8056 12.6035 17.5758 12.7127 17.3261 12.7404Z" fill="white"/>
<path d="M13.5474 12.7383H6.18359V14.3732H13.5474V12.7383Z" fill="white"/>
<path d="M16.3008 4.42969V8.96166L18.8165 6.69585L16.3008 4.42969Z" fill="white"/>
<path d="M4.8125 13.5568L7.32327 15.8271V11.291L4.8125 13.5568Z" fill="white"/>
<path d="M32.976 16.3495C32.112 16.3495 31.2747 16.2268 30.464 15.9815C29.664 15.7361 29.0293 15.4108 28.56 15.0055L29.28 13.3895C29.7387 13.7521 30.2987 14.0508 30.96 14.2855C31.632 14.5095 32.304 14.6215 32.976 14.6215C33.808 14.6215 34.4267 14.4881 34.832 14.2215C35.248 13.9548 35.456 13.6028 35.456 13.1655C35.456 12.8455 35.3387 12.5841 35.104 12.3815C34.88 12.1681 34.592 12.0028 34.24 11.8855C33.888 11.7681 33.408 11.6348 32.8 11.4855C31.9467 11.2828 31.2533 11.0801 30.72 10.8775C30.1973 10.6748 29.744 10.3601 29.36 9.93345C28.9867 9.49612 28.8 8.90945 28.8 8.17345C28.8 7.55479 28.9653 6.99479 29.296 6.49345C29.6373 5.98145 30.144 5.57612 30.816 5.27745C31.4987 4.97879 32.3307 4.82945 33.312 4.82945C33.9947 4.82945 34.6667 4.91479 35.328 5.08545C35.9893 5.25612 36.56 5.50145 37.04 5.82145L36.384 7.43745C35.8933 7.14945 35.3813 6.93079 34.848 6.78145C34.3147 6.63212 33.7973 6.55745 33.296 6.55745C32.4747 6.55745 31.8613 6.69612 31.456 6.97345C31.0613 7.25079 30.864 7.61879 30.864 8.07745C30.864 8.39745 30.976 8.65879 31.2 8.86145C31.4347 9.06412 31.728 9.22412 32.08 9.34145C32.432 9.45879 32.912 9.59212 33.52 9.74145C34.352 9.93345 35.0347 10.1361 35.568 10.3495C36.1013 10.5521 36.5547 10.8668 36.928 11.2935C37.312 11.7201 37.504 12.2961 37.504 13.0215C37.504 13.6401 37.3333 14.2001 36.992 14.7015C36.6613 15.2028 36.1547 15.6028 35.472 15.9015C34.7893 16.2001 33.9573 16.3495 32.976 16.3495ZM52.5463 7.64545L49.3943 16.1895H47.4743L45.2663 10.3015L43.0263 16.1895H41.1063L37.9703 7.64545H39.8583L42.1143 13.9495L44.4663 7.64545H46.1463L48.4503 13.9815L50.7703 7.64545H52.5463ZM53.9214 7.64545H55.9214V16.1895H53.9214V7.64545ZM54.9294 6.23745C54.5667 6.23745 54.2627 6.12545 54.0174 5.90145C53.772 5.66679 53.6494 5.37879 53.6494 5.03745C53.6494 4.69612 53.772 4.41345 54.0174 4.18945C54.2627 3.95479 54.5667 3.83745 54.9294 3.83745C55.292 3.83745 55.596 3.94945 55.8414 4.17345C56.0867 4.38679 56.2094 4.65879 56.2094 4.98945C56.2094 5.34145 56.0867 5.64012 55.8414 5.88545C55.6067 6.12012 55.3027 6.23745 54.9294 6.23745ZM63.6824 15.7255C63.4477 15.9175 63.1597 16.0615 62.8184 16.1575C62.4877 16.2535 62.1357 16.3015 61.7624 16.3015C60.8237 16.3015 60.0984 16.0561 59.5864 15.5655C59.0744 15.0748 58.8184 14.3601 58.8184 13.4215V9.30945H57.4104V7.70945H58.8184V5.75745H60.8184V7.70945H63.1064V9.30945H60.8184V13.3735C60.8184 13.7895 60.9197 14.1095 61.1224 14.3335C61.325 14.5468 61.6184 14.6535 62.0024 14.6535C62.4504 14.6535 62.8237 14.5361 63.1224 14.3015L63.6824 15.7255ZM68.9664 16.3015C68.081 16.3015 67.2864 16.1148 66.5824 15.7415C65.8784 15.3681 65.329 14.8508 64.9344 14.1895C64.5397 13.5175 64.3424 12.7601 64.3424 11.9175C64.3424 11.0748 64.5397 10.3228 64.9344 9.66145C65.329 9.00012 65.873 8.48279 66.5664 8.10945C67.2704 7.73612 68.0704 7.54945 68.9664 7.54945C69.809 7.54945 70.545 7.72012 71.1744 8.06145C71.8144 8.40279 72.2944 8.89345 72.6144 9.53345L71.0784 10.4295C70.833 10.0348 70.5237 9.74145 70.1504 9.54945C69.7877 9.34679 69.3877 9.24545 68.9504 9.24545C68.2037 9.24545 67.585 9.49079 67.0944 9.98145C66.6037 10.4615 66.3584 11.1068 66.3584 11.9175C66.3584 12.7281 66.5984 13.3788 67.0784 13.8695C67.569 14.3495 68.193 14.5895 68.9504 14.5895C69.3877 14.5895 69.7877 14.4935 70.1504 14.3015C70.5237 14.0988 70.833 13.8001 71.0784 13.4055L72.6144 14.3015C72.2837 14.9415 71.7984 15.4375 71.1584 15.7895C70.529 16.1308 69.7984 16.3015 68.9664 16.3015ZM79.1131 7.54945C80.1905 7.54945 81.0545 7.86412 81.7051 8.49345C82.3558 9.12279 82.6811 10.0561 82.6811 11.2935V16.1895H80.6811V11.5495C80.6811 10.8028 80.5051 10.2428 80.1531 9.86945C79.8011 9.48545 79.2998 9.29345 78.6491 9.29345C77.9131 9.29345 77.3318 9.51745 76.9051 9.96545C76.4785 10.4028 76.2651 11.0375 76.2651 11.8695V16.1895H74.2651V4.31745H76.2651V8.63745C76.5958 8.28545 77.0011 8.01879 77.4811 7.83745C77.9718 7.64545 78.5158 7.54945 79.1131 7.54945Z" fill="#232323"/>
</svg>
