<svg width="183" height="33" viewBox="0 0 183 33" fill="none" xmlns="http://www.w3.org/2000/svg">
<ellipse cx="16" cy="16.5" rx="16" ry="16.5" fill="black"/>
<circle cx="27.5" cy="19.5" r="10.5" fill="black"/>
<path d="M59.13 14.252L54.796 26H52.156L49.12 17.904L46.04 26H43.4L39.088 14.252H41.684L44.786 22.92L48.02 14.252H50.33L53.498 22.964L56.688 14.252H59.13ZM61.0208 14.252H63.7708V26H61.0208V14.252ZM62.4068 12.316C61.9081 12.316 61.4901 12.162 61.1528 11.854C60.8155 11.5313 60.6468 11.1353 60.6468 10.666C60.6468 10.1967 60.8155 9.808 61.1528 9.5C61.4901 9.17733 61.9081 9.016 62.4068 9.016C62.9055 9.016 63.3235 9.17 63.6608 9.478C63.9981 9.77133 64.1668 10.1453 64.1668 10.6C64.1668 11.084 63.9981 11.4947 63.6608 11.832C63.3381 12.1547 62.9201 12.316 62.4068 12.316ZM74.4422 25.362C74.1195 25.626 73.7235 25.824 73.2542 25.956C72.7995 26.088 72.3155 26.154 71.8022 26.154C70.5115 26.154 69.5142 25.8167 68.8102 25.142C68.1062 24.4673 67.7542 23.4847 67.7542 22.194V16.54H65.8182V14.34H67.7542V11.656H70.5042V14.34H73.6502V16.54H70.5042V22.128C70.5042 22.7 70.6435 23.14 70.9222 23.448C71.2008 23.7413 71.6042 23.888 72.1322 23.888C72.7482 23.888 73.2615 23.7267 73.6722 23.404L74.4422 25.362ZM81.7077 26.154C80.4903 26.154 79.3977 25.8973 78.4297 25.384C77.4617 24.8707 76.7063 24.1593 76.1637 23.25C75.621 22.326 75.3497 21.2847 75.3497 20.126C75.3497 18.9673 75.621 17.9333 76.1637 17.024C76.7063 16.1147 77.4543 15.4033 78.4077 14.89C79.3757 14.3767 80.4757 14.12 81.7077 14.12C82.8663 14.12 83.8783 14.3547 84.7437 14.824C85.6237 15.2933 86.2837 15.968 86.7237 16.848L84.6117 18.08C84.2743 17.5373 83.849 17.134 83.3357 16.87C82.837 16.5913 82.287 16.452 81.6857 16.452C80.659 16.452 79.8083 16.7893 79.1337 17.464C78.459 18.124 78.1217 19.0113 78.1217 20.126C78.1217 21.2407 78.4517 22.1353 79.1117 22.81C79.7863 23.47 80.6443 23.8 81.6857 23.8C82.287 23.8 82.837 23.668 83.3357 23.404C83.849 23.1253 84.2743 22.7147 84.6117 22.172L86.7237 23.404C86.269 24.284 85.6017 24.966 84.7217 25.45C83.8563 25.9193 82.8517 26.154 81.7077 26.154ZM95.6595 14.12C97.1408 14.12 98.3288 14.5527 99.2235 15.418C100.118 16.2833 100.565 17.5667 100.565 19.268V26H97.8155V19.62C97.8155 18.5933 97.5735 17.8233 97.0895 17.31C96.6055 16.782 95.9161 16.518 95.0215 16.518C94.0095 16.518 93.2101 16.826 92.6235 17.442C92.0368 18.0433 91.7435 18.916 91.7435 20.06V26H88.9935V9.676H91.7435V15.616C92.1981 15.132 92.7555 14.7653 93.4155 14.516C94.0901 14.252 94.8381 14.12 95.6595 14.12Z" fill="black"/>
<path opacity="0.8" d="M110.138 25.1162C109.436 25.1162 108.866 24.9157 108.429 24.5146C107.996 24.109 107.779 23.5713 107.779 22.9014C107.779 22.2497 108 21.7324 108.442 21.3496C108.884 20.9622 109.511 20.7686 110.322 20.7686H112.175V20.085C112.175 19.6748 112.049 19.3672 111.799 19.1621C111.548 18.957 111.197 18.8545 110.746 18.8545C109.98 18.8545 109.522 19.1279 109.372 19.6748H108.053C108.103 19.0596 108.363 18.5719 108.832 18.2119C109.301 17.8519 109.953 17.6719 110.787 17.6719C111.184 17.6719 111.541 17.7152 111.86 17.8018C112.184 17.8883 112.476 18.0251 112.735 18.2119C112.995 18.3942 113.196 18.6471 113.337 18.9707C113.483 19.2897 113.556 19.668 113.556 20.1055V25H112.236V24.0635H112.175C111.988 24.3734 111.726 24.6263 111.389 24.8223C111.051 25.0182 110.634 25.1162 110.138 25.1162ZM110.548 23.9541C111.008 23.9541 111.393 23.8219 111.703 23.5576C112.018 23.2887 112.175 22.9538 112.175 22.5527V21.7734H110.493C110.051 21.7734 109.721 21.8691 109.502 22.0605C109.283 22.252 109.174 22.5072 109.174 22.8262C109.174 23.1908 109.306 23.471 109.57 23.667C109.835 23.8584 110.16 23.9541 110.548 23.9541ZM121.848 17.7812V25H120.487V23.7969H120.412C120.294 24.1432 120.052 24.4508 119.688 24.7197C119.323 24.984 118.854 25.1162 118.279 25.1162C117.518 25.1162 116.919 24.9225 116.481 24.5352C116.044 24.1478 115.825 23.5485 115.825 22.7373V17.7812H117.206V22.3477C117.206 22.8854 117.343 23.2705 117.616 23.5029C117.894 23.7354 118.259 23.8516 118.71 23.8516C119.207 23.8516 119.624 23.6966 119.961 23.3867C120.303 23.0768 120.474 22.694 120.474 22.2383V17.7812H121.848ZM124.657 17.8223V16.0176H126.018V17.8223H127.638V18.9912H126.018V22.8604C126.018 23.2523 126.097 23.5189 126.257 23.6602C126.421 23.8014 126.717 23.8721 127.146 23.8721C127.378 23.8721 127.572 23.863 127.727 23.8447V24.9863C127.544 25.0319 127.237 25.0547 126.804 25.0547C126.371 25.0547 126.013 25.016 125.73 24.9385C125.452 24.861 125.231 24.7334 125.067 24.5557C124.908 24.3734 124.796 24.1592 124.732 23.9131C124.673 23.6624 124.644 23.348 124.644 22.9697V18.9912H123.543V17.8223H124.657ZM132.409 17.6582C133.343 17.6582 134.102 17.9499 134.686 18.5332C135.273 19.1165 135.567 19.9072 135.567 20.9053V21.8555C135.567 22.8763 135.276 23.6761 134.692 24.2549C134.109 24.8337 133.348 25.123 132.409 25.123C131.457 25.123 130.691 24.8359 130.112 24.2617C129.534 23.6875 129.244 22.8854 129.244 21.8555V20.9053C129.244 19.93 129.538 19.1462 130.126 18.5537C130.718 17.9567 131.479 17.6582 132.409 17.6582ZM133.708 19.4561C133.394 19.0596 132.963 18.8613 132.416 18.8613C131.869 18.8613 131.434 19.0596 131.11 19.4561C130.791 19.8525 130.632 20.3607 130.632 20.9805V21.8008C130.632 22.4297 130.787 22.9401 131.097 23.332C131.411 23.724 131.851 23.9199 132.416 23.9199C132.977 23.9199 133.41 23.7262 133.715 23.3389C134.025 22.9469 134.18 22.4342 134.18 21.8008V20.9805C134.18 20.3561 134.022 19.848 133.708 19.4561ZM137.584 25V17.7812H138.951V18.9502H139.02C139.065 18.7998 139.129 18.6585 139.211 18.5264C139.298 18.3942 139.414 18.2598 139.56 18.123C139.705 17.9863 139.899 17.877 140.141 17.7949C140.387 17.7129 140.665 17.6719 140.975 17.6719C141.499 17.6719 141.932 17.7972 142.273 18.0479C142.62 18.2939 142.852 18.6198 142.971 19.0254H143.032C143.187 18.638 143.449 18.3167 143.818 18.0615C144.188 17.8018 144.657 17.6719 145.227 17.6719C145.965 17.6719 146.541 17.8724 146.956 18.2734C147.375 18.6699 147.585 19.2259 147.585 19.9414V25H146.204V20.3721C146.204 19.9118 146.079 19.554 145.828 19.2988C145.582 19.0436 145.231 18.916 144.775 18.916C144.342 18.916 143.982 19.0641 143.695 19.3604C143.408 19.652 143.265 20.0348 143.265 20.5088V25H141.911V20.4131C141.911 19.9482 141.779 19.5837 141.515 19.3193C141.255 19.0505 140.902 18.916 140.455 18.916C140.018 18.916 139.66 19.0596 139.382 19.3467C139.104 19.6338 138.965 20.0166 138.965 20.4951V25H137.584ZM151.878 25.1162C151.176 25.1162 150.606 24.9157 150.169 24.5146C149.736 24.109 149.52 23.5713 149.52 22.9014C149.52 22.2497 149.741 21.7324 150.183 21.3496C150.625 20.9622 151.251 20.7686 152.062 20.7686H153.915V20.085C153.915 19.6748 153.79 19.3672 153.539 19.1621C153.288 18.957 152.938 18.8545 152.486 18.8545C151.721 18.8545 151.263 19.1279 151.112 19.6748H149.793C149.843 19.0596 150.103 18.5719 150.572 18.2119C151.042 17.8519 151.693 17.6719 152.527 17.6719C152.924 17.6719 153.282 17.7152 153.601 17.8018C153.924 17.8883 154.216 18.0251 154.476 18.2119C154.735 18.3942 154.936 18.6471 155.077 18.9707C155.223 19.2897 155.296 19.668 155.296 20.1055V25H153.977V24.0635H153.915C153.728 24.3734 153.466 24.6263 153.129 24.8223C152.792 25.0182 152.375 25.1162 151.878 25.1162ZM152.288 23.9541C152.748 23.9541 153.133 23.8219 153.443 23.5576C153.758 23.2887 153.915 22.9538 153.915 22.5527V21.7734H152.233C151.791 21.7734 151.461 21.8691 151.242 22.0605C151.023 22.252 150.914 22.5072 150.914 22.8262C150.914 23.1908 151.046 23.471 151.311 23.667C151.575 23.8584 151.901 23.9541 152.288 23.9541ZM158.03 17.8223V16.0176H159.391V17.8223H161.011V18.9912H159.391V22.8604C159.391 23.2523 159.47 23.5189 159.63 23.6602C159.794 23.8014 160.09 23.8721 160.519 23.8721C160.751 23.8721 160.945 23.863 161.1 23.8447V24.9863C160.917 25.0319 160.61 25.0547 160.177 25.0547C159.744 25.0547 159.386 25.016 159.104 24.9385C158.826 24.861 158.604 24.7334 158.44 24.5557C158.281 24.3734 158.169 24.1592 158.105 23.9131C158.046 23.6624 158.017 23.348 158.017 22.9697V18.9912H156.916V17.8223H158.03ZM163.123 25V17.7812H164.504V25H163.123ZM162.87 15.6006C162.87 15.3317 162.957 15.113 163.13 14.9443C163.308 14.7712 163.533 14.6846 163.807 14.6846C164.089 14.6846 164.319 14.7712 164.497 14.9443C164.675 15.113 164.764 15.3317 164.764 15.6006C164.764 15.8649 164.675 16.0837 164.497 16.2568C164.319 16.4255 164.089 16.5098 163.807 16.5098C163.538 16.5098 163.314 16.4255 163.137 16.2568C162.959 16.0837 162.87 15.8649 162.87 15.6006ZM169.843 17.6582C170.777 17.6582 171.536 17.9499 172.119 18.5332C172.707 19.1165 173.001 19.9072 173.001 20.9053V21.8555C173.001 22.8763 172.709 23.6761 172.126 24.2549C171.543 24.8337 170.782 25.123 169.843 25.123C168.89 25.123 168.125 24.8359 167.546 24.2617C166.967 23.6875 166.678 22.8854 166.678 21.8555V20.9053C166.678 19.93 166.972 19.1462 167.56 18.5537C168.152 17.9567 168.913 17.6582 169.843 17.6582ZM171.142 19.4561C170.827 19.0596 170.396 18.8613 169.85 18.8613C169.303 18.8613 168.868 19.0596 168.544 19.4561C168.225 19.8525 168.065 20.3607 168.065 20.9805V21.8008C168.065 22.4297 168.22 22.9401 168.53 23.332C168.845 23.724 169.285 23.9199 169.85 23.9199C170.41 23.9199 170.843 23.7262 171.148 23.3389C171.458 22.9469 171.613 22.4342 171.613 21.8008V20.9805C171.613 20.3561 171.456 19.848 171.142 19.4561ZM175.018 25V17.7812H176.385V19.0732H176.453C176.508 18.9092 176.578 18.7565 176.665 18.6152C176.756 18.4694 176.882 18.3213 177.041 18.1709C177.205 18.016 177.422 17.8952 177.69 17.8086C177.964 17.7174 178.276 17.6719 178.627 17.6719C179.379 17.6719 179.974 17.8792 180.411 18.2939C180.849 18.7087 181.067 19.3148 181.067 20.1123V25H179.687V20.5498C179.687 20.012 179.554 19.6087 179.29 19.3398C179.03 19.071 178.666 18.9365 178.196 18.9365C177.618 18.9365 177.173 19.1257 176.863 19.5039C176.553 19.8822 176.398 20.3766 176.398 20.9873V25H175.018Z" fill="black"/>
<path d="M17.5482 28.3972C18.6227 28.3972 19.4938 27.545 19.4938 26.4937C19.4938 25.4423 18.6227 24.5901 17.5482 24.5901C16.4737 24.5901 15.6026 25.4423 15.6026 26.4937C15.6026 27.545 16.4737 28.3972 17.5482 28.3972Z" fill="white"/>
<path d="M26.6482 28.3972C27.7227 28.3972 28.5938 27.545 28.5938 26.4937C28.5938 25.4423 27.7227 24.5901 26.6482 24.5901C25.5737 24.5901 24.7026 25.4423 24.7026 26.4937C24.7026 27.545 25.5737 28.3972 26.6482 28.3972Z" fill="white"/>
<path d="M27.9489 15.6046H17.6343L16.6607 13.874L16.2397 13.1243H27.4937V10.6441H14.8462L12.1623 5.88232H7.82275V8.36257H10.9172L12.2212 10.6827C11.6599 10.7807 11.1327 11.0153 10.6882 11.3647C10.2437 11.7142 9.89605 12.1673 9.67728 12.6825C9.33551 13.4298 9.22855 14.2596 9.36995 15.0665C9.46096 15.5965 9.6621 16.1026 9.96093 16.5535C10.2465 17.0095 10.6445 17.388 11.1184 17.6544C11.5922 17.9209 12.1268 18.0668 12.6733 18.0787H16.3939L18.2079 21.3024C18.5227 21.9077 18.9994 22.418 19.5873 22.7792C20.1751 23.1403 20.852 23.3387 21.546 23.3532H27.9495C29.8793 23.3532 31.4496 21.6165 31.4496 19.4823C31.4496 17.348 29.8845 15.6046 27.9489 15.6046ZM12.6791 15.6046C12.4973 15.6001 12.3195 15.5515 12.1617 15.4632C12.0039 15.3748 11.871 15.2495 11.7749 15.0984C11.7691 15.0923 11.7634 15.0794 11.7576 15.0727C11.6402 14.8844 11.5719 14.6708 11.5588 14.4506C11.5457 14.2305 11.5881 14.0105 11.6823 13.8102C11.7612 13.6132 11.898 13.4436 12.0755 13.3228C12.2529 13.2019 12.4629 13.1352 12.6791 13.131H13.6063L14.0273 13.8807L15.0009 15.6113H12.677L12.6791 15.6046ZM27.9489 20.873H21.5454C21.2465 20.8665 20.955 20.7807 20.7019 20.625C20.4488 20.4692 20.2437 20.2492 20.1082 19.9884L19.0305 18.0787H27.9489C28.2974 18.1206 28.6182 18.2859 28.8508 18.5432C29.0835 18.8006 29.2119 19.1323 29.2119 19.4758C29.2119 19.8194 29.0835 20.1511 28.8508 20.4084C28.6182 20.6658 28.2974 20.831 27.9489 20.873Z" fill="white"/>
<path d="M22.6728 20.8726H12.395V23.3466H22.6728V20.8726Z" fill="white"/>
<path d="M26.5157 8.29834V15.1562L30.0269 11.7275L26.5157 8.29834Z" fill="white"/>
<path d="M10.4824 22.1093L13.9868 25.5447V18.6807L10.4824 22.1093Z" fill="white"/>
</svg>
