<svg width="37" height="37" viewBox="0 0 37 37" fill="none" xmlns="http://www.w3.org/2000/svg">
<circle cx="18.5" cy="18.5" r="18.5" fill="#D99334"/>
<path d="M14.7542 16.22H12.5374V22.3333H11.3118V16.22H9.11451V15.2239H14.7542V16.22ZM20.8919 15.2239V19.9749C20.8919 20.7301 20.6493 21.329 20.1643 21.7717C19.6825 22.2112 19.0396 22.4309 18.2356 22.4309C17.4218 22.4309 16.7756 22.2144 16.2971 21.7815C15.8186 21.3453 15.5794 20.7415 15.5794 19.97V15.2239H16.8098V19.9797C16.8098 20.455 16.9303 20.818 17.1711 21.0686C17.412 21.3193 17.7669 21.4446 18.2356 21.4446C19.1861 21.4446 19.6614 20.9433 19.6614 19.9407V15.2239H20.8919ZM27.6399 20.0188C27.5683 20.7773 27.2883 21.3697 26.8001 21.7961C26.3118 22.2193 25.6624 22.4309 24.8518 22.4309C24.2854 22.4309 23.7857 22.2974 23.3528 22.0305C22.9231 21.7603 22.5911 21.3778 22.3567 20.8831C22.1223 20.3883 22.0002 19.8137 21.9905 19.1594V18.4954C21.9905 17.8248 22.1093 17.234 22.3469 16.7229C22.5846 16.2118 22.9247 15.818 23.3674 15.5413C23.8134 15.2646 24.3277 15.1262 24.9104 15.1262C25.6949 15.1262 26.3264 15.3394 26.8049 15.7659C27.2835 16.1923 27.5618 16.7945 27.6399 17.5725H26.4094C26.3508 17.0614 26.2011 16.6936 25.9602 16.469C25.7226 16.2411 25.3726 16.1272 24.9104 16.1272C24.3733 16.1272 23.9599 16.3241 23.6702 16.718C23.3837 17.1086 23.2372 17.6832 23.2307 18.4417V19.0715C23.2307 19.8398 23.3674 20.4257 23.6409 20.8293C23.9176 21.233 24.3212 21.4348 24.8518 21.4348C25.3368 21.4348 25.7014 21.3258 25.9456 21.1077C26.1897 20.8896 26.3443 20.5266 26.4094 20.0188H27.6399Z" fill="white"/>
</svg>
